<svg id="Layer_1" data-name="Layer 1" xmlns="http://www.w3.org/2000/svg" viewBox="0 0 846 75.23">
	<style>
		path {
			fill: #24292f;
		}

		@media (prefers-color-scheme: dark) {
			path {
				fill: #c9d1d9;
			}	
		}
	</style>
	<path d="M132.68,52.53a34.71,34.71,0,0,1,2.71-9.26c1.26-2.71,2.45-5.43,3.77-8.14.53-1.12,1.33-2.05,1.86-3.11a63.23,63.23,0,0,1,4.76-7.21,1.59,1.59,0,0,1,.33-.27A6.49,6.49,0,0,0,147.83,23a36.84,36.84,0,0,1,2.52-3.11c.26-.27.86-.34,1.32-.53,0,0,.2.19.2.33a4.64,4.64,0,0,1-1.13,2.05c-.2.13-.26.46-.33.73a2.57,2.57,0,0,0-.13.72c-.07.14-.07.34,0,.4.4.27.2.73.2,1.06a.42.42,0,0,1-.27.33,1.1,1.1,0,0,1-.2.33c.07.07.2.07.27.13s.07.14.07.2a8.94,8.94,0,0,1-.6,4.11,10.2,10.2,0,0,0-.6,1.19c-.13.39,0,.53.4.46s.33,0,.4.26a2.84,2.84,0,0,1-.46,1.79.55.55,0,0,0-.2.4c.06.33-.14.4-.33.33s-.4,0-.14-.2c.07,0-.06-.26-.13-.26a.84.84,0,0,0-.93.39c-.33.73-.59,1.39-.92,2.12-.13.26-.07.33.2.33a1.78,1.78,0,0,1,.79.27v.26c-.13,0-.4,0-.46-.07-.4-.53-1.06-.06-1.46-.46-.06.2-.13.4-.2.6s.2.2.33.2.27-.14.4-.2a.24.24,0,0,1,.2-.07c0,.07,0,.27-.07.27-.39.19-.39.46-.26.86s-.13.59-.53.72c-.2.07-.33.2-.13.4a.45.45,0,0,1,.06.27c-.06,0-.2,0-.26-.07-.27-.33-.4-.13-.46.13-.2.6-.8.93-1.13,1.46-.26.33-.66.86-.6,1.19a2.68,2.68,0,0,1-.13,1.32c-.06.2-.33.4-.39.66a3,3,0,0,0-.27,1.13.66.66,0,0,1-.46.73l-.07.06c-.06.47-.46.86-.33,1.33a1.31,1.31,0,0,1-.53,1.58.77.77,0,0,0-.2.47,1.81,1.81,0,0,0,.14.59c.06.27.19.53-.2.66-.07,0-.14.14-.07.14.2.72-.53,1.06-.59,1.65,0,.4-.07.66.19.93s.14.2,0,.33l-.26.26c-.2.14-.2.2,0,.33a.41.41,0,0,1,0,.4.6.6,0,0,0-.07.73c.07.13,0,.26,0,.46a2.6,2.6,0,0,0-.2.73c0,.13.2.33.34.46a3.63,3.63,0,0,1,.46.53c.06,0,0,.14-.07.14-.46,0-.06.39-.2.52l.07.07c.33-.13.33.13.4.27l.39,1.58c.07.4-.06.73,0,1.06a1.06,1.06,0,0,1,0,.8v.13a1.58,1.58,0,0,1,0,1.45c0,.14.07.34.07.47s.2-.13.26-.07.34.27.27.33c-.13.47.07.66.46.8.07.06.2.2.2.26.07.46.4.4.66.33h.13c.6-.13.6-.13.47.47a.87.87,0,0,0,.33.92.9.9,0,0,1,.13,1.19v.13a1.12,1.12,0,0,0,.33.14c.07,0,.13-.14.13-.2,0-.33-.06-.66-.06-1v-.2c.13,0,.33-.07.4.06a2.58,2.58,0,0,0,1.39.6c.06,0,.13.26.26.4s.13.19.26.26a1.51,1.51,0,0,0,1.46-.46c1.39-1.52,2.78-3,4.23-4.5,3.38-3.44,5.76-7.48,8.14-11.65.34-.59.73-1.26,1.13-1.85a29.78,29.78,0,0,0,3.71-9c.59-2.18,1.38-4.3,2-6.49.26-.86.26-1.78.53-2.64.53-1.92,1.19-3.84,1.65-5.76.93-3.51,1.79-7,2.72-10.52.06-.33,0-.46-.4-.53a3,3,0,0,1-1.26-.33,2.42,2.42,0,0,0-1.92,0c-.92.26-2,.33-3,.53a1.36,1.36,0,0,0-.47.2.65.65,0,0,0-.33.06c-.26.07-.53.07-.73.14a1.7,1.7,0,0,1-1.58,0c-.27-.07-.34,0-.47.19a.66.66,0,0,1-.66.34.4.4,0,0,0-.4,0c-.19.13-.39.19-.46-.07h-.13c-.07.46-.2.79-.73.93-.13,0-.13.33-.2.52a.89.89,0,0,0-.06-.39c0-.13-.07-.2-.07-.33-.13.06-.4.13-.4.26s-.2.33-.46.27h-.13c-.73.66-1.59.19-2.38.33s-1.46-.27-2.06.33c0,0-.13,0-.13-.07-.13-.4-.46-.53-.86-.66-1.32-.46-2.71-.93-4-1.46a19.38,19.38,0,0,1-2.51-1.65c-.07,0-.13-.13-.13-.2a2.38,2.38,0,0,1,1.19-1.79A53.26,53.26,0,0,1,159.87,8.6c3.45-.66,6.82-1.39,10.19-2,2.06-.4,4.11-.67,6.16-1,2.25-.39,4.43-.92,6.62-1.32,3.5-.66,7-1.32,10.58-1.92a14.88,14.88,0,0,1,2.52-.13c1.06-.13,2.05-.4,3.11-.53a.67.67,0,0,1,.33-.07c2.31.13,4.5-.46,6.75-.73,2.65-.26,5.23-.72,7.87-1,.07-.07.07-.07.14-.07a1.25,1.25,0,0,0,1.45-.53h.8c.06.07.06.13.13.13a3.14,3.14,0,0,0,1.92.53c1.58,0,3.11.13,4.69.2.73.07,1.39.13,1.53,1.06v.53a10.52,10.52,0,0,1-1.33.53c-.2.06-.39-.07-.59-.2a1.49,1.49,0,0,0,.06-.33c-.06-.07-.13-.27-.19-.27s-.47.14-.47.2a5.57,5.57,0,0,0,.27.66c0,.07.06.14,0,.2s-.14.07-.2.13c-.8.4-.8.4-1-.46-.14-.53-.2-.59-.67-.33s-.79.53-1.19.79a.28.28,0,0,1-.33,0c-.39-.06-.66,0-.66.47a3.59,3.59,0,0,1-.26.46,5.27,5.27,0,0,1-2.19,1.06,1.71,1.71,0,0,0-.53.13c-.06.07-.2.07-.26.07a2.23,2.23,0,0,0-2.12.4.91.91,0,0,1-.4.06c.07-.06.14-.13.14-.2s.26-.2.39-.26c-.2-.13-.33-.33-.53-.4a.66.66,0,0,0-.46.27c-.13.13-.13.19-.33.13s-.4,0-.4.26v.2c-.06,0-.13,0-.13-.06-.4-.27-.66-.2-.79.26s-.47.26-.67.13c-.46-.33-.79-.2-1.19.2-.13.13-.33.27-.46.4s-.13.06-.2.06c-.33-.13-.73.07-1,.14s-.8-.07-1.13.2c-.06.06-.33.13-.39.06-.27-.2-.4-.06-.6.13a3,3,0,0,1-.26.47.57.57,0,0,1-.8.33,1.64,1.64,0,0,0-1.45.13,12.9,12.9,0,0,1-1.72.6h-.27c-.13-.07-.2-.14-.33-.2a2.15,2.15,0,0,0-.26.46c0,.07.06.2.06.33s-.13.2-.2.33c-.06-.06-.06-.2-.13-.2a.25.25,0,0,0-.2-.06c-.2-.07-.39-.07-.46-.2-.26-.27-.46-.13-.73.07-.06.06-.13.33-.33.06h-.07c-.06.46-.79,0-.79.53-.13-.07-.33-.07-.4-.13a2.61,2.61,0,0,1-.66-.53,7.47,7.47,0,0,1-.2.73.71.71,0,0,1-.2.26c-.06-.06-.06-.13-.13-.2a.47.47,0,0,0-.26-.26c0,.13-.07.2-.07.26s.07.2.07.27,0,.06-.07.13L195,9.85c-.2-.26-.27-.13-.27.07s-.2.26-.4.07a2.56,2.56,0,0,0-.26-.2c-.27-.2-.53-.53-.93-.2-.13.13-.39.07-.53,0a1.85,1.85,0,0,0-1.78.79.39.39,0,0,1-.27.07c-.53-.33-.53-.33-.86.2a1.24,1.24,0,0,1-.73.39,2,2,0,0,1-.72.2.31.31,0,0,1-.2-.13s.06-.13.13-.13a.81.81,0,0,1,.33-.33c-.07-.07-.13-.13-.2-.13a1.22,1.22,0,0,0-.46.06c-.2.13-.33.33-.53.46s-.27.07-.27,0c-.19-.39-.52-.33-.86-.26a5.26,5.26,0,0,1-1,0,.62.62,0,0,0-.2.07c0,.33-.14.39-.4.39a.3.3,0,0,0-.26.2c0,.13.13.27.19.4a.53.53,0,0,1,.2.33c0,.13-.13.26-.26.46a1.59,1.59,0,0,0-.2-.33,2.59,2.59,0,0,0-.66-.26c-.07,0-.2.26-.27.33v.06c.4.14.33.53.47.8a.42.42,0,0,1,.06.26h-.06c-.14.2-.2.33-.33.53l.52-.2H184c0,.07,0,.14-.07.14a.39.39,0,0,0-.13.59c.13.33.2.73.33,1.06s0,.4-.27.53l-.39.2a.68.68,0,0,1,.06.2c.4-.2.33.13.4.33s.2.2.33,0h.13c.07.06.14.26.07.33-.33.2-.33.46-.2.79,0,.14-.06.27-.06.4s-.2.33-.34.46-.19.2-.39.27-.33.13-.33.46c-.07.6-.14,1.26-.2,1.85,0,.14,0,.27.06.33.34.47.07.93-.06,1.33,0,.06-.13.13-.13.06a1.12,1.12,0,0,0-1.19.07q-.41.3,0,.6c.26.06.26.2.13.39s.06.2.06.33a.77.77,0,0,0,.33-.06c.07,0,.14-.07.27-.13v.33a2.21,2.21,0,0,0-.13.66c0,.06-.07.13-.07.2s-.13-.14-.13-.2a1.18,1.18,0,0,0-1.06-.66c-.07,0-.13.06-.2.13s.13.13.2.13c.26.13.33.27.13.53-.06.07-.2.13-.2.27-.2.19-.26.13-.33-.07s-.2-.27-.26-.27a.44.44,0,0,0-.33.27,3.07,3.07,0,0,1-.47.13.07.07,0,0,0,.07.07,1,1,0,0,0,.4.13l-.4.4a1.4,1.4,0,0,0-.6.86.3.3,0,0,1-.26.2c-.6.06-.66.13-.66.72a.29.29,0,0,0,.2.2,2,2,0,0,0,.59.2,3.28,3.28,0,0,1-.33,1c-.07.14-.2.2-.2.33-.06.33-.06.6-.53.33,0-.06-.06,0-.06.07.06.4-.14.53-.53.46l-.14.07v.33c.07.13.2.2.34.33.13.33.33.6-.27.66-.33,0-.33.34-.26.6s.13.66-.27.86c-.06.07,0,.26-.06.46a1.21,1.21,0,0,1-.14.47,3.14,3.14,0,0,1-.26.46c-.13.33-.2.66-.33,1a.82.82,0,0,0,.06.93c0,.06-.06.26-.13.26-.33.07-.53.27-.2.6a.42.42,0,0,1-.2.59c-.13.07-.26.2-.46.34s-.06.06-.13.13h.26a2.45,2.45,0,0,0,.73-.4c.13-.13.33-.4.27-.46-.2-.33,0-.47.19-.53.4-.13.4-.4.47-.66a.39.39,0,0,0,.13-.27c.07.13.2.27.26.4v.26a.36.36,0,0,0-.06.2,3.82,3.82,0,0,0,.86,1.13c.59.33.26.86.46,1.25a4,4,0,0,1,.27,1.33c.06.53-.07.59-.53.53s-.33,0-.27.26a6.76,6.76,0,0,1,.2.73.13.13,0,0,1-.13.13.57.57,0,0,1-.33.07c-.07.06-.13.13-.2.2s.13.06.2.13a.22.22,0,0,1,.13.06c.53.27.53.27.79-.33l.2-.19c0,.06.07.19.07.26.2.66,0,1-.66,1.19-.07,0-.07.13-.07.2s.13.07.27.13c-.33,0-.6,0-.6-.4,0-.06-.13-.13-.2-.13s-.06.13-.13.13v.07c.07.46.13.93-.53,1,.2.07.53.2.53.27,0,.33.13.73-.33.92-.07,0-.07.07-.07.14a4.1,4.1,0,0,0-.06.86.06.06,0,0,0,.06.06c.6.53-.06,1.13,0,1.72,0,.14-.2.34-.33.4-.33.13-.4.4-.53.73,0,.13-.33.26-.53.4,0,.06-.06,0-.06,0a1.94,1.94,0,0,1,.53-1.46h.13a.32.32,0,0,0,.26.13c.07-.26.6-.39.4-.86-.07-.13-.26-.39-.4-.39s-.66,0-.72.39c0,.13-.07.4-.2.07v-.07a.62.62,0,0,1-.33-.13c.19-.13.33-.26.53-.4a.21.21,0,0,1,.13-.06c-.07-.07-.13-.14-.2-.14s-.27-.06-.4-.13-.39-.13-.26.2c.06.13-.27.33-.47.33s-.13.07-.19.2a.68.68,0,0,0-.14.4,1.69,1.69,0,0,1-.26-.4c-.13-.33-.33-.2-.6-.2-.46,0-.39.8-.92.6l-.07.06.13.14a1.6,1.6,0,0,0,.33.19l-.39.2c-.6.2-.6.4-.27.86a4.83,4.83,0,0,1,.4.73c.07.07,0,.27-.13.4s-.27.26-.33.33a.76.76,0,0,0-.27.2v-.33c.07-.07.13-.14.2-.2a.24.24,0,0,1-.2-.07V51c0-.06.07-.2.07-.26a1.57,1.57,0,0,0-.4-.27.5.5,0,0,0-.13.33,5.81,5.81,0,0,0-.07,1.13.66.66,0,0,1-.26.33.46.46,0,0,0-.27-.13.27.27,0,0,0-.2.06c-.06.27-.06.6-.13.86-.06.07-.06.2-.13.27a2.23,2.23,0,0,0-.66.46,10.41,10.41,0,0,0-.86.93c0,.06-.07.2,0,.2a.53.53,0,0,0,.39.26l.6-.4h.33c0,.14.07.34,0,.4a1.35,1.35,0,0,1-.73.2,1,1,0,0,0-.92,1.39c.06.2,0,.4.06.53v.2c.07-.07.13-.07.13-.13s.27-.07.4-.14.07-.19.07-.26-.07-.27-.07-.4a1.15,1.15,0,0,1,.27.27,1.33,1.33,0,0,0,.46.13c.13,0,.4-.13.26.2a.68.68,0,0,1,.2.13c.07.07.14.13.2.13l-.2.2H170c0,.53-.2.2-.4.13s-.33-.06-.53-.13a.69.69,0,0,1,.07.33.06.06,0,0,0,.06.07c.34-.2.27.13.4.2a1.51,1.51,0,0,0,.4.26c.2.07.33.07.53.13a3.2,3.2,0,0,1-.47.53h-.19c.06.07.13.2.19.2a4.46,4.46,0,0,1,.67.46c.33.27.59.14.72-.19a7.88,7.88,0,0,0,.67-1.33c0-.06-.14-.2-.2-.33s-.27-.13-.33-.26-.07-.14-.07-.27a.24.24,0,0,1,.2.07c.13.06.26.2.4.26.46.33.46.47.13.86-.07.07-.2.2-.2.27a2.13,2.13,0,0,1-.66,1.52c-.27.46-.53,1-.86,1.46a2.89,2.89,0,0,1-.6.66l-1.65,2.25c-.27.33-.4.33-.66,0s-.33-.33-.47,0-.53.33-.86,0c-.06-.07-.26,0-.39,0a3.62,3.62,0,0,0-.33.2c.06.06.13.13.19.13h.2a.25.25,0,0,0-.06.2c-.27.26-.14.26.13.26h.26c.14,0,.27.07.4.07a.71.71,0,0,1-.26.33,8.91,8.91,0,0,1-1.33.73.26.26,0,0,1-.06-.14c0-.13.13-.26.13-.39s.06-.4-.33-.4c-.13,0-.27-.2-.47-.26a3.27,3.27,0,0,0,.27-.47c0-.06.07-.13.07-.2s-.27-.06-.27,0c-.26.33-.73.53-.66,1,0,.06,0,.13-.07.13-.39.46-.06.73.2,1.06.07.13.07.26.13.39-.2,0-.33-.06-.46-.06s-.13-.2-.2-.2-.06-.07-.13-.13v.13a1.35,1.35,0,0,1-1.13,1.26,1.15,1.15,0,0,0-.13.72,1.38,1.38,0,0,1-.13,1.13.24.24,0,0,0-.07.2,1.08,1.08,0,0,1-.72,1.19c-.47.13-.73-.07-.73-.53,0-.13-.2-.27-.33-.4,0,.13-.14.2-.07.33a1.38,1.38,0,0,0,.13.47.84.84,0,0,0,.2.26c-.2,0-.46.07-.59,0a.69.69,0,0,1-.14-.73,2.29,2.29,0,0,0,.07-1c-.07-.2-.2-.26-.33-.07s-.27.2-.46.07-.4,0-.53.27a4.43,4.43,0,0,1-.67.92,15.58,15.58,0,0,1-1.72,1.39.56.56,0,0,0-.13.27c0,.06.13.13.27.19s.2.07.26.07-.13.2-.26.2c-1.13.33-2.25.53-3.25.93-1.39.53-2.84.19-4.16.59a5.43,5.43,0,0,0-.93.33h-.27c-.06-.13-.19-.2-.26-.33-.4-.53-.66-.53-1.26-.4a2.12,2.12,0,0,1-.66.07,6.74,6.74,0,0,0-1.65.13,2,2,0,0,1-1.39-.26,3.48,3.48,0,0,0-2.12-.66,1.42,1.42,0,0,1-1.39-.6c-.4-.53-.8-1-1.13-1.52-1.72-2.25-3.5-4.5-4.16-7.41a16.14,16.14,0,0,1-.8-3.58c-.06-.79-.2-1.52-.33-2.31V55.12C132.41,54.26,132.61,53.4,132.68,52.53Zm12-11.24a.5.5,0,0,0,.27-.14,1.9,1.9,0,0,1,.13.67.67.67,0,0,1-.2.46c-.06.06-.2.26-.26.26s-.33-.2-.33-.33a3,3,0,0,1,0-.79c0-.07.13-.13.13-.13S144.59,41.35,144.65,41.29Zm1.2,26c.06.07-.07.13-.14.2,0-.13-.06-.26-.06-.33a.57.57,0,0,1,.06-.27C145.78,67.09,145.85,67.16,145.85,67.29ZM147,38v-.6a.25.25,0,0,1,.2.07l.33.33a2.55,2.55,0,0,1,.19.26c-.13.14-.33.27-.46.4s-.13-.07-.2-.07A.89.89,0,0,0,147,38Zm1.65-1.46c-.13-.2-.46-.4-.46-.59a2.28,2.28,0,0,1,.33-.86c.07,0,.2,0,.2.06.06.27.2.46.26.8C148.89,36.12,148.82,36.32,148.69,36.52Zm11.25,32.89c.33.2.13.33,0,.46s0,.27,0,.4l.2-.2c.13-.07.33-.2.46-.26.07.13.07.26.13.39v.14a.22.22,0,0,1,.14-.07c.06-.2.26-.53.2-.66a2.91,2.91,0,0,0-.8-.6A2,2,0,0,1,159.94,69.41Zm2.38-3c0,.07-.13.2-.13.27s.13.19.26.26a.24.24,0,0,0,.07-.13C162.45,66.7,162.39,66.56,162.32,66.43Zm4.11-2.12c.06.2.26.33.39.47a3.27,3.27,0,0,0,.27-.47c0-.06-.14-.19-.27-.33C166.62,64.12,166.43,64.25,166.43,64.31Zm1.38-2.58c-.13-.13-.19-.26-.33-.33a1.63,1.63,0,0,1-.39.33c.13.07.2.14.33.2Zm1.46.73c.07-.07.13-.07.13-.13a.08.08,0,0,0,0-.13c-.53-.14-.59-.53-.66-1a.25.25,0,0,0-.07-.2.31.31,0,0,1-.13.2c-.06.07-.13.14-.13.2a2.21,2.21,0,0,1-1.12,1.19l-.07.14a8.1,8.1,0,0,0,1.26.72c.06.07.33-.13.46-.26s0-.2,0-.33-.13-.27-.07-.27.2-.13.33-.2Zm-.46-3.9c-.14-.33-.4-.27-.6-.2s-.13.2-.2.4l.2.13c.2-.27.2,0,.27.13s.13.26.26.26.27,0,.13.27v.2c.07-.07.14-.07.2-.13s0-.14.07-.34A2.22,2.22,0,0,1,168.81,58.56Zm0,1.85c-.07,0-.14.07-.2.07s.06.13.2.19.26.07.39.07.14,0,.14.07.26.33.39.46.07.2.14.33.06.13.13.2.13-.07.2-.13a.48.48,0,0,0-.14-.73c-.33-.2-.79-.4-1.19-.66C168.87,60.34,168.87,60.34,168.81,60.41Zm.86-3.84c-.13-.13-.27-.2-.4-.33v-.13a1.36,1.36,0,0,0,.33-.27c.07,0,.13-.06.13,0l.2.2A1.86,1.86,0,0,1,169.67,56.57Zm.53,3.24-.6.4a2.65,2.65,0,0,0,.6.27c0,.06.13-.14.2-.27A1.31,1.31,0,0,0,170.2,59.81ZM171.85,56l-.13-.14-.2-.19c-.07.13-.13.19-.07.33s.07.33.07.46a2.36,2.36,0,0,1-.53-.13l-.59-.2c-.07-.07-.2-.2-.2-.27s.13-.19.2-.33c.06.14.19.2.19.27.14.26.27.26.4,0a.24.24,0,0,0,.07-.2c.2-.13.39-.4.46-.33s.33.33.46.53C171.92,55.84,171.92,55.91,171.85,56ZM171,54.85h-.06c0-.2-.6-.13-.2-.53.06-.06,0-.26,0-.4a.64.64,0,0,0,.26.34,1.22,1.22,0,0,0,.46.06A3.11,3.11,0,0,1,171,54.85ZM170.93,53c0-.07.06-.13.13-.2a1.24,1.24,0,0,1,.2.26.93.93,0,0,1-.2.14C171,53.13,170.93,53.06,170.93,53Zm.46,5.23c-.13-.14-.27-.2-.33-.27s.13-.13.13-.13a1.25,1.25,0,0,1,.33.26Zm1.79-1.79a3.34,3.34,0,0,0-.47-.46c-.13-.14-.2-.2-.33-.33.13,0,.2-.07.33-.14l.4-.2a.83.83,0,0,0-.07.4c0,.07.14.13.14.2a5.28,5.28,0,0,1,.26.53.75.75,0,0,0-.13.2C173.24,56.51,173.24,56.44,173.18,56.44Zm.33-6.09s.06.07,0,.07a.55.55,0,0,1-.33.13s-.14-.07-.14-.13c0-.27-.06-.4-.39-.27-.07,0-.14-.13-.2-.13s.2-.13.33-.26A6.46,6.46,0,0,1,173.51,50.35Zm-.67,6.22v-.2c.07.07.14.14.14.2s.06.33.13.53H173A1.18,1.18,0,0,1,172.84,56.57Zm.6-1c0-.33,0-.6-.4-.66v-.14c.2-.26.47-.52.66-.79.07-.07.14-.07.2-.13a2.46,2.46,0,0,0,.2-.27,1.65,1.65,0,0,1,.6.53c.06,0-.07.2-.14.33s-.33.53-.46.8-.33.46-.53.73C173.51,55.78,173.44,55.71,173.44,55.58Zm.33-.66a3,3,0,0,0,.07-.33c-.07-.14-.2-.2-.27-.33a1.26,1.26,0,0,1-.26.39c.06.07.2.07.26.13S173.7,54.92,173.77,54.92ZM173.9,51a.46.46,0,0,1-.26-.13c.13-.07.26-.2.4-.26s.06,0,.19.06Zm.33-11.25c.07,0,.2.07.27.07a6.72,6.72,0,0,0,.66-.33c.07,0,.07-.07.13-.13s-.13-.14-.2-.14l-.66.2c-.13,0-.2.14-.26.2A.26.26,0,0,1,174.23,39.76Zm.07,9.8a.21.21,0,0,1-.13-.07c.13-.06.26-.2.39-.26s.14.06.27.13A2.11,2.11,0,0,0,174.3,49.56Zm.93-.27c.06-.13.19-.2.33-.33a.21.21,0,0,0,.06.13c-.13.14-.2.27-.33.4C175.23,49.36,175.16,49.29,175.23,49.29Zm1.05-3.44c-.13.07-.26.13-.26.2s.07.13.13.26c.13-.13.27-.19.4-.33C176.42,45.92,176.35,45.85,176.28,45.85Zm-.06-1.52a.2.2,0,0,0,.06.13.39.39,0,0,0,.73,0c.07-.06,0-.2-.06-.33,0,.07-.14.07-.14.13s-.13.27-.26,0c-.07,0-.07-.06-.13-.06S176.28,44.26,176.22,44.33Zm.66-3.71h-.13a.26.26,0,0,0-.2-.06.53.53,0,0,0,.13.26,3.69,3.69,0,0,0,.53.27c.2,0,.4.06.46,0s.34-.33.07-.6c-.07,0,0-.2.07-.33s.06-.2.06-.33-.33-.13-.39-.07c-.27.14-.4.14-.53-.13s-.2-.13-.2,0a.53.53,0,0,0,0,.46c.06.14.13.27.2.4S177,40.62,176.88,40.62Zm-.33,1.72c.07,0,.13.07.2.07a2,2,0,0,0,.33-.26c0-.07-.07-.07-.13-.14C176.81,42.15,176.68,42.21,176.55,42.34Zm2.18-14.29a2.56,2.56,0,0,0-.2-.26c0-.07.07-.07.14-.07a1.58,1.58,0,0,0,.46.2A3.27,3.27,0,0,1,178.73,28.05Zm.33,1.85c.07.14.14.2.14.33s-.07.14-.14.14-.06-.14-.13-.14S179,30,179.06,29.9Zm.47-6.15c-.07.4-.13.79-.2,1.26,0,0,.13.13.2.06s.46-.26.66-.39a.23.23,0,0,1,.07-.2.25.25,0,0,0-.2-.07c-.27,0-.47-.06-.27-.39.07-.07-.06-.27-.06-.47C179.59,23.68,179.53,23.68,179.53,23.75Zm1.06,2.85a.71.71,0,0,1-.14-.4c-.06,0,.14-.13.2-.13s.13.13.2.13.13.2.13.26S180.72,26.6,180.59,26.6Zm2-2.45c-.13-.2-.33-.47-.46-.66l.2-.2.2.2a3.15,3.15,0,0,1,.19.59A.21.21,0,0,1,182.57,24.15Zm1-6c-.13.06-.19.13-.33.19a1.59,1.59,0,0,1,.27.33c.06-.06.13-.19.2-.26Zm1.79-6.62a.31.31,0,0,1,.13.2,2.2,2.2,0,0,1-.13.72,1.92,1.92,0,0,1-.46-.39C185.09,11.84,185.22,11.64,185.35,11.51Zm10.26-1.26c-.07.07-.2-.13-.27-.2a3.5,3.5,0,0,1,.53-.33.48.48,0,0,1,.2.07A3.24,3.24,0,0,1,195.61,10.25Zm.59-.73a.5.5,0,0,1,.14.27.48.48,0,0,1-.14.26c0-.06-.06-.2-.06-.26S196.2,9.59,196.2,9.52Z" />
	<path d="M205.07,43.07a.91.91,0,0,0-.14.8.58.58,0,0,1-.06.46,11.36,11.36,0,0,1-.27,1.39c-.06.33-.06.66.2.79-.07.73-.93,1.66-2.12,4.7a2.72,2.72,0,0,1-.79,1.26,1.7,1.7,0,0,0-.33.59,4.43,4.43,0,0,1-.46.73c-.14.13-.07.2.13.27-.27.2-.66.06-.93.33,0,.06-.13,0-.13,0s-.07-.2-.13-.33c-.07.2-.07.39-.14.59a.49.49,0,0,1-.39.53,1.17,1.17,0,0,0-.8.4c-.06.07-.13.07-.2.13a2.66,2.66,0,0,0-1.39,1.59c-.06.07-.19.07-.33.07s-.26.33-.46.39a.12.12,0,0,1-.2,0,.13.13,0,0,1,0-.2,4.89,4.89,0,0,0,.73-.66v0c.07-.06.13-.06.2-.13v-.2s-.07-.06-.07,0a.15.15,0,0,0-.13.13v.2c-.46-.2-.79.14-1.19.27a.46.46,0,0,0-.13.26,1.39,1.39,0,0,0-.07.53,4.54,4.54,0,0,0-1.52.73c0,.07.06.2.06.26a.33.33,0,0,1-.33.27,1.14,1.14,0,0,0-.46-.13,2.67,2.67,0,0,0-.46.39,3.12,3.12,0,0,1-.53.2l-.66-.2a2,2,0,0,1-1.33.6.34.34,0,0,1-.2.06,3.11,3.11,0,0,1-2,.2,3.94,3.94,0,0,1-1.52-.53c-.4-.26-.79-.39-1.19-.66s-.53-.46-.86-.66a8,8,0,0,1-1.85-2.12,3.3,3.3,0,0,1-.53-1c-.14-.26-.27-.53-.47-.86a6.49,6.49,0,0,1-.72-1.12c-.14-.14-.27-.34-.4-.47a1.67,1.67,0,0,1-.4-.59,11.34,11.34,0,0,1-.46-4.7,14.47,14.47,0,0,1,1.52-5.23c.33-.73.73-1.39,1.06-2.12a7.85,7.85,0,0,1,1-1.78,23.63,23.63,0,0,1,1.92-2.58l.4-.4a28.4,28.4,0,0,1,2.84-3.38,18.6,18.6,0,0,1,2-1.85,5.47,5.47,0,0,1,1.19-.73c.4-.2.86-.53,1.26-.72.53-.34,1-.6,1.52-.93.07,0,.2-.07.26-.07a1.48,1.48,0,0,0,1,.27,1.52,1.52,0,0,1,.92.39c.2.27.4.47.6.73v.13c-.33.53-.33.53.13.93a1,1,0,0,0,.46.2,8.25,8.25,0,0,1,1.59.66,1.18,1.18,0,0,0,.53.13,1.7,1.7,0,0,1,1.26.53,5.24,5.24,0,0,1,1.19,1.46,2.2,2.2,0,0,0,.33.46,16.85,16.85,0,0,1,1.26,2,3.26,3.26,0,0,1,.4,1.12c.06.07.06.2.13.27a.83.83,0,0,1,.2.79,1,1,0,0,0,.13.6.25.25,0,0,1,.06.2,9.78,9.78,0,0,0,.2,1.85v1.19a1.72,1.72,0,0,0,.14,1C205.13,42.81,205.07,43,205.07,43.07Zm-5.83-1.19c0-1.12.07-2.31,0-3.44,0-.79.07-.79-.46-1.39a3.51,3.51,0,0,0-.86-.86c-.4-.2-.86-.33-1.26-.53-.2-.07-.4-.2-.66-.07a.76.76,0,0,1-.66-.13.75.75,0,0,0-1.06.2c-.33.4-.66.79-1,1.13a3.44,3.44,0,0,0-.66,1.05,1.43,1.43,0,0,0-.87.6.43.43,0,0,1-.26.33,1.93,1.93,0,0,0-.66.8.43.43,0,0,1-.4.33.66.66,0,0,0-.46.26c-.33.46-.66,1-1,1.52a1.24,1.24,0,0,0-.07.53c0,.07,0,.07-.07.13a6.87,6.87,0,0,1-.86,1.13,2.5,2.5,0,0,0-.59.86c-.2.73-.66,1.39-.86,2.12-.07.26-.27.46-.33.66s-.2.4-.33.59a1.35,1.35,0,0,1-.14,1.13,1.14,1.14,0,0,0-.2.66,3.71,3.71,0,0,0-.13.8,4.51,4.51,0,0,0,1.52,4.1,1.38,1.38,0,0,0,1.39.39,11.45,11.45,0,0,0,1.53-.52,20.58,20.58,0,0,0,3-1.33,13.4,13.4,0,0,0,1.72-.92.8.8,0,0,0,.34-.34,15.21,15.21,0,0,0,1.45-2.05,3.85,3.85,0,0,1,.4-.59,4.25,4.25,0,0,0,.79-1.52,3,3,0,0,1,.33-.6c.13-.33.33-.66.47-1.06a10.56,10.56,0,0,0,.59-2.51c.07-.2.07-.4.13-.53C199.31,42.54,199.24,42.21,199.24,41.88ZM193,20.44a3.06,3.06,0,0,1,.72.86,2.14,2.14,0,0,1,.47,2.32c-.07.06-.14.33-.27.53a.79.79,0,0,1-.53.66,1.54,1.54,0,0,0-.66.53,1,1,0,0,1-1.12.79,1.19,1.19,0,0,0-.33.07h-.4a2.81,2.81,0,0,1-1.72-.73,5.2,5.2,0,0,0-.8-.86,14.28,14.28,0,0,1-1.45-1.46v-.92c0-.27.06-.53.06-.86a2.33,2.33,0,0,1,.8-1.26A2.49,2.49,0,0,1,189,19.05h.46C190.64,19.51,191.76,20,193,20.44ZM189.65,59a1.44,1.44,0,0,0-.33-.26,3.12,3.12,0,0,0-2.19-.07.33.33,0,0,0-.2.2c-.06.2.07.27.2.33a2.7,2.7,0,0,0,1.92.13c.13-.06.27-.06.4-.13Zm5.82-24.35a1.31,1.31,0,0,0,.33.27,8.24,8.24,0,0,1,2,1,1.56,1.56,0,0,0,.8.4,4.62,4.62,0,0,0-1-1.79.83.83,0,0,0-.86-.2.85.85,0,0,1-.59,0A.79.79,0,0,0,195.47,34.6Zm7.68-8.34c-.07.07-.2.07-.4.07s-.73-.07-1.06-.07-.59.07-.86.07a3.21,3.21,0,0,1-.93-.46c-.53-.47-1.12-.8-1.65-1.26s-1.06-1.06-1.13-1.79c0-.33.07-.72.07-1v-.59a.3.3,0,0,1,0-.34c.33-.26.4-.59.66-.72a1.21,1.21,0,0,1,.6-.4h1.06s0,.07.13.07a1.3,1.3,0,0,0,.07.33c.13,0,.13.06.19.06v-.06L200,20a8.36,8.36,0,0,1,2.78,1.66l.2.2a4.3,4.3,0,0,1,.92,1.85v1.32C203.68,25.4,203.41,25.8,203.15,26.26ZM200.7,53.13c-.33,0-.33.2-.4.4s0,.2.07.26.2.07.33.13Z" />
	<path d="M231,68.75a1,1,0,0,1-.66.46.63.63,0,0,0-.66.46,1.18,1.18,0,0,1-.86.6c-.07,0-.13.07-.27.07s-.13.26-.13.46c-.06,0-.06.06-.13.06a2.06,2.06,0,0,0-.86.53,1.86,1.86,0,0,1-.93.27c-.2,0-.46.07-.66.07,0,.19,0,.26.07.33a1.35,1.35,0,0,1-.73.13,1.37,1.37,0,0,0-1.19.46,4.16,4.16,0,0,0-1.52.07h-.14a9.31,9.31,0,0,1-3.9-1.19,7.25,7.25,0,0,1-1.26-1.19,5.24,5.24,0,0,1-.73-1.13c-.13-.2-.39-.53-.26-.79s0-.2-.07-.27c-1-1.06.8-9.79.47-10.72a17,17,0,0,1,1-4.1,15.15,15.15,0,0,1,.66-2.12,21.51,21.51,0,0,0,.79-3c.2-.93,0-.93-.72-1.19a4.1,4.1,0,0,0-2-.33,5,5,0,0,1-.92.19,2.33,2.33,0,0,1-1,.14.18.18,0,0,0-.2.2c0,.26,0,.46.14.59.26-.07.06-.46.46-.53a3.41,3.41,0,0,1-.46,1.39c0,.07-.27.2-.33.27s-.07-.14-.2-.14-.13-.06-.2.14a.46.46,0,0,0,.4,0,1,1,0,0,0-.4.53.37.37,0,0,0-.13.33c-.07.46-.8.86-.33,1.32.26.13.26.26.13.46s-.13.4-.2.66-.13.27-.4.2c-.06,0-.13.07-.2.13s-.72,2.59-.86,2.72a.4.4,0,0,0-.13.46,1.43,1.43,0,0,1-.13.2c-.07.2-.2.33-.2.53s-.13.4.13.46c.07.07,0,.2.07.4a.36.36,0,0,0,.26-.2c0,.13.14.2,0,.27s-.13.26-.13.53a2.64,2.64,0,0,1-.33.72,1.25,1.25,0,0,0-.33.53,1.13,1.13,0,0,0-.93.6c-.39-.07-.39-.07-.72-.4-.14,0-.34.07-.47.4s-.26.26-.46.39c0,.14.07.27.07.47-.34.46-.34.46-.67.53a.56.56,0,0,1-.13.39c-.06.27-.2.53-.46.53a.37.37,0,0,0-.33.14,4.32,4.32,0,0,0-.53-.27c-.2.33-.66.4-.8.86l-.2.07c-.26-.07-.92,1.59-1.19,1.52-.13.13-.19.26-.33.4s-.13.26-.33.26c0-.26.27-.4.33-.73.07,0,.14-.13.07-.26a.91.91,0,0,0-.2.46.65.65,0,0,1-.33-.06c.46-1.06,1.52-3.45,1.92-4.57a2.56,2.56,0,0,0-.6-.66,1.47,1.47,0,0,1-.13-1.06,2.84,2.84,0,0,0,.2-.73c-.07-.46.26-.79.4-1.19a.24.24,0,0,1,.39,0c.14.2.33.2.53.27a8,8,0,0,0,.66-1.53c.07-.2.6-2.64.67-2.84.13-.4.26-.8.39-1.13a10.83,10.83,0,0,1,.47-1.52c.13-.33.2-.66.33-1.06-.13,0-.2-.06-.33-.06V48.1h-.33c0-.06-.07-.06,0-.2.33-.26.53-.59.92-.86a1.62,1.62,0,0,0,.33-.59c.33-1,.6-2.05.93-3a20,20,0,0,1,1.32-3.31.38.38,0,0,0,.07-.26,2.51,2.51,0,0,1,.26-1c.07-.13.14-.39.2-.53s.07-.13.13-.26.34-.46.27-.79a.23.23,0,0,1,.07-.2,2.7,2.7,0,0,0,.52-1.06,1.39,1.39,0,0,1,.27-.66.63.63,0,0,0,.13-.67c.2,0,.33,0,.4-.06.4-.6,1.12-.86.2-.66l-.07.06a.73.73,0,0,0-.73.4h-.33c-.06-.6.47-.6.73-.86,0-.2-.13-.2-.26-.13a3.36,3.36,0,0,0-.73.33c-.13,0-.13.2-.2.26s-.2.27-.27.33a3.28,3.28,0,0,0-.66,1c-.06.13-.2.19-.26.33s-.2.26-.33.39c-.33.2-.6,0-.93-.19a2.51,2.51,0,0,1-.93-.93c-.06-.07-.26-.13-.39-.27v-.26a1.6,1.6,0,0,0-.27-.73,3,3,0,0,1-.79-1.32,5.87,5.87,0,0,0-.4-1,.44.44,0,0,1,.13-.73c.6-.53,1.2-1.06,1.72-1.59.14-.07.2-.13.34-.2a5,5,0,0,0,1.12-.86,5.73,5.73,0,0,0,.93-.46c.06,0,.13-.13.19-.2A16.55,16.55,0,0,1,214.53,26c.39-.13.86-.4,1.25-.53a18.34,18.34,0,0,1,3.58-1.19c.59-.13,1.25-.4,1.85-.53.13,0,.4-.07.59-.07a21.83,21.83,0,0,1,4.57-.06,13.74,13.74,0,0,1,4,.92,4.55,4.55,0,0,1,2.31,2c.33.66.8,1.32,1.13,2a5.13,5.13,0,0,1,.39,1.26,12.47,12.47,0,0,0,.47,1.33,3.53,3.53,0,0,1,.39,2.18,5.4,5.4,0,0,1-.46,1.39c-.2.26-.26.66-.46.92a2.31,2.31,0,0,1-.4,1,5.24,5.24,0,0,0-.79,1.19c-.07.13-.2.2-.27.33a3.52,3.52,0,0,1-1.06.93c-.13.06-.19.26-.33.39A1.06,1.06,0,0,1,231,40c-.13.07-.26.2-.26.27.13.33-.13.46-.27.66-.06-.13-.06-.2-.13-.27a.65.65,0,0,0-.53.6c-.46.07-.86.13-1.06.6-.13-.14-.2-.2-.2-.4-.59.26-1.19.59-1.78.86-.14-.27.06-.27.13-.33a.38.38,0,0,0,.2-.33.27.27,0,0,0-.07-.2c0-.07-.06-.07-.13-.07a1.34,1.34,0,0,0-.4.27c-.13.06-.2.2-.33.13-.33,0-.46.2-.66.26a1.28,1.28,0,0,0-.46.53h-.4c0,.07-.07.2,0,.27a3.17,3.17,0,0,0,.4,1,6.93,6.93,0,0,1,.33,1.59,16.2,16.2,0,0,1-.07,2.51,23,23,0,0,0-.46,2.91c-.13.73-.2,1.39-.27,2.12,0,.07-.06.07-.13.13s-.26.2-.26.34.06.33.06.59a.65.65,0,0,1-.33.13v.14a.79.79,0,0,1,.07,1,.68.68,0,0,0-.13.4c0,.13-.14.26-.2.39a1.75,1.75,0,0,1-.73,1.06.48.48,0,0,0-.2.33c-.13.33-.26.66-.4,1.06a5.66,5.66,0,0,1-.53,1.39,8.86,8.86,0,0,0-.79,2.45v.26c.2.47.2,1.13.4,1.59,0,.13.13.2.13.33s.13.53.26.66a10.51,10.51,0,0,0,1.33,1.53.56.56,0,0,1,.39.26,2.13,2.13,0,0,0,.47.33l.53.2a3.44,3.44,0,0,0,1.39.73.26.26,0,0,1,.13.06v.2l-.07.07h-.2a16.8,16.8,0,0,1-3.3-1.92A15.77,15.77,0,0,1,221.14,65a1,1,0,0,1-.2-.26c-.13.13-.13.2-.13.2s.13.26.2.39a2.29,2.29,0,0,0,.86,1.72,4.55,4.55,0,0,0,1.65,1.13c.53.2,1.06.46,1.53.59a5.58,5.58,0,0,0,2,.27,11.36,11.36,0,0,0,3-.33A4,4,0,0,1,231,68.75ZM211.68,38h-.07s0-.07-.13-.07h.13A.07.07,0,0,0,211.68,38Zm.86,13c-.46.06-.6.39-.73.72-.06.14-.06.2.07.4a1,1,0,0,1,.59-.53C212.67,51.48,212.67,51.28,212.54,51Zm.86-2.85c-.2.13-.26.2-.2.33C213.4,48.37,213.47,48.23,213.4,48.1Zm10.72-12.51a26.48,26.48,0,0,0,2.12-1.85A14.88,14.88,0,0,1,228,32.29c.06-.14.13-.2.26-.14a9.45,9.45,0,0,1-1.59,1.72c-.06.14-.06.14-.06.2v.27a4.82,4.82,0,0,1,.59-.6,3.78,3.78,0,0,0,.53-.53,2.18,2.18,0,0,0,.6-.53,5,5,0,0,1,.59-.39c0,.2.07.53-.06.72s-.4,0-.27.14c0-.07.07-.27.07-.33h.26c.2-.2.34-.27.4-.47a10.58,10.58,0,0,0,1-1.45,4,4,0,0,0,.4-1c-.4-.46-1-.26-1.45-.53.52-.13.86.27,1.39.2a.54.54,0,0,0-.34-.46,5.12,5.12,0,0,1-.53-.13c-.26-.07-.39-.2-.59-.2a7.1,7.1,0,0,0-2-.27h-.33a2,2,0,0,0-1.06,0c-.06.07-.26.07-.39.07s-.33-.07-.53-.07-.33.27-.53.27a2.92,2.92,0,0,1-1.06.07,1.48,1.48,0,0,0-1.26.33c-.06.06-.2.19-.26.19-.4,0-.53.27-.8.34V30a.24.24,0,0,0,.14.07,2.16,2.16,0,0,1,.66-.14c.13-.13.2-.13.4.07-.14.07-.2.13-.27.13a3.06,3.06,0,0,1-.79.27c-.27.2-.4.33-.33.53a3.18,3.18,0,0,1-.07.79v.13a1.33,1.33,0,0,1,.46-.13c.2.13.13.27.2.46a.41.41,0,0,1-.13.47c-.13.2-.27.06-.46,0s-.34-.07-.53.2a.88.88,0,0,1-.14.39,1.52,1.52,0,0,1-.66.93.55.55,0,0,0-.13.46,1.31,1.31,0,0,1-.27,1,.29.29,0,0,1-.06.2,3.23,3.23,0,0,1-.27,1.39c-.33.6-.53,1.19-.79,1.79v.26a.89.89,0,0,1,.46.14c-.06.13-.13.2-.2.33a4.37,4.37,0,0,1-.52.53c-.07.06-.14.2,0,.26a11.55,11.55,0,0,0,1.72-.92c.26-.2.66-.34,1-.6a4.76,4.76,0,0,0,1.59-1.06,5.29,5.29,0,0,0,1.06-1c.33-.4.72-.73,1-1.13C224,35.73,224.05,35.59,224.12,35.59Zm-4.5,34.61c-.33-.53-.66-1-1-1.45-.13-.14-.2-.27-.33-.33a.5.5,0,0,0-.53-.33h-.07c-.06.39.4.52.4.92,0,.07-.33.07-.27.27a2,2,0,0,0,.47-.2,2.08,2.08,0,0,1,.66.66,5,5,0,0,1,.59.66C219.69,70.34,219.62,70.27,219.62,70.2Zm-1-31.49h.13c-.07.06-.07.06-.07.13s-.06-.07-.19-.07Zm.39-5a.22.22,0,0,0,.07.19s.2,0,.2-.06a2.09,2.09,0,0,0,.59-1.79h-.26a1.49,1.49,0,0,0-.33.53C219.22,33,219.09,33.28,219,33.68Zm0,4.5v0Zm4.24,6a3.08,3.08,0,0,1,1.06,1.79,3.55,3.55,0,0,0,.26.73.71.71,0,0,0,.14.33c.06-.07.13-.07.06-.14a3.28,3.28,0,0,0-.13-.92,1.73,1.73,0,0,1-.13-.8,6.18,6.18,0,0,0-.47-2c-.06-.07-.13-.07-.19-.13l-.93.19c-.13.14-.2.34-.07.47S223.06,44,223.26,44.13Zm3.71-15c-.14.06-.14.19-.2.19a9.08,9.08,0,0,0-3.25.34.75.75,0,0,1-.66.06.78.78,0,0,1,.53-.33,8.61,8.61,0,0,1,2.58-.26h1Zm-3.71,27.26a.82.82,0,0,0,.13-.53A.8.8,0,0,0,223.26,56.44Zm.33-1.79c0,.07.07.13.07.2s.2-.07.2-.13-.14-.07-.14-.13S223.66,54.65,223.59,54.65Zm.53-18.13v-.07a.07.07,0,0,1-.07.07v.07A.07.07,0,0,0,224.12,36.52Zm3.64-7.15c-.07,0-.2-.13-.33-.13a1.59,1.59,0,0,1,1.19.13h-.86Z" />
	<path d="M263.23,44.59c-.07.07-.14.14-.2.14a14.94,14.94,0,0,0-2.12,1.12c-.27.53-.93.66-1.39,1.06s-.86.79-1.32,1.13c-.8.72-1.66,1.39-2.45,2.05-.8.46-1.59,1.19-2.32,1.65-.53.33-.92.79-1.52.79a.71.71,0,0,0-.4.14.69.69,0,0,0-.53.86,3.74,3.74,0,0,0,.2,1.12l-.79.8v.39a.74.74,0,0,1-.33.8,3.35,3.35,0,0,0-.86.86,2.08,2.08,0,0,1-.73.79c-.4.4-.79.8-1.19,1.19a1.12,1.12,0,0,0-.13.66c-.27.47-.8.6-1.26.8-.13.06-.4.26-.53.13-.46-.13-.66.13-.93.27a1.34,1.34,0,0,1,0,.53c-.06.13-.33.19-.46.26-.13-.13-.4-.2-.53-.33a6.86,6.86,0,0,1-.4.66,1.26,1.26,0,0,0-1,.4,2.83,2.83,0,0,0-.26-.66c-.14.06-.33.06-.4.26a1.72,1.72,0,0,0-.6.6.76.76,0,0,1-.86.26.81.81,0,0,0-.66.13c-.4.4-.46.4-1-.06a1.75,1.75,0,0,1-1.19.79,5.79,5.79,0,0,1-1.59.4c-.2,0-.33.06-.6.06-.06.07-.19.14-.26.07-.4-.26-.66.07-1.06.2s-.73-.13-1,.2c-.13.06-.13.26-.13.46a5.9,5.9,0,0,1-.86.2c0-.2.06-.26.06-.4s-.06-.2-.13-.26a.4.4,0,0,0-.4,0c-.13.13-.13.4-.33.26a.63.63,0,0,1-.53-.2,5.45,5.45,0,0,1-1-.79,5.37,5.37,0,0,1-.79-1,2.8,2.8,0,0,1-.67-2,.55.55,0,0,0-.13-.46,6.26,6.26,0,0,1-.53-.86,2,2,0,0,0-.46-.73c-.13-.26-.2-.46-.27-.59a9.17,9.17,0,0,1-.39-2.52,1,1,0,0,1,.2-.53.71.71,0,0,0,.19-.66.29.29,0,0,1,.07-.4c-.26-.73,1.92-6.42,2.51-7.28a1.6,1.6,0,0,0,.34-.86.6.6,0,0,1,.19-.33,2.46,2.46,0,0,0,.8-1.06c.2-.39.46-.79.66-1.12a3.55,3.55,0,0,0,.79-1.26,5,5,0,0,1,1-1.12s.13-.07.13-.14c.2-1,6.81-6.94,7.15-7.34.92-.73,2-1.46,2.91-2.25,2.38-1.92,5.22-3,8-4.37.53-.2,1.13-.59,1.72-.4a1,1,0,0,0,.53-.26,1.13,1.13,0,0,1,.8-.07,1.38,1.38,0,0,1,.66.33,8.89,8.89,0,0,1,1.92,1.2,3.07,3.07,0,0,1,.46.19,4.83,4.83,0,0,1,2.38,2.59.89.89,0,0,1,.27.19c.13,0,.13.2.13.2s-.2.13-.26.13a10.87,10.87,0,0,1-1.46-.06,1.59,1.59,0,0,0-1.26.13c-.53.2-1.06.46-1.58.6a2.46,2.46,0,0,1,.06.66,1.55,1.55,0,0,0-1.19.2c-.66.33-1.32.66-2,1.06a.54.54,0,0,0-.33.33,2.31,2.31,0,0,1-1.05.72c-1.26.53-2.25,1.79-3.45,2.52-.59.46-1.25.73-1.58,1.39-.07.06-.27.13-.33.2A8.92,8.92,0,0,1,244,40.49a6.84,6.84,0,0,0-1.85,1.79c-.53.66-1.13,1.32-1.72,2-.07.07-.27.2-.27.33,0,.53-.46.8-.59,1.26a3.88,3.88,0,0,1-.4.66c-.2.2-.46.47-.07.73a4.38,4.38,0,0,1-.66.53.86.86,0,0,0-.46.6,1.3,1.3,0,0,1-.33.66,4,4,0,0,0-.8,1.12c-.13.27-.33.6-.46.86s-.46.47-.27.86a.48.48,0,0,1-.13.27c-.2.53-.26,1.12-.79,1.45-.07.14-.2.27-.2.4a4,4,0,0,1-.73,2.25.22.22,0,0,0-.06.13c-.07.2.33.47-.07.67a1.18,1.18,0,0,0-.2.72c-.06.14.13.33.2.47s-.46.53,0,.86a3.55,3.55,0,0,0,2.32-.27,33.48,33.48,0,0,0,4.43-2.25c.46-.26.79-.59,1.26-.86.13-.13.26-.33.39-.46.47-.4.73-1.06,1.33-1.39a7,7,0,0,0,1.32-1.46,11.53,11.53,0,0,0,1.19-1.32.24.24,0,0,0,.07-.2c-.4-.2-.8-.46-1.26-.66a1.47,1.47,0,0,1-.53.13,1.15,1.15,0,0,0-.86.2,1.63,1.63,0,0,1-.93.26c-.66-.13-.66-.06-1.12.34-.26-.34-.79-.47-.93-.93a3.61,3.61,0,0,1,2.45-.66,1.37,1.37,0,0,0,.86-.13c-.13-.34-.2-.4-.46-.4a6.05,6.05,0,0,0-.93.26,2.62,2.62,0,0,0-.92-.33c-.27-.06-.47-.33-.67-.53a4.58,4.58,0,0,1-1-1.72,1,1,0,0,1,.93-.79c1.92-.4,3.77-1.13,5.62-1.66a3.82,3.82,0,0,1,.53-.13,22.15,22.15,0,0,0,3.51-.79c.2-.07.53-.07.79-.14a7.48,7.48,0,0,0,2.25-.79,3.73,3.73,0,0,1,1.13-.33,7.21,7.21,0,0,0,.86-.26.89.89,0,0,0,.46-.14c.46-.46,1.19-.33,1.79-.66.4.53,1.12.53,1.72.93a6.5,6.5,0,0,1,1.19.66,1.49,1.49,0,0,0,.66.2c.33,0,.4.13.27.46Zm-31,19.86a1.84,1.84,0,0,0,1.32.06c-.07-.13-.07-.33-.13-.39s-.4-.2-.46-.4a1,1,0,0,0-1.13-.4c-.13,0-.2.07-.26,0a6.17,6.17,0,0,1-1.86-.66c-.46-.27-1-.6-1.45-.86,0,.13-.14.26,0,.33a4.69,4.69,0,0,0,.72,1.39,1.12,1.12,0,0,0,1.2.66h1Zm20.05-12.91c-.27-.2-.47,0-.66.13s-.07.07-.07.2a.59.59,0,0,0,.73-.2Z" />
	<path d="M286.85,27c.26-.06.39.07.59.27-.13.26-.33.46-.46.72a15.25,15.25,0,0,0-2.45,1.26c0,.2.13.2.2.2h.53l.06.07v.13a.32.32,0,0,1-.26.13,5.33,5.33,0,0,1-1.13.33,3.4,3.4,0,0,0-1.25.73l.2.4a6.58,6.58,0,0,0-1.13.26c-.26.13-.6.33-.93.53a.9.9,0,0,1-.13.4.66.66,0,0,1-.26.33,2.14,2.14,0,0,0-.93.79.49.49,0,0,1-.46.27,1.07,1.07,0,0,0-.86.66,1,1,0,0,1-.47.46,1.81,1.81,0,0,0-.86.4h-.13c-.46-.07-.73.2-1.06.4a1.87,1.87,0,0,1-1.19.39,1.13,1.13,0,0,0-1.12.86,3.86,3.86,0,0,1-.93,1.2h.6c0,.06.06.13.06.19-.2.34-.46.6-.33,1.06a1.07,1.07,0,0,0-.4-.06c-.19.13.07.2.07.33v.13a1.31,1.31,0,0,0-.6.93,1.1,1.1,0,0,1,.34.26v.13a2.13,2.13,0,0,1-.67.4.65.65,0,0,0-.53.6c0,.19-.19.39-.26.59.13.13.2.07.33,0s.2-.33.33-.46a1.57,1.57,0,0,0,.27-.4c.19.2.06.4.13.53l.06.07c.6-.27,1.2-.47,1.86-.73l2.64-1,1.26-.4a2,2,0,0,1,.86-.07c.2,0,.4-.06.53-.06a1.07,1.07,0,0,1,.33.26,6.3,6.3,0,0,0-1.06.66.56.56,0,0,0-.13.27c0,.13.2.2.33.2s.4-.07.66-.14a4.37,4.37,0,0,0,.27.47c-.07.06-.07.13-.2.26a2.61,2.61,0,0,0-.86,1c-.07.07-.26.2-.33.27l-.53.33a.91.91,0,0,0,.07.46l-.14.14a5.5,5.5,0,0,1-1.06.52,1.59,1.59,0,0,0-.86.73,2.49,2.49,0,0,1-1,.8c-.53.26-1,.53-1.53.73-.13.06-.26.19-.39.26a1.38,1.38,0,0,1-1,.33,1.49,1.49,0,0,0-.79.4,2.53,2.53,0,0,1-1.19.59c-.4.14-.8.33-1.19.47a1,1,0,0,1-.4.13c-.4.07-.53.33-.73.73.14.06.27.06.4.13a2.93,2.93,0,0,0-.66,1.39c.13.13.26.06.4,0l1.32-.6a1.77,1.77,0,0,1,.33-.2,7.28,7.28,0,0,0,1.72-.59c.79-.33,1.46-.79,2.18-1.06.47-.13.86-.33,1.33-.46a7.76,7.76,0,0,0,2-.93c.6-.26,1.19-.53,1.79-.73a1,1,0,0,1,.4-.13,7.4,7.4,0,0,1,1.65-.73,10.91,10.91,0,0,0,1.32-.59c.67-.27,1.33-.47,2-.73.26-.07.53-.2.79-.27s.33,0,.4.27a2.59,2.59,0,0,1-.93.73,8.37,8.37,0,0,0-1.78,1.25,1.25,1.25,0,0,1-.33.2c-.14.07-.2.14-.2.27s.2.33.39.26a2.85,2.85,0,0,0,.6-.13,4.75,4.75,0,0,0-.33.4,7.75,7.75,0,0,0-1.32.66c-.2.06-.34.26-.53.4.06.19.33.26.13.53a1.67,1.67,0,0,1-.8.66,4,4,0,0,0-.86.59c0,.2.14.27.27.2a2.11,2.11,0,0,1,.4-.2c-.14.47-.14.47-.4.6a.71.71,0,0,0-.4.13c-.2.33-.59.4-.86.6a2.65,2.65,0,0,1-1.06.33,6.69,6.69,0,0,0-.72.39,6.14,6.14,0,0,0-.8.53h-.13c-.27.27-.73,0-.93.4a5.64,5.64,0,0,1-.92.46,1.6,1.6,0,0,1-.73.27c-.13,0-.2,0-.27.06-.53.4-1.19.6-1.65,1-.07.13-.27.13-.4.13-.06.2-.06.33-.26.46A26.9,26.9,0,0,1,266,57.83a3.82,3.82,0,0,1-.79.2l-1.52.39a.15.15,0,0,0-.14.14,1.65,1.65,0,0,1-.53.86c-.13.06-.19.26-.33.39a7.49,7.49,0,0,1-.53,1.06c-.06.13-.19.2-.26.27-.27-.2,0-.47-.13-.6s-.27.2-.27.33a3.55,3.55,0,0,0-.26.8,2.3,2.3,0,0,1-.27.92c-.2-.13-.2-.26-.13-.39a6.62,6.62,0,0,1,.27-1.13,1.3,1.3,0,0,1-.07-.33c-.4.6-.33,1.32-.8,1.85l-.39-.2-.13.14c-.07.33-.14.66-.2,1-.2,0-.33.07-.53.07a3.11,3.11,0,0,1-.27.46.92.92,0,0,1-.66.53h-.79a.64.64,0,0,1-.53-.53,8,8,0,0,1-.07-1.32,10.51,10.51,0,0,0,.13-2.12s-.06,0,0-.07c.27-.46,0-1.06.27-1.59a12.17,12.17,0,0,0,.4-2.05,2.07,2.07,0,0,0-.2-1.65.24.24,0,0,1-.07-.2,1.08,1.08,0,0,1,.66-.46.61.61,0,0,0,.4-.4c.2-.79.4-1.59.66-2.38a10,10,0,0,0,.46-1.33,5.42,5.42,0,0,1,.34-1.12l-.86-1.06a1.59,1.59,0,0,0,.33-.2c.39-.2.72-.33,1.12-.53a1.16,1.16,0,0,0,.46-.53c.2-.66.53-1.25.8-1.92A3.16,3.16,0,0,0,262,44a.53.53,0,0,1,.13-.33.46.46,0,0,0,.2-.4,1.6,1.6,0,0,1,.47-.86.81.81,0,0,0,.33-.73.65.65,0,0,1,.13-.33c.13-.26.33-.53.46-.79a.39.39,0,0,0,.07-.27c.06-.2.06-.39.13-.46.46-.4.4-1.06.66-1.52a14.19,14.19,0,0,0,.73-1.46c.07-.13.07-.2.13-.26a12.41,12.41,0,0,0,.93-1.86c.06-.06.06-.19.13-.26a1.7,1.7,0,0,0,.33-1.12V33c.27-.19.47-.52.8-.79a1.6,1.6,0,0,0,.19-.33,9,9,0,0,1,.53-1.26,2.08,2.08,0,0,0,.2-.66.91.91,0,0,1,.73-.79h.13a1.26,1.26,0,0,1,1.19.06c.47.27.93.4,1.39.66s.8.14,1.19.33a.6.6,0,0,0,.47-.06c.86-.33,1.72-.73,2.58-1.06s1.85-.79,2.78-1.13a12,12,0,0,0,1.32-.52,11.26,11.26,0,0,1,1.46-.47l1-.39a7.6,7.6,0,0,1,2.18-.67,5.47,5.47,0,0,1,1.79-.19,1.22,1.22,0,0,1,.46.06.76.76,0,0,1,.2.27c-.2.06-.4.19-.59.26s-.4.07-.53.2-.14.13-.14.2.07.13.14.2ZM266.93,50c.06-.06.06-.13.06-.33-.39.07-.66.2-.72.53s0,.6-.2.86-.07.66-.27.93c-.06,0,0,.2.07.2s.2,0,.2-.07Zm3-7.14a3.25,3.25,0,0,0-.47.73c.27.13.4.06.4-.07A1.94,1.94,0,0,0,269.91,42.81Z" />
	<path d="M280.56,60.61v-.2A24.92,24.92,0,0,1,281,56c.33-1.72,1.46-6.49,1.85-8.28.66-2.64,1.46-5.29,2-7.94.46-1.72.79-3.64,1.12-5.36,0-.13,0-.13.14-.26.33-.2.39-.66.52-1,.2-1,.47-2,.67-3a1.31,1.31,0,0,1,1.32-.92,12.2,12.2,0,0,1,1.85.46c.47.2.8.46.8,1,0,.2.13.33.13.47s.2.33.33.33a3.52,3.52,0,0,0,.73.72.88.88,0,0,1,.26.6v.73a2.27,2.27,0,0,0,.33.66c.07.26.2.33.4.59a19.41,19.41,0,0,0,1,2c.33.4.47.86.8,1.19s.33.66.53,1a2.1,2.1,0,0,1,.46,1.13,6.24,6.24,0,0,0,.66,2c0,.07.13.2.13.33a.87.87,0,0,1,.33-.46h.34v.33c-.27.13-.27.2-.14.33a4.64,4.64,0,0,1,.2,1.46,3,3,0,0,0,0,.73l.13-.07a1.1,1.1,0,0,0,.47.07c.2.13.2.13.33-.07v-.33l.06-.13c.14.13.27.2.27.46a3.31,3.31,0,0,0,.2.73h.13c.07-.07.07-.2.2-.33.33-1,.79-2,1.12-3.05.73-1.78,1.39-3.57,2.19-5.29a2.08,2.08,0,0,0,.2-.79.47.47,0,0,1,.13-.53c.33-.93.66-1.79,1-2.65s.53-1.65.86-2.58c.79-1.52,1.46-3.18,2.25-4.7a2.2,2.2,0,0,1,.33-.46,1.67,1.67,0,0,1,1.19-.66.84.84,0,0,0,.53-.14h.13c.47.27.8.6,1.2.8a1.2,1.2,0,0,1,.66,1.32c1-.79,1,8.07,0,7.81v.33a1.73,1.73,0,0,0-.07.6.45.45,0,0,1-.13.33.91.91,0,0,0-.33.72c0,.27-.13.33-.33.6a.68.68,0,0,0-.47.73,1.48,1.48,0,0,1-.53,1.12l-.33.33a1.24,1.24,0,0,0,.67.2c-.14.33-.34.27-.53.13s-.33,0-.6.2c-.07.27-.2.33-.33.6.13.06.13.06.13.2a4.46,4.46,0,0,0-.2.86.45.45,0,0,1-.26.33c-.07.13-.07.33-.2.46s-.13.2-.13.33c-.33.13-.33.33-.4.53a.77.77,0,0,1-.6.8c-.06.13-.33.19-.33.46.14,0,.14.06.27.06s.33,0,.4.14a1.55,1.55,0,0,0,.79.13c.46-.13.53-.33.66-1,0-.27-.13-.47-.53-.6a.83.83,0,0,1-.46-.2.91.91,0,0,1,.46-.2,1.23,1.23,0,0,1,.73-.13v.47a1.69,1.69,0,0,0,.46,1.38.18.18,0,0,1,0,.27c0,.07-.13.2-.33.33a1.25,1.25,0,0,0-.33.86,6.1,6.1,0,0,0,.13,1.46c0,.2,0,.33-.13.39a.48.48,0,0,1-.53-.06.13.13,0,0,0-.13-.13c-.2,0-.2-.2-.2-.34a3.39,3.39,0,0,0-.13-.53c-.13-.13-.2-.26-.33-.13-.2.33-.66.53-.47,1.13,0,.06-.06.33-.06.53s-.33,0-.46,0c-.34,0-.53-.47-.47-.8.13-.06.27-.2.13-.33a.82.82,0,0,1,.34-.86c.19-.13.33-.2.46,0s.2.2.4,0a.68.68,0,0,1,.59-.33c.33,0,.4-.13.4-.46s0-.33,0-.53a1.2,1.2,0,0,0-.53.2,1.81,1.81,0,0,1-1.32.46.48.48,0,0,0-.53.53,3.09,3.09,0,0,1-.6,1.12c-.07.14-.2.2-.2.47a2.1,2.1,0,0,1-.46,1.19c-.07.13-.07.33-.2.46a1.07,1.07,0,0,1-.2.4,5.43,5.43,0,0,0-.33.93v.33c-.26.39-.33.86-.59,1.32a1.49,1.49,0,0,1-.2.66c-.47-.26-.53,0-.8.33s-.06.66,0,1a3.19,3.19,0,0,1,.14.53.85.85,0,0,0,.46,1c.06,0,.2.13.2.2a2.75,2.75,0,0,0-.14,1.12c-.06.2-.19.53-.33.86a.76.76,0,0,1-.06.27.13.13,0,0,0-.13-.14,3.08,3.08,0,0,0-.14-1.12c0-.07,0-.33-.06-.33a1,1,0,0,1-.14-.66v-.34h-.13c0,.14-.2.27-.2.47a6,6,0,0,0-.19,1.19s0,.13.06.13a1.85,1.85,0,0,1,.13,1.66c-.13.33-.33.52-.33.79s0,.53,0,.86a.37.37,0,0,1-.13.33c-.07.33-.33.53-.4.86-.46-.07-.33-.53-.66-.66a1.64,1.64,0,0,1-.66.93c-.13,0-.26.06-.26.19a9.27,9.27,0,0,1-.34,1.33h-.06c-.13-.2-.27-.47-.13-.66s-.14-.2-.14-.34c0-.52-.39-.79-.86-.46a.65.65,0,0,1-1-.06,4.73,4.73,0,0,1-.66-1.13c-.8-2.45-1.52-5-2.32-7.41-.46-1.32-1.12-2.52-1.45-3.84A21.32,21.32,0,0,0,291,46.71a5.52,5.52,0,0,0-.53-1.06h-.14a18.59,18.59,0,0,0-1,2.39c-.46,1.25-1.59,5.42-1.92,6.61-.2.47-.33.93-.53,1.33s-.2.66-.33,1l-.66,1.65c0-.39.79-2.51.86-3,.13-.13.13-.33.27-.46s.06-.47-.14-.53a1.15,1.15,0,0,1-.13-.93v-.33h-.07c-.13.13-.26.13-.26.26a3.08,3.08,0,0,0-.53,1.66,3.73,3.73,0,0,0-.33.86A1.74,1.74,0,0,1,285,57c-.13.26-.33.33-.46.59a1.29,1.29,0,0,0-.33.67c-.14.39-.2,1-.33,1.39,0,.13,0,.26-.14.33s-.2-.07-.2-.2c-.13-.33-.19-.47-.52-.47a6.07,6.07,0,0,0-.34.67,6.87,6.87,0,0,0-.26,1.45,4.46,4.46,0,0,1-.2.86,16.32,16.32,0,0,0-.2,1.79c-.13.33-.26.66-.66.66s-.33,0-.46-.13a.59.59,0,0,1-.2-.4c0-.46-.13-.79-.13-1.26Zm2.84,3.77-.2.2c-.19-.07-.19-.2-.19-.4A.24.24,0,0,1,283.4,64.38Zm.27-3.31c-.14,0-.14-.13-.14-.2s.14-.26.2-.33a.35.35,0,0,1,.33.2C283.87,60.87,283.87,61.2,283.67,61.07Zm12.7-22.63a2.56,2.56,0,0,1-.33-.53C296.37,37.91,296.37,38,296.37,38.44Zm3.71,22.1a.45.45,0,0,0,.13-.26h-.46C299.88,60.54,300,60.61,300.08,60.54Zm4-12c0-.13-.07-.2-.07-.33-.13.13-.26.13-.26.2a2.27,2.27,0,0,1-.33.66C303.85,49,304.05,48.7,304.05,48.5Zm1.32.33a.23.23,0,0,1-.2.13s-.2-.13-.2-.26a.79.79,0,0,1,.53-.66C305.5,48.3,305.37,48.5,305.37,48.83Zm1.13.86a.23.23,0,0,0-.2.13.7.7,0,0,0-.27-.2c0-.26,0-.46.27-.59l.2-.2A1,1,0,0,1,306.5,49.69Zm.46.79c.07.47.07.47-.13.53C306.63,50.81,306.69,50.62,307,50.48Zm2-9.59a.5.5,0,0,0-.27-.13c.13-.07.13-.07.13-.2s.33-.13.47-.13l.06.13C309.14,40.69,309,40.76,309,40.89Zm-.14.86v-.4C309,41.55,309,41.68,308.81,41.75Zm.8,0v.13a.44.44,0,0,1-.27.13c-.06,0-.06-.13-.06-.26Zm.72-3.38c.14-.46.27-.59.6-.46C310.67,38,310.6,38.24,310.33,38.37Z" />
	<path d="M0,53V28.94H2.91V39.65H15.74V28.94h2.92V53H15.74V42.24H2.91V53Z" />
	<path d="M31.67,53.37a8.42,8.42,0,0,1-4.49-1.15A7.64,7.64,0,0,1,24.28,49a10.89,10.89,0,0,1-1-4.85,11.21,11.21,0,0,1,1-4.9,8,8,0,0,1,2.84-3.31,7.68,7.68,0,0,1,4.27-1.19,8.43,8.43,0,0,1,2.79.47,6.93,6.93,0,0,1,2.5,1.52,7.44,7.44,0,0,1,1.8,2.78,12,12,0,0,1,.67,4.25v1.18H25.24v-2.4H36.33a6,6,0,0,0-.61-2.73A4.6,4.6,0,0,0,34,37.9a4.88,4.88,0,0,0-2.62-.69,5,5,0,0,0-2.86.81,5.52,5.52,0,0,0-1.85,2.13A6.19,6.19,0,0,0,26,42.94v1.6A7.7,7.7,0,0,0,26.74,48a5.1,5.1,0,0,0,2,2.15,5.79,5.79,0,0,0,3,.73,5.88,5.88,0,0,0,2-.31,4.18,4.18,0,0,0,1.54-.94,4.13,4.13,0,0,0,1-1.57l2.68.76a5.9,5.9,0,0,1-1.42,2.39A6.84,6.84,0,0,1,35,52.8,9,9,0,0,1,31.67,53.37Z" />
	<path d="M44.6,59.72a6.79,6.79,0,0,1-1.26-.11,3.68,3.68,0,0,1-.76-.22l.7-2.44a4.14,4.14,0,0,0,2.53,0c.67-.27,1.25-1.08,1.75-2.43l.51-1.41L41.4,35h3l5,14.38h.19l5-14.38,3,0L49.91,55.63a8.16,8.16,0,0,1-1.28,2.29,5,5,0,0,1-1.77,1.35A5.49,5.49,0,0,1,44.6,59.72Z" />
	<path d="M64.26,49.71,64.07,51a25.32,25.32,0,0,1-.6,2.86q-.4,1.53-.84,2.88c-.29.9-.53,1.62-.72,2.15H59.8c.1-.5.23-1.16.4-2s.33-1.74.5-2.76.3-2.05.41-3.11l.15-1.31Z" />
	<path d="M82,28.94V53H79.07V28.94Z" />
	<path d="M89.87,28.94v2.11a6.76,6.76,0,0,1-.34,2.05,8.68,8.68,0,0,1-1,2.11A7.71,7.71,0,0,1,86.91,37l-1.5-1.22a16.22,16.22,0,0,0,1.29-2.2,5.66,5.66,0,0,0,.54-2.45V28.94Z" />
	<path d="M92.83,53V35h2.68v2.82h.24a4.55,4.55,0,0,1,1.82-2.25,5.53,5.53,0,0,1,3-.8,5.28,5.28,0,0,1,3,.8,5.46,5.46,0,0,1,1.86,2.25h.19a5.23,5.23,0,0,1,2.08-2.22,6.27,6.27,0,0,1,3.32-.83,5.42,5.42,0,0,1,4,1.51,6.33,6.33,0,0,1,1.54,4.69V53h-2.77V40.92a3.4,3.4,0,0,0-1.1-2.85,4,4,0,0,0-2.57-.86,3.81,3.81,0,0,0-3,1.14,4.13,4.13,0,0,0-1,2.9V53h-2.82V40.64a3.31,3.31,0,0,0-1-2.49,3.61,3.61,0,0,0-2.58-.94,3.78,3.78,0,0,0-2,.57,4.36,4.36,0,0,0-1.5,1.6,4.69,4.69,0,0,0-.57,2.34V53Z" />
</svg>