<svg id="Layer_1" data-name="Layer 1" xmlns="http://www.w3.org/2000/svg" viewBox="0 0 846 96">
	<style>
		path {
			fill: #fff;
		}

		@media (prefers-color-scheme: light) {
			path {
				fill: #24292f;
			}
		}

		@media (prefers-color-scheme: dark) {
			path {
				fill: #c9d1d9;
			}	
		}
	</style>
	<path d="M132.68,73.3A34.71,34.71,0,0,1,135.39,64c1.26-2.71,2.45-5.43,3.77-8.14.53-1.13,1.33-2,1.86-3.11a63.23,63.23,0,0,1,4.76-7.21,1.59,1.59,0,0,1,.33-.27,6.52,6.52,0,0,0,1.72-1.59c.8-1,1.59-2.11,2.52-3.11.26-.26.86-.33,1.32-.53,0,0,.2.2.2.33a4.62,4.62,0,0,1-1.13,2.06c-.2.13-.26.46-.33.72a2.64,2.64,0,0,0-.13.73.4.4,0,0,0,0,.4c.4.26.2.73.2,1.06a.44.44,0,0,1-.27.33,1.25,1.25,0,0,1-.2.33c.07.07.2.07.27.13s.07.13.07.2a8.88,8.88,0,0,1-.6,4.1,12.07,12.07,0,0,0-.6,1.19c-.13.4,0,.53.4.47s.33,0,.4.26a2.85,2.85,0,0,1-.46,1.79.53.53,0,0,0-.2.4c.06.33-.14.39-.33.33s-.4,0-.14-.2c.07,0-.06-.27-.13-.27a.86.86,0,0,0-.93.4c-.33.73-.59,1.39-.92,2.12-.13.26-.07.33.2.33a1.89,1.89,0,0,1,.79.26v.27c-.13,0-.4,0-.46-.07-.4-.53-1.06-.06-1.46-.46-.06.2-.13.4-.2.59s.2.2.33.2.27-.13.4-.2a.26.26,0,0,1,.2-.06c0,.06,0,.26-.07.26-.39.2-.39.47-.26.86s-.13.6-.53.73c-.2.07-.33.2-.13.4a.16.16,0,1,1-.2.2c-.27-.33-.4-.14-.46.13-.2.59-.8.93-1.13,1.45-.26.34-.66.86-.6,1.2a2.69,2.69,0,0,1-.13,1.32c-.06.2-.33.4-.39.66a3,3,0,0,0-.27,1.13.64.64,0,0,1-.46.72l-.07.07c-.06.46-.46.86-.33,1.32a1.32,1.32,0,0,1-.53,1.59.72.72,0,0,0-.2.46,1.87,1.87,0,0,0,.14.6c.06.26.19.53-.2.66-.07,0-.14.13-.07.13.2.73-.53,1.06-.59,1.66,0,.4-.07.66.19.93s.14.19,0,.33l-.26.26c-.2.13-.2.2,0,.33a.41.41,0,0,1,0,.4.6.6,0,0,0-.07.73c.07.13,0,.26,0,.46a2.51,2.51,0,0,0-.2.73c0,.13.2.33.34.46a3.63,3.63,0,0,1,.46.53c.06,0,0,.13-.07.13-.46,0-.06.4-.2.53l.07.07c.33-.13.33.13.4.26l.39,1.59c.07.4-.06.73,0,1.06a1,1,0,0,1,0,.79v.14a1.58,1.58,0,0,1,0,1.45c0,.13.07.33.07.47s.2-.14.26-.07.34.26.27.33c-.13.46.07.66.46.79.07.07.2.2.2.27.07.46.4.4.66.33h.13c.6-.13.6-.13.47.46a.89.89,0,0,0,.33.93.89.89,0,0,1,.13,1.19v.13a1,1,0,0,0,.33.13c.07,0,.13-.13.13-.19,0-.33-.06-.67-.06-1v-.2c.13,0,.33-.06.4.07a2.58,2.58,0,0,0,1.39.6c.06,0,.13.26.26.39s.13.2.26.27a1.51,1.51,0,0,0,1.46-.46c1.39-1.53,2.78-3,4.23-4.5C156,81,158.35,77,160.73,72.84c.34-.6.73-1.26,1.13-1.85a29.89,29.89,0,0,0,3.71-9c.59-2.19,1.38-4.3,2-6.49.26-.86.26-1.78.53-2.64.53-1.92,1.19-3.84,1.65-5.76.93-3.51,1.79-7,2.72-10.52.06-.33,0-.47-.4-.53a3,3,0,0,1-1.26-.33,2.42,2.42,0,0,0-1.92,0c-.92.26-2,.33-3,.53a1.55,1.55,0,0,0-.47.19.57.57,0,0,0-.33.07c-.26.07-.53.07-.73.13a1.67,1.67,0,0,1-1.58,0c-.27-.06-.34,0-.47.2a.65.65,0,0,1-.66.33.46.46,0,0,0-.4,0c-.19.13-.39.2-.46-.06h-.13c-.07.46-.2.79-.73.92-.13,0-.13.33-.2.53a1,1,0,0,0-.06-.4c0-.13-.07-.19-.07-.33-.13.07-.4.14-.4.27s-.2.33-.46.26h-.13c-.73.67-1.59.2-2.38.33s-1.46-.26-2.06.34c0,0-.13,0-.13-.07-.13-.4-.46-.53-.86-.66-1.32-.47-2.71-.93-4-1.46a20.48,20.48,0,0,1-2.51-1.65c-.07,0-.13-.13-.13-.2a2.38,2.38,0,0,1,1.19-1.79,53.29,53.29,0,0,1,12.17-3.84c3.45-.66,6.82-1.39,10.19-2.05,2.06-.39,4.11-.66,6.16-1,2.25-.4,4.43-.93,6.62-1.32,3.5-.66,7-1.33,10.58-1.92a14.88,14.88,0,0,1,2.52-.13c1.06-.14,2.05-.4,3.11-.53a.67.67,0,0,1,.33-.07c2.31.13,4.5-.46,6.75-.73,2.65-.26,5.23-.73,7.87-1.06.07-.06.07-.06.14-.06a1.25,1.25,0,0,0,1.45-.53h.8c.06.06.06.13.13.13a3.28,3.28,0,0,0,1.92.53c1.58,0,3.11.13,4.69.2.73.06,1.39.13,1.53,1.06v.53c-.47.19-.86.39-1.33.53-.2.06-.39-.07-.59-.2a1.49,1.49,0,0,0,.06-.33c-.06-.07-.13-.27-.19-.27s-.47.13-.47.2c.07.26.2.46.27.66s.06.13,0,.2-.14.07-.2.13c-.8.4-.8.4-1-.46-.14-.53-.2-.6-.67-.33s-.79.53-1.19.79a.28.28,0,0,1-.33,0c-.39-.06-.66,0-.66.47a4.45,4.45,0,0,1-.26.46,5.27,5.27,0,0,1-2.19,1.06,1.47,1.47,0,0,0-.53.13c-.06.07-.2.07-.26.07a2.25,2.25,0,0,0-2.12.39.79.79,0,0,1-.4.07c.07-.07.14-.13.14-.2s.26-.2.39-.26c-.2-.14-.33-.33-.53-.4a.68.68,0,0,0-.46.26c-.13.14-.13.2-.33.14s-.4,0-.4.26V26c-.06,0-.13,0-.13-.07-.4-.26-.66-.2-.79.27s-.47.26-.67.13c-.46-.33-.79-.2-1.19.2-.13.13-.33.26-.46.4s-.13.06-.2.06c-.33-.13-.73.07-1,.13s-.8-.06-1.13.2c-.06.07-.33.14-.39.07-.27-.2-.4-.07-.6.13a2.92,2.92,0,0,1-.26.46.57.57,0,0,1-.8.34,1.61,1.61,0,0,0-1.45.13,14.47,14.47,0,0,1-1.72.59h-.27c-.13-.06-.2-.13-.33-.2a2.54,2.54,0,0,0-.26.47,2.93,2.93,0,0,1,.06.33c-.06.13-.13.2-.2.33-.06-.07-.06-.2-.13-.2a.23.23,0,0,0-.2-.07c-.2-.06-.39-.06-.46-.19-.26-.27-.46-.14-.73.06-.06.07-.13.33-.33.07h-.07c-.06.46-.79,0-.79.53-.13-.07-.33-.07-.4-.13a3.13,3.13,0,0,1-.66-.53,6.54,6.54,0,0,1-.2.72.76.76,0,0,1-.2.27c-.06-.07-.06-.13-.13-.2a.47.47,0,0,0-.26-.26c0,.13-.07.19-.07.26s.07.2.07.26,0,.07-.07.14l-.06-.07c-.2-.26-.27-.13-.27.07s-.2.26-.4.06-.19-.13-.26-.2c-.27-.19-.53-.52-.93-.19-.13.13-.39.06-.53,0a1.83,1.83,0,0,0-1.78.79.39.39,0,0,1-.27.07c-.53-.33-.53-.33-.86.2a1.29,1.29,0,0,1-.73.39,2.44,2.44,0,0,1-.72.2c-.07,0-.14-.07-.2-.13s.06-.13.13-.13a.75.75,0,0,1,.33-.33c-.07-.07-.13-.14-.2-.14a1.06,1.06,0,0,0-.46.07c-.2.13-.33.33-.53.46s-.27.07-.27,0c-.19-.39-.52-.33-.86-.26a6.14,6.14,0,0,1-1,0,.68.68,0,0,0-.2.06c0,.33-.14.4-.4.4a.29.29,0,0,0-.26.2c0,.13.13.26.19.4a.53.53,0,0,1,.2.33c0,.13-.13.26-.26.46a1.59,1.59,0,0,0-.2-.33,2.59,2.59,0,0,0-.66-.26c-.07,0-.2.26-.27.33v.06c.4.13.33.53.47.8a.4.4,0,0,1,.06.26h-.06c-.14.2-.2.33-.33.53a4.78,4.78,0,0,1,.52-.2H184c0,.07,0,.13-.07.13a.4.4,0,0,0-.13.6c.13.33.2.73.33,1.06s0,.4-.27.53l-.39.2a.7.7,0,0,1,.06.19c.4-.19.33.14.4.34s.2.19.33,0h.13c.07.06.14.26.07.33-.33.19-.33.46-.2.79,0,.13-.06.27-.06.4s-.2.33-.34.46-.19.2-.39.27-.33.13-.33.46c-.07.59-.14,1.26-.2,1.85,0,.13,0,.27.06.33.34.47.07.93-.06,1.33,0,.06-.13.13-.13.06a1.12,1.12,0,0,0-1.19.07c-.27.2-.27.4,0,.59s.26.2.13.4.06.2.06.33a.77.77,0,0,0,.33-.06c.07,0,.14-.07.27-.14v.33a2.27,2.27,0,0,0-.13.67c0,.06-.07.13-.07.19a.31.31,0,0,1-.13-.19,1.19,1.19,0,0,0-1.06-.67c-.07,0-.13.07-.2.14s.13.13.2.13c.26.13.33.26.13.53-.06.06-.2.13-.2.26-.2.2-.26.13-.33-.06s-.2-.27-.26-.27a.42.42,0,0,0-.33.27c-.14.06-.27.06-.47.13,0,.06.07.06.07.06a.88.88,0,0,0,.4.14l-.4.39a1.43,1.43,0,0,0-.6.86.29.29,0,0,1-.26.2c-.6.07-.66.14-.66.73a.29.29,0,0,0,.2.2,2,2,0,0,0,.59.2,3.28,3.28,0,0,1-.33,1c-.07.13-.2.2-.2.33-.06.33-.06.6-.53.33,0-.06-.06,0-.06.07.06.4-.14.53-.53.46l-.14.07v.33c.07.13.2.2.34.33.13.33.33.6-.27.66-.33,0-.33.33-.26.6s.13.66-.27.86c-.06.06,0,.26-.06.46a1.16,1.16,0,0,1-.14.46,3.3,3.3,0,0,1-.26.47c-.13.33-.2.66-.33,1a.82.82,0,0,0,.06.93c0,.06-.06.26-.13.26-.33.07-.53.27-.2.6a.42.42,0,0,1-.2.59c-.13.07-.26.2-.46.33s-.06.07-.13.14h.26a2.69,2.69,0,0,0,.73-.4c.13-.13.33-.4.27-.47-.2-.33,0-.46.19-.52.4-.14.4-.4.47-.67a.34.34,0,0,0,.13-.26c.07.13.2.26.26.4V58a.36.36,0,0,0-.06.2,3.64,3.64,0,0,0,.86,1.12c.59.34.26.86.46,1.26a4,4,0,0,1,.27,1.32c.06.53-.07.6-.53.53s-.33,0-.27.27a6.76,6.76,0,0,1,.2.73.14.14,0,0,1-.13.13.65.65,0,0,1-.33.06l-.2.2c.07,0,.13.07.2.14a.22.22,0,0,1,.13.06c.53.27.53.27.79-.33l.2-.2c0,.07.07.2.07.27.2.66,0,1-.66,1.19-.07,0-.07.13-.07.2a1.37,1.37,0,0,0,.27.13c-.33,0-.6,0-.6-.4,0-.06-.13-.13-.2-.13s-.06.13-.13.13v.07c.07.46.13.93-.53,1,.2.07.53.2.53.27,0,.33.13.72-.33.92-.07,0-.07.07-.07.14a4.1,4.1,0,0,0-.06.86.06.06,0,0,0,.06.06c.6.53-.06,1.13,0,1.72,0,.13-.2.33-.33.4-.33.13-.4.4-.53.73,0,.13-.33.26-.53.39,0,.07-.06,0-.06,0a1.93,1.93,0,0,1,.53-1.45h.13a.34.34,0,0,0,.26.13c.07-.26.6-.4.4-.86-.07-.13-.26-.4-.4-.4s-.66,0-.72.4c0,.13-.07.4-.2.07V69.2c-.14,0-.2-.07-.33-.13.19-.13.33-.27.53-.4a.21.21,0,0,1,.13-.07c-.07-.06-.13-.13-.2-.13s-.27-.06-.4-.13-.39-.13-.26.2c.06.13-.27.33-.47.33s-.13.07-.19.2a.65.65,0,0,0-.14.39,1.47,1.47,0,0,1-.26-.39c-.13-.33-.33-.2-.6-.2-.46,0-.39.79-.92.59l-.07.07.13.13a1.25,1.25,0,0,0,.33.2l-.39.2c-.6.2-.6.4-.27.86a4,4,0,0,1,.4.73c.07.06,0,.26-.13.4s-.27.26-.33.33a.89.89,0,0,0-.27.19v-.33l.2-.19a.24.24,0,0,1-.2-.07v-.2c0-.07.07-.2.07-.26a1.34,1.34,0,0,0-.4-.27.5.5,0,0,0-.13.33,5.76,5.76,0,0,0-.07,1.13.66.66,0,0,1-.26.33.46.46,0,0,0-.27-.13.27.27,0,0,0-.2.06c-.06.27-.06.6-.13.86-.06.07-.06.2-.13.27a2.23,2.23,0,0,0-.66.46,10.41,10.41,0,0,0-.86.93c0,.06-.07.2,0,.2a.53.53,0,0,0,.39.26l.6-.4h.33c0,.14.07.33,0,.4a1.35,1.35,0,0,1-.73.2,1,1,0,0,0-.92,1.39c.06.2,0,.39.06.53v.2c.07-.07.13-.07.13-.14s.27-.06.4-.13a.38.38,0,0,0,.07-.26c0-.14-.07-.27-.07-.4.13.07.2.2.27.26a1.16,1.16,0,0,0,.46.14c.13,0,.4-.14.26.19a.81.81,0,0,1,.2.14c.07.06.14.13.2.13l-.2.2H170c0,.53-.2.2-.4.13a3.74,3.74,0,0,0-.53-.13.67.67,0,0,1,.07.33.06.06,0,0,0,.06.06c.34-.19.27.14.4.2a1.34,1.34,0,0,0,.4.27c.2.06.33.06.53.13a3.2,3.2,0,0,1-.47.53h-.19c.06.07.13.2.19.2a3.82,3.82,0,0,1,.67.46c.33.27.59.13.72-.2a7.78,7.78,0,0,0,.67-1.32c0-.07-.14-.2-.2-.33s-.27-.13-.33-.27-.07-.13-.07-.26a.24.24,0,0,1,.2.07c.13.06.26.19.4.26.46.33.46.46.13.86-.07.07-.2.2-.2.26.07.67-.33,1.06-.66,1.53s-.53,1-.86,1.45a2.53,2.53,0,0,1-.6.66l-1.65,2.25c-.27.34-.4.34-.66,0s-.33-.33-.47,0-.53.34-.86,0c-.06-.06-.26,0-.39,0s-.2.14-.33.2c.06.07.13.14.19.14h.2a.24.24,0,0,0-.06.19c-.27.27-.14.27.13.27h.26c.14,0,.27.06.4.06a.69.69,0,0,1-.26.34,8.87,8.87,0,0,1-1.33.72.21.21,0,0,1-.06-.13c0-.13.13-.26.13-.4s.06-.39-.33-.39c-.13,0-.27-.2-.47-.27a2.66,2.66,0,0,0,.27-.46c0-.07.07-.13.07-.2s-.27-.07-.27,0c-.26.33-.73.53-.66,1,0,.07,0,.14-.07.14-.39.46-.06.72.2,1.05.07.14.07.27.13.4-.2,0-.33-.07-.46-.07s-.13-.19-.2-.19-.06-.07-.13-.14v.14a1.33,1.33,0,0,1-1.13,1.25,1.21,1.21,0,0,0-.13.73,1.38,1.38,0,0,1-.13,1.13.23.23,0,0,0-.07.2,1.09,1.09,0,0,1-.72,1.19c-.47.13-.73-.07-.73-.53,0-.14-.2-.27-.33-.4,0,.13-.14.2-.07.33a1.33,1.33,0,0,0,.13.46.9.9,0,0,0,.2.27c-.2,0-.46.07-.59,0a.69.69,0,0,1-.14-.73,2.29,2.29,0,0,0,.07-1c-.07-.2-.2-.27-.33-.07s-.27.2-.46.07-.4,0-.53.26a4.78,4.78,0,0,1-.67.93,15.58,15.58,0,0,1-1.72,1.39.58.58,0,0,0-.13.26c0,.07.13.14.27.2s.2.07.26.07-.13.2-.26.2c-1.13.33-2.25.53-3.25.92-1.39.53-2.84.2-4.16.6a4.7,4.7,0,0,0-.93.33h-.27c-.06-.13-.19-.2-.26-.33-.4-.53-.66-.53-1.26-.4a2.12,2.12,0,0,1-.66.07,6.74,6.74,0,0,0-1.65.13,2,2,0,0,1-1.39-.26,3.56,3.56,0,0,0-2.12-.67A1.39,1.39,0,0,1,138.7,94c-.4-.53-.8-1-1.13-1.52-1.72-2.25-3.5-4.5-4.16-7.41a16.27,16.27,0,0,1-.8-3.58c-.06-.79-.2-1.52-.33-2.31V75.88C132.41,75,132.61,74.16,132.68,73.3Zm12-11.25a.48.48,0,0,0,.27-.13,1.89,1.89,0,0,1,.13.66.71.71,0,0,1-.2.47c-.06.06-.2.26-.26.26s-.33-.2-.33-.33a3,3,0,0,1,0-.79c0-.07.13-.14.13-.14S144.59,62.12,144.65,62.05Zm1.2,26c.06.06-.07.13-.14.2a2.54,2.54,0,0,0-.06-.33.55.55,0,0,1,.06-.27C145.78,87.86,145.85,87.93,145.85,88.06ZM147,58.74v-.59a.25.25,0,0,1,.2.07l.33.33a2.55,2.55,0,0,1,.19.26c-.13.13-.33.27-.46.4s-.13-.07-.2-.07A1,1,0,0,0,147,58.74Zm1.65-1.45c-.13-.2-.46-.4-.46-.6a2.42,2.42,0,0,1,.33-.86c.07,0,.2,0,.2.07.06.26.2.46.26.79C148.89,56.89,148.82,57.09,148.69,57.29Zm11.25,32.89c.33.2.13.33,0,.46s0,.26,0,.4l.2-.2.46-.27c.07.14.07.27.13.4v.13a.24.24,0,0,1,.14-.06c.06-.2.26-.53.2-.66a2.91,2.91,0,0,0-.8-.6A2.34,2.34,0,0,1,159.94,90.18Zm2.38-3c0,.06-.13.2-.13.26s.13.2.26.27a.24.24,0,0,0,.07-.13Zm4.11-2.12c.06.2.26.33.39.46a2.66,2.66,0,0,0,.27-.46c0-.06-.14-.2-.27-.33C166.62,84.88,166.43,85,166.43,85.08Zm1.38-2.58c-.13-.13-.19-.26-.33-.33a1.9,1.9,0,0,1-.39.33l.33.2Zm1.46.73c.07-.07.13-.07.13-.13a.1.1,0,0,0,0-.14c-.53-.13-.59-.53-.66-1a.25.25,0,0,0-.07-.2.31.31,0,0,1-.13.2c-.06.07-.13.13-.13.2a2.21,2.21,0,0,1-1.12,1.19l-.07.13a7.41,7.41,0,0,0,1.26.73c.06.07.33-.13.46-.26s0-.2,0-.33-.13-.27-.07-.27.2-.13.33-.2Zm-.46-3.91c-.14-.33-.4-.26-.6-.19s-.13.19-.2.39l.2.13c.2-.26.2,0,.27.14s.13.26.26.26.27,0,.13.27v.2c.07-.07.14-.07.2-.14s0-.13.07-.33A2.29,2.29,0,0,1,168.81,79.32Zm0,1.86c-.07,0-.14.06-.2.06s.06.14.2.2.26.07.39.07.14,0,.14.06.26.34.39.47.07.2.14.33.06.13.13.2.13-.07.2-.14a.47.47,0,0,0-.14-.72c-.33-.2-.79-.4-1.19-.67C168.87,81.11,168.87,81.11,168.81,81.18Zm.86-3.84c-.13-.13-.27-.2-.4-.33v-.13a1.36,1.36,0,0,0,.33-.27c.07,0,.13-.06.13,0s.14.13.2.2A1.86,1.86,0,0,1,169.67,77.34Zm.53,3.24-.6.4a2.23,2.23,0,0,0,.6.26c0,.07.13-.13.2-.26A1.31,1.31,0,0,0,170.2,80.58Zm1.65-3.84-.13-.13-.2-.2c-.07.14-.13.2-.07.33s.07.33.07.47a2,2,0,0,1-.53-.14l-.59-.19c-.07-.07-.2-.2-.2-.27s.13-.2.2-.33c.06.13.19.2.19.27.14.26.27.26.4,0a.25.25,0,0,0,.07-.2c.2-.14.39-.4.46-.33s.33.33.46.53C171.92,76.61,171.92,76.68,171.85,76.74ZM171,75.62h-.06c0-.2-.6-.13-.2-.53.06-.07,0-.27,0-.4A.62.62,0,0,0,171,75a1.06,1.06,0,0,0,.46.07A3.11,3.11,0,0,1,171,75.62Zm-.06-1.85a.31.31,0,0,1,.13-.2,1,1,0,0,1,.2.26.75.75,0,0,1-.2.13A.31.31,0,0,1,170.93,73.77Zm.46,5.22c-.13-.13-.27-.2-.33-.26s.13-.13.13-.13a1.07,1.07,0,0,1,.33.26Zm1.79-1.78a4.16,4.16,0,0,0-.47-.47c-.13-.13-.2-.19-.33-.33a.65.65,0,0,0,.33-.13l.4-.2a.81.81,0,0,0-.07.4c0,.07.14.13.14.2a5.28,5.28,0,0,1,.26.53.57.57,0,0,0-.13.2C173.24,77.27,173.24,77.21,173.18,77.21Zm.33-6.09s.06.06,0,.06a.5.5,0,0,1-.33.14s-.14-.07-.14-.14c0-.26-.06-.39-.39-.26-.07,0-.14-.13-.2-.13s.2-.13.33-.27A7.81,7.81,0,0,1,173.51,71.12Zm-.67,6.22v-.2c.07.07.14.13.14.2s.06.33.13.53H173A1.18,1.18,0,0,1,172.84,77.34Zm.6-1c0-.33,0-.6-.4-.66v-.14c.2-.26.47-.53.66-.79.07-.07.14-.07.2-.13a2.46,2.46,0,0,0,.2-.27,1.56,1.56,0,0,1,.6.53c.06,0-.07.2-.14.33s-.33.53-.46.8-.33.46-.53.72C173.51,76.55,173.44,76.48,173.44,76.35Zm.33-.66a2.79,2.79,0,0,0,.07-.34c-.07-.13-.2-.19-.27-.33a1.19,1.19,0,0,1-.26.4c.06.07.2.07.26.13S173.7,75.69,173.77,75.69Zm.13-3.91a.53.53,0,0,1-.26-.13c.13-.07.26-.2.4-.27s.06,0,.19.07Zm.33-11.25c.07,0,.2.07.27.07a6.72,6.72,0,0,0,.66-.33c.07,0,.07-.07.13-.14s-.13-.13-.2-.13l-.66.2c-.13,0-.2.13-.26.2A.26.26,0,0,1,174.23,60.53Zm.07,9.79a.21.21,0,0,1-.13-.06c.13-.07.26-.2.39-.27s.14.07.27.14A2.18,2.18,0,0,0,174.3,70.32Zm.93-.26c.06-.13.19-.2.33-.33a.21.21,0,0,0,.06.13c-.13.13-.2.27-.33.4C175.23,70.13,175.16,70.06,175.23,70.06Zm1.05-3.44c-.13.07-.26.13-.26.2s.07.13.13.26c.13-.13.27-.2.4-.33C176.42,66.69,176.35,66.62,176.28,66.62Zm-.06-1.52a.22.22,0,0,0,.06.13.39.39,0,0,0,.73,0c.07-.07,0-.2-.06-.33,0,.06-.14.06-.14.13s-.13.27-.26,0c-.07,0-.07-.07-.13-.07S176.28,65,176.22,65.1Zm.66-3.71h-.13a.26.26,0,0,0-.2-.06.58.58,0,0,0,.13.26,2.91,2.91,0,0,0,.53.26c.2,0,.4.07.46,0s.34-.33.07-.59c-.07,0,0-.2.07-.33s.06-.2.06-.33-.33-.13-.39-.07c-.27.13-.4.13-.53-.13s-.2-.13-.2,0a.52.52,0,0,0,0,.46l.2.4C177,61.33,177,61.39,176.88,61.39Zm-.33,1.72c.07,0,.13.07.2.07a1.59,1.59,0,0,0,.33-.27c0-.06-.07-.06-.13-.13C176.81,62.91,176.68,63,176.55,63.11Zm2.18-14.29c-.06-.07-.13-.2-.2-.27s.07-.06.14-.06a1.91,1.91,0,0,0,.46.2A3.27,3.27,0,0,1,178.73,48.82Zm.33,1.85c.07.13.14.2.14.33s-.07.14-.14.14S179,51,178.93,51,179,50.74,179.06,50.67Zm.47-6.15c-.07.39-.13.79-.2,1.25,0,0,.13.14.2.07s.46-.26.66-.4a.22.22,0,0,1,.07-.19.25.25,0,0,0-.2-.07c-.27,0-.47-.07-.27-.4.07-.06-.06-.26-.06-.46C179.59,44.45,179.53,44.45,179.53,44.52Zm1.06,2.84a.65.65,0,0,1-.14-.39c-.06,0,.14-.14.2-.14s.13.14.2.14.13.19.13.26S180.72,47.36,180.59,47.36Zm2-2.45c-.13-.19-.33-.46-.46-.66l.2-.2.2.2a3.3,3.3,0,0,1,.19.6A.21.21,0,0,1,182.57,44.91Zm1-6a3.62,3.62,0,0,1-.33.2,1.59,1.59,0,0,1,.27.33c.06-.06.13-.2.2-.26Zm1.79-6.61a.31.31,0,0,1,.13.19,2.27,2.27,0,0,1-.13.73,2.19,2.19,0,0,1-.46-.39C185.09,32.61,185.22,32.41,185.35,32.28ZM195.61,31c-.07.06-.2-.13-.27-.2a3.5,3.5,0,0,1,.53-.33.54.54,0,0,1,.2.06A3.44,3.44,0,0,1,195.61,31Zm.59-.73a.52.52,0,0,1,.14.26.5.5,0,0,1-.14.27c0-.07-.06-.2-.06-.27S196.2,30.36,196.2,30.29Z" />
	<path d="M205.07,63.84a.88.88,0,0,0-.14.79.6.6,0,0,1-.06.47,11.74,11.74,0,0,1-.27,1.39c-.06.33-.06.66.2.79-.07.73-.93,1.66-2.12,4.7a2.72,2.72,0,0,1-.79,1.26,1.62,1.62,0,0,0-.33.59,4.43,4.43,0,0,1-.46.73c-.14.13-.07.2.13.26-.27.2-.66.07-.93.34,0,.06-.13,0-.13,0s-.07-.2-.13-.34c-.07.2-.07.4-.14.6a.5.5,0,0,1-.39.53,1.17,1.17,0,0,0-.8.4c-.06.06-.13.06-.2.13a2.63,2.63,0,0,0-1.39,1.59c-.06.06-.19.06-.33.06s-.26.33-.46.4a.12.12,0,0,1-.2,0,.13.13,0,0,1,0-.2,6.31,6.31,0,0,0,.73-.66v0c.07-.07.13-.07.2-.13v-.2s-.07-.07-.07,0a.15.15,0,0,0-.13.13v.2c-.46-.2-.79.13-1.19.26a.48.48,0,0,0-.13.27,1.39,1.39,0,0,0-.07.53,4.54,4.54,0,0,0-1.52.73c0,.06.06.19.06.26a.33.33,0,0,1-.33.27,1.16,1.16,0,0,0-.46-.14,3.22,3.22,0,0,0-.46.4,4.3,4.3,0,0,1-.53.2l-.66-.2a2,2,0,0,1-1.33.6.34.34,0,0,1-.2.06,3.11,3.11,0,0,1-2,.2,4.12,4.12,0,0,1-1.52-.53c-.4-.26-.79-.4-1.19-.66s-.53-.46-.86-.66a8.29,8.29,0,0,1-1.85-2.12,3.3,3.3,0,0,1-.53-1c-.14-.27-.27-.53-.47-.86a6.21,6.21,0,0,1-.72-1.13c-.14-.13-.27-.33-.4-.46a1.61,1.61,0,0,1-.4-.6,11.29,11.29,0,0,1-.46-4.69,14.41,14.41,0,0,1,1.52-5.23c.33-.73.73-1.39,1.06-2.12a7.92,7.92,0,0,1,1-1.79,24.63,24.63,0,0,1,1.92-2.58l.4-.39a27.63,27.63,0,0,1,2.84-3.38,17.63,17.63,0,0,1,2-1.85,5.11,5.11,0,0,1,1.19-.73c.4-.2.86-.53,1.26-.73l1.52-.92c.07,0,.2-.07.26-.07a1.42,1.42,0,0,0,1,.26,1.47,1.47,0,0,1,.92.4c.2.27.4.47.6.73v.13c-.33.53-.33.53.13.93a1,1,0,0,0,.46.2,8.25,8.25,0,0,1,1.59.66,1.18,1.18,0,0,0,.53.13,1.7,1.7,0,0,1,1.26.53,5.24,5.24,0,0,1,1.19,1.46,2.2,2.2,0,0,0,.33.46,16.75,16.75,0,0,1,1.26,2,3.39,3.39,0,0,1,.4,1.13c.06.07.06.2.13.26a.85.85,0,0,1,.2.8,1,1,0,0,0,.13.59.27.27,0,0,1,.06.2,9.8,9.8,0,0,0,.2,1.86v1.19a1.72,1.72,0,0,0,.14,1C205.13,63.57,205.07,63.77,205.07,63.84Zm-5.83-1.19c0-1.13.07-2.32,0-3.44,0-.8.07-.8-.46-1.39a3.51,3.51,0,0,0-.86-.86c-.4-.2-.86-.33-1.26-.53-.2-.07-.4-.2-.66-.07a.76.76,0,0,1-.66-.13.75.75,0,0,0-1.06.2c-.33.4-.66.79-1,1.12a3.48,3.48,0,0,0-.66,1.06,1.39,1.39,0,0,0-.87.6.45.45,0,0,1-.26.33,2,2,0,0,0-.66.79.42.42,0,0,1-.4.33.67.67,0,0,0-.46.27c-.33.46-.66,1-1,1.52a1.22,1.22,0,0,0-.07.53c0,.07,0,.07-.07.13a6.87,6.87,0,0,1-.86,1.13,2.5,2.5,0,0,0-.59.86c-.2.73-.66,1.39-.86,2.12-.07.26-.27.46-.33.66s-.2.39-.33.59a1.35,1.35,0,0,1-.14,1.13,1.12,1.12,0,0,0-.2.66,3.62,3.62,0,0,0-.13.79,4.52,4.52,0,0,0,1.52,4.11,1.38,1.38,0,0,0,1.39.39,10.2,10.2,0,0,0,1.53-.53,20.55,20.55,0,0,0,3-1.32,14.82,14.82,0,0,0,1.72-.93.77.77,0,0,0,.34-.33,15.21,15.21,0,0,0,1.45-2,3.07,3.07,0,0,1,.4-.59,4.21,4.21,0,0,0,.79-1.53,3.21,3.21,0,0,1,.33-.59c.13-.33.33-.66.47-1.06a10.64,10.64,0,0,0,.59-2.52c.07-.19.07-.39.13-.53C199.31,63.31,199.24,63,199.24,62.65ZM193,41.21a2.93,2.93,0,0,1,.72.86,2.14,2.14,0,0,1,.47,2.32c-.07.06-.14.33-.27.52a.79.79,0,0,1-.53.67,1.47,1.47,0,0,0-.66.53,1,1,0,0,1-1.12.79,1.19,1.19,0,0,0-.33.07h-.4a2.81,2.81,0,0,1-1.72-.73,4.52,4.52,0,0,0-.8-.86,15.37,15.37,0,0,1-1.45-1.46V43c0-.27.06-.53.06-.86a2.33,2.33,0,0,1,.8-1.26A2.45,2.45,0,0,1,189,39.82h.46C190.64,40.28,191.76,40.75,193,41.21Zm-3.31,38.51a1.2,1.2,0,0,0-.33-.26,3.12,3.12,0,0,0-2.19-.07c-.06,0-.2.13-.2.2s.07.26.2.33a2.7,2.7,0,0,0,1.92.13c.13-.06.27-.06.4-.13S189.58,79.79,189.65,79.72Zm5.82-24.35a1.07,1.07,0,0,0,.33.26,8.28,8.28,0,0,1,2,1,1.48,1.48,0,0,0,.8.39,4.65,4.65,0,0,0-1-1.78.83.83,0,0,0-.86-.2,1,1,0,0,1-.59,0C195.87,55,195.67,55.17,195.47,55.37ZM203.15,47c-.07.07-.2.07-.4.07S202,47,201.69,47s-.59.07-.86.07a3.26,3.26,0,0,1-.93-.47c-.53-.46-1.12-.79-1.65-1.25s-1.06-1.06-1.13-1.79c0-.33.07-.73.07-1V42a.29.29,0,0,1,0-.33c.33-.26.4-.59.66-.73a1.19,1.19,0,0,1,.6-.39h1.06s0,.06.13.06a1.19,1.19,0,0,0,.07.33c.13,0,.13.07.19.07v-.07l.07-.13a8.36,8.36,0,0,1,2.78,1.66l.2.2a4.3,4.3,0,0,1,.92,1.85v1.32C203.68,46.17,203.41,46.57,203.15,47ZM200.7,73.9c-.33,0-.33.2-.4.4a.38.38,0,0,0,.07.26c.06.07.2.07.33.13Z" />
	<path d="M231,89.51a.94.94,0,0,1-.66.47.63.63,0,0,0-.66.46,1.18,1.18,0,0,1-.86.6c-.07,0-.13.06-.27.06s-.13.27-.13.47c-.06,0-.06.06-.13.06a2,2,0,0,0-.86.53,2,2,0,0,1-.93.27c-.2,0-.46.06-.66.06,0,.2,0,.27.07.33a1.26,1.26,0,0,1-.73.14,1.37,1.37,0,0,0-1.19.46,3.76,3.76,0,0,0-1.52.07h-.14a9.33,9.33,0,0,1-3.9-1.2,6.89,6.89,0,0,1-1.26-1.19,4.93,4.93,0,0,1-.73-1.12c-.13-.2-.39-.53-.26-.8s0-.19-.07-.26c-1-1.06.8-9.79.47-10.72a16.83,16.83,0,0,1,1-4.1,15.15,15.15,0,0,1,.66-2.12,21.87,21.87,0,0,0,.79-3c.2-.93,0-.93-.72-1.2a4.35,4.35,0,0,0-2-.33,4.33,4.33,0,0,1-.92.2,2.19,2.19,0,0,1-1,.13.18.18,0,0,0-.2.2c0,.27,0,.47.14.6.26-.07.06-.46.46-.53a3.41,3.41,0,0,1-.46,1.39c0,.06-.27.2-.33.26s-.07-.13-.2-.13-.13-.07-.2.13c.13.07.2.07.4,0a1.08,1.08,0,0,0-.4.53.38.38,0,0,0-.13.33c-.07.47-.8.86-.33,1.33.26.13.26.26.13.46s-.13.4-.2.66-.13.27-.4.2c-.06,0-.13.07-.2.13s-.72,2.58-.86,2.72a.4.4,0,0,0-.13.46,1.43,1.43,0,0,1-.13.2c-.07.2-.2.33-.2.53s-.13.39.13.46c.07.07,0,.2.07.4a.36.36,0,0,0,.26-.2c0,.13.14.2,0,.26s-.13.27-.13.53a2.57,2.57,0,0,1-.33.73c-.2.13-.26.4-.33.53a1.13,1.13,0,0,0-.93.6c-.39-.07-.39-.07-.72-.4-.14,0-.34.06-.47.4s-.26.26-.46.39c0,.13.07.27.07.47-.34.46-.34.46-.67.53a.56.56,0,0,1-.13.39c-.06.27-.2.53-.46.53a.39.39,0,0,0-.33.13c-.14-.06-.33-.19-.53-.26-.2.33-.66.4-.8.86l-.2.07c-.26-.07-.92,1.58-1.19,1.52-.13.13-.19.26-.33.39s-.13.27-.33.27c0-.27.27-.4.33-.73.07,0,.14-.13.07-.26a.88.88,0,0,0-.2.46.57.57,0,0,1-.33-.07c.46-1,1.52-3.44,1.92-4.56a2.41,2.41,0,0,0-.6-.66,1.47,1.47,0,0,1-.13-1.06,2.84,2.84,0,0,0,.2-.73c-.07-.46.26-.79.4-1.19a.24.24,0,0,1,.39,0c.14.2.33.2.53.26a7.64,7.64,0,0,0,.66-1.52c.07-.2.6-2.65.67-2.84.13-.4.26-.8.39-1.13a10.83,10.83,0,0,1,.47-1.52c.13-.33.2-.66.33-1.06-.13,0-.2-.07-.33-.07v-.26h-.33c0-.07-.07-.07,0-.2.33-.26.53-.59.92-.86a1.7,1.7,0,0,0,.33-.59c.33-1,.6-2.06.93-3a20,20,0,0,1,1.32-3.31.39.39,0,0,0,.07-.27,2.5,2.5,0,0,1,.26-1c.07-.13.14-.4.2-.53s.07-.13.13-.26.34-.47.27-.8a.25.25,0,0,1,.07-.2,2.66,2.66,0,0,0,.52-1.05,1.46,1.46,0,0,1,.27-.67.61.61,0,0,0,.13-.66c.2,0,.33,0,.4-.06.4-.6,1.12-.86.2-.67l-.07.07a.73.73,0,0,0-.73.4h-.33c-.06-.6.47-.6.73-.86,0-.2-.13-.2-.26-.14a3.42,3.42,0,0,0-.73.34c-.13,0-.13.19-.2.26s-.2.26-.27.33a3.36,3.36,0,0,0-.66,1c-.06.14-.2.2-.26.33s-.2.27-.33.4c-.33.2-.6,0-.93-.2a2.56,2.56,0,0,1-.93-.92c-.06-.07-.26-.14-.39-.27v-.26a1.52,1.52,0,0,0-.27-.73,3,3,0,0,1-.79-1.32,6,6,0,0,0-.4-1,.43.43,0,0,1,.13-.72c.6-.53,1.2-1.06,1.72-1.59.14-.07.2-.13.34-.2a5.26,5.26,0,0,0,1.12-.86,6.68,6.68,0,0,0,.93-.46c.06,0,.13-.14.19-.2a16.55,16.55,0,0,1,3.12-1.39c.39-.14.86-.4,1.25-.53a18.34,18.34,0,0,1,3.58-1.19c.59-.14,1.25-.4,1.85-.53.13,0,.4-.07.59-.07a20.55,20.55,0,0,1,4.57-.06,13.74,13.74,0,0,1,4,.92,4.5,4.5,0,0,1,2.31,2c.33.66.8,1.32,1.13,2a5.13,5.13,0,0,1,.39,1.26,11.59,11.59,0,0,0,.47,1.32,3.54,3.54,0,0,1,.39,2.19,5.53,5.53,0,0,1-.46,1.39c-.2.26-.26.66-.46.92a2.31,2.31,0,0,1-.4,1,5,5,0,0,0-.79,1.19c-.07.13-.2.19-.27.33a3.36,3.36,0,0,1-1.06.92c-.13.07-.19.27-.33.4a1.11,1.11,0,0,1-.33.53c-.13.07-.26.2-.26.26.13.34-.13.47-.27.67-.06-.14-.06-.2-.13-.27a.65.65,0,0,0-.53.6c-.46.06-.86.13-1.06.59a.47.47,0,0,1-.2-.39c-.59.26-1.19.59-1.78.86-.14-.27.06-.27.13-.34a.35.35,0,0,0,.2-.33.25.25,0,0,0-.07-.19c0-.07-.06-.07-.13-.07a1.51,1.51,0,0,0-.4.26c-.13.07-.2.2-.33.14-.33,0-.46.19-.66.26a1.28,1.28,0,0,0-.46.53h-.4c0,.07-.07.2,0,.26a3.13,3.13,0,0,0,.4,1,6.93,6.93,0,0,1,.33,1.59,16.2,16.2,0,0,1-.07,2.51,22.73,22.73,0,0,0-.46,2.91c-.13.73-.2,1.39-.27,2.12,0,.07-.06.07-.13.13s-.26.2-.26.33.06.33.06.6c-.13.06-.2.13-.33.13V75a.81.81,0,0,1,.07,1,.65.65,0,0,0-.13.39c0,.14-.14.27-.2.4a1.75,1.75,0,0,1-.73,1.06.44.44,0,0,0-.2.33c-.13.33-.26.66-.4,1.06a5.82,5.82,0,0,1-.53,1.39A8.86,8.86,0,0,0,221,83.1v.26c.2.46.2,1.13.4,1.59,0,.13.13.2.13.33s.13.53.26.66a9.92,9.92,0,0,0,1.33,1.52c.2.07.33.14.39.27a2.54,2.54,0,0,0,.47.33c.2.06.33.13.53.2a3.56,3.56,0,0,0,1.39.73.26.26,0,0,1,.13.06v.2l-.07.07h-.2a16.8,16.8,0,0,1-3.3-1.92,17,17,0,0,1-1.33-1.59,1.1,1.1,0,0,1-.2-.27c-.13.14-.13.2-.13.2s.13.27.2.4a2.31,2.31,0,0,0,.86,1.72A4.68,4.68,0,0,0,223.52,89c.53.19,1.06.46,1.53.59a5.58,5.58,0,0,0,2,.27,11,11,0,0,0,3-.34A4.7,4.7,0,0,1,231,89.51ZM211.68,58.74h-.07s0-.06-.13-.06h.13A.06.06,0,0,0,211.68,58.74Zm.86,13c-.46.07-.6.4-.73.73-.06.13-.06.2.07.4a.93.93,0,0,1,.59-.53C212.67,72.24,212.67,72.05,212.54,71.71Zm.86-2.84c-.2.13-.26.2-.2.33C213.4,69.13,213.47,69,213.4,68.87Zm10.72-12.51c.79-.53,1.39-1.26,2.12-1.85A16.08,16.08,0,0,1,228,53.05c.06-.13.13-.19.26-.13a9.8,9.8,0,0,1-1.59,1.72c-.06.13-.06.13-.06.2v.26a5.39,5.39,0,0,1,.59-.59,3.78,3.78,0,0,0,.53-.53,2.18,2.18,0,0,0,.6-.53,6.65,6.65,0,0,1,.59-.4c0,.2.07.53-.06.73s-.4,0-.27.13c0-.06.07-.26.07-.33h.26c.2-.2.34-.26.4-.46a10.69,10.69,0,0,0,1-1.46,3.8,3.8,0,0,0,.4-1c-.4-.46-1-.26-1.45-.53.52-.13.86.27,1.39.2-.07-.33-.2-.4-.34-.46a5.12,5.12,0,0,1-.53-.13c-.26-.07-.39-.2-.59-.2a7.1,7.1,0,0,0-2-.27h-.33a2,2,0,0,0-1.06,0c-.06.07-.26.07-.39.07s-.33-.07-.53-.07-.33.27-.53.27a2.92,2.92,0,0,1-1.06.06,1.51,1.51,0,0,0-1.26.33c-.06.07-.2.2-.26.2-.4,0-.53.27-.8.33v.27a.26.26,0,0,0,.14.06,2.49,2.49,0,0,1,.66-.13c.13-.13.2-.13.4.07-.14.06-.2.13-.27.13a3.06,3.06,0,0,1-.79.27c-.27.19-.4.33-.33.52a3.26,3.26,0,0,1-.07.8v.13a1.14,1.14,0,0,1,.46-.13c.2.13.13.26.2.46a.4.4,0,0,1-.13.46c-.13.2-.27.07-.46,0s-.34-.06-.53.2a.88.88,0,0,1-.14.4,1.52,1.52,0,0,1-.66.93.55.55,0,0,0-.13.46,1.31,1.31,0,0,1-.27,1,.32.32,0,0,1-.06.2,3.23,3.23,0,0,1-.27,1.39c-.33.6-.53,1.19-.79,1.79V60a1,1,0,0,1,.46.13c-.06.14-.13.2-.2.34a4.25,4.25,0,0,1-.52.52c-.07.07-.14.2,0,.27a10.78,10.78,0,0,0,1.72-.93c.26-.2.66-.33,1-.59a4.92,4.92,0,0,0,1.59-1.06,5.6,5.6,0,0,0,1.06-1c.33-.4.72-.73,1-1.13C224,56.49,224.05,56.36,224.12,56.36ZM219.62,91c-.33-.53-.66-1-1-1.46-.13-.13-.2-.26-.33-.33a.51.51,0,0,0-.53-.33h-.07c-.06.4.4.53.4.93,0,.07-.33.07-.27.26a1.71,1.71,0,0,0,.47-.19,2,2,0,0,1,.66.66,5,5,0,0,1,.59.66C219.69,91.1,219.62,91,219.62,91Zm-1-31.5h.13c-.07.07-.07.07-.07.14s-.06-.07-.19-.07Zm.39-5a.23.23,0,0,0,.07.2s.2,0,.2-.06a2.1,2.1,0,0,0,.59-1.79h-.26a1.49,1.49,0,0,0-.33.53C219.22,53.72,219.09,54.05,219,54.44Zm0,4.5v0Zm4.24,6a3.08,3.08,0,0,1,1.06,1.79,3.47,3.47,0,0,0,.26.72.64.64,0,0,0,.14.33c.06-.06.13-.06.06-.13a3.22,3.22,0,0,0-.13-.92,1.73,1.73,0,0,1-.13-.8,6.12,6.12,0,0,0-.47-2c-.06-.07-.13-.07-.19-.14-.34.07-.6.14-.93.2a.34.34,0,0,0-.07.47C223,64.57,223.06,64.77,223.26,64.9Zm3.71-15c-.14.07-.14.2-.2.2a8.86,8.86,0,0,0-3.25.33.72.72,0,0,1-.66.07.75.75,0,0,1,.53-.33,9,9,0,0,1,2.58-.27h1Zm-3.71,27.27a.82.82,0,0,0,.13-.53A.8.8,0,0,0,223.26,77.21Zm.33-1.79c0,.07.07.13.07.2s.2-.07.2-.13-.14-.07-.14-.14S223.66,75.42,223.59,75.42Zm.53-18.13v-.07a.07.07,0,0,1-.07.07v.07A.07.07,0,0,0,224.12,57.29Zm3.64-7.15c-.07,0-.2-.13-.33-.13a1.54,1.54,0,0,1,1.19.13h-.86Z" />
	<path d="M263.23,65.36c-.07.07-.14.13-.2.13a16.13,16.13,0,0,0-2.12,1.13c-.27.53-.93.66-1.39,1.06s-.86.79-1.32,1.12c-.8.73-1.66,1.39-2.45,2-.8.47-1.59,1.2-2.32,1.66-.53.33-.92.79-1.52.79a.79.79,0,0,0-.4.13.71.71,0,0,0-.53.87,3.74,3.74,0,0,0,.2,1.12l-.79.79v.4a.74.74,0,0,1-.33.8,3.35,3.35,0,0,0-.86.86,2.08,2.08,0,0,1-.73.79l-1.19,1.19c-.13.13-.13.46-.13.66-.27.47-.8.6-1.26.8-.13.06-.4.26-.53.13-.46-.13-.66.13-.93.26a1.34,1.34,0,0,1,0,.53c-.06.14-.33.2-.46.27-.13-.13-.4-.2-.53-.33-.13.2-.2.39-.4.66a1.26,1.26,0,0,0-1,.4,3.09,3.09,0,0,0-.26-.67c-.14.07-.33.07-.4.27a1.78,1.78,0,0,0-.6.59.75.75,0,0,1-.86.27.81.81,0,0,0-.66.13c-.4.4-.46.4-1-.06a1.78,1.78,0,0,1-1.19.79,5.79,5.79,0,0,1-1.59.4c-.2,0-.33.06-.6.06-.06.07-.19.13-.26.07-.4-.27-.66.06-1.06.2s-.73-.14-1,.2c-.13.06-.13.26-.13.46a7.61,7.61,0,0,1-.86.2c0-.2.06-.27.06-.4s-.06-.2-.13-.26a.4.4,0,0,0-.4,0c-.13.13-.13.39-.33.26a.66.66,0,0,1-.53-.2,5.92,5.92,0,0,1-1-.79,5.37,5.37,0,0,1-.79-1,2.8,2.8,0,0,1-.67-2,.55.55,0,0,0-.13-.46,6.26,6.26,0,0,1-.53-.86,2,2,0,0,0-.46-.73c-.13-.27-.2-.47-.27-.6A9.1,9.1,0,0,1,226,77a.93.93,0,0,1,.2-.53c.19-.27.26-.46.19-.66a.29.29,0,0,1,.07-.4c-.26-.73,1.92-6.42,2.51-7.28a1.6,1.6,0,0,0,.34-.86.6.6,0,0,1,.19-.33,2.46,2.46,0,0,0,.8-1.06c.2-.4.46-.79.66-1.12a3.55,3.55,0,0,0,.79-1.26,5,5,0,0,1,1-1.13s.13-.06.13-.13c.2-1,6.81-7,7.15-7.34.92-.73,2-1.46,2.91-2.25,2.38-1.92,5.22-3,8-4.37.53-.2,1.13-.6,1.72-.4a1,1,0,0,0,.53-.26,1.13,1.13,0,0,1,.8-.07,1.3,1.3,0,0,1,.66.33,8.47,8.47,0,0,1,1.92,1.19,4.43,4.43,0,0,1,.46.2,4.81,4.81,0,0,1,2.38,2.58,1.1,1.1,0,0,1,.27.2c.13,0,.13.2.13.2s-.2.13-.26.13a10.87,10.87,0,0,1-1.46-.06,1.55,1.55,0,0,0-1.26.13,15.28,15.28,0,0,1-1.58.59,2.54,2.54,0,0,1,.06.67,1.55,1.55,0,0,0-1.19.19c-.66.33-1.32.67-2,1.06a.56.56,0,0,0-.33.33,2.33,2.33,0,0,1-1.05.73c-1.26.53-2.25,1.79-3.45,2.52-.59.46-1.25.72-1.58,1.39-.07.06-.27.13-.33.19A8.44,8.44,0,0,1,244,61.26a6.69,6.69,0,0,0-1.85,1.79c-.53.66-1.13,1.32-1.72,2-.07.07-.27.2-.27.33,0,.53-.46.8-.59,1.26a3.88,3.88,0,0,1-.4.66c-.2.2-.46.46-.07.73a4.38,4.38,0,0,1-.66.53.84.84,0,0,0-.46.59,1.33,1.33,0,0,1-.33.67,3.77,3.77,0,0,0-.8,1.12c-.13.26-.33.6-.46.86s-.46.46-.27.86a.48.48,0,0,1-.13.27c-.2.52-.26,1.12-.79,1.45-.07.13-.2.27-.2.4a4,4,0,0,1-.73,2.25.2.2,0,0,0-.06.13c-.07.2.33.46-.07.66a1.22,1.22,0,0,0-.2.73c-.06.13.13.33.2.46s-.46.53,0,.86a3.55,3.55,0,0,0,2.32-.26,36.09,36.09,0,0,0,4.43-2.25c.46-.27.79-.6,1.26-.86.13-.13.26-.33.39-.46.47-.4.73-1.06,1.33-1.39a7,7,0,0,0,1.32-1.46,12.44,12.44,0,0,0,1.19-1.32.25.25,0,0,0,.07-.2c-.4-.2-.8-.47-1.26-.66a1.71,1.71,0,0,1-.53.13,1.07,1.07,0,0,0-.86.2,1.63,1.63,0,0,1-.93.26c-.66-.13-.66-.06-1.12.33-.26-.33-.79-.46-.93-.92a3.68,3.68,0,0,1,2.45-.67,1.3,1.3,0,0,0,.86-.13c-.13-.33-.2-.39-.46-.39a6.05,6.05,0,0,0-.93.26,2.62,2.62,0,0,0-.92-.33,1.7,1.7,0,0,1-.67-.53,4.58,4.58,0,0,1-1-1.72,1,1,0,0,1,.93-.79c1.92-.4,3.77-1.13,5.62-1.66a2.75,2.75,0,0,1,.53-.13,21.14,21.14,0,0,0,3.51-.8c.2-.06.53-.06.79-.13a7.77,7.77,0,0,0,2.25-.79,3.73,3.73,0,0,1,1.13-.33,7.44,7.44,0,0,0,.86-.27.89.89,0,0,0,.46-.13c.46-.46,1.19-.33,1.79-.66.4.53,1.12.53,1.72.92a6.54,6.54,0,0,1,1.19.67,1.46,1.46,0,0,0,.66.19c.33,0,.4.14.27.47Zm-31,19.85a1.78,1.78,0,0,0,1.32.07c-.07-.13-.07-.33-.13-.4s-.4-.2-.46-.39a1,1,0,0,0-1.13-.4c-.13,0-.2.07-.26,0a6.45,6.45,0,0,1-1.86-.66c-.46-.27-1-.6-1.45-.86,0,.13-.14.26,0,.33a4.69,4.69,0,0,0,.72,1.39,1.12,1.12,0,0,0,1.2.66h1Zm20.05-12.9c-.27-.2-.47,0-.66.13s-.07.07-.07.2a.61.61,0,0,0,.73-.2Z" />
	<path d="M286.85,47.76c.26-.07.39.07.59.26-.13.27-.33.47-.46.73A14.48,14.48,0,0,0,284.53,50c0,.2.13.2.2.2h.53l.06.06v.14a.34.34,0,0,1-.26.13,6,6,0,0,1-1.13.33,3.4,3.4,0,0,0-1.25.73l.2.4a6.58,6.58,0,0,0-1.13.26c-.26.13-.6.33-.93.53a.94.94,0,0,1-.13.4.66.66,0,0,1-.26.33,2.14,2.14,0,0,0-.93.79.49.49,0,0,1-.46.27,1.07,1.07,0,0,0-.86.66,1,1,0,0,1-.47.46,1.72,1.72,0,0,0-.86.4h-.13c-.46-.07-.73.2-1.06.39a1.82,1.82,0,0,1-1.19.4,1.13,1.13,0,0,0-1.12.86,3.71,3.71,0,0,1-.93,1.19h.6c0,.07.06.14.06.2-.2.33-.46.6-.33,1.06a.93.93,0,0,0-.4-.07c-.19.14.07.2.07.34v.13a1.31,1.31,0,0,0-.6.92,1.34,1.34,0,0,1,.34.27v.13a2.34,2.34,0,0,1-.67.4.63.63,0,0,0-.53.59c0,.2-.19.4-.26.6.13.13.2.06.33,0s.2-.33.33-.46a1.76,1.76,0,0,0,.27-.4c.19.2.06.4.13.53l.06.06c.6-.26,1.2-.46,1.86-.72l2.64-1c.47-.13.87-.26,1.26-.39a1.87,1.87,0,0,1,.86-.07c.2,0,.4-.07.53-.07a1.31,1.31,0,0,1,.33.27,6.3,6.3,0,0,0-1.06.66.56.56,0,0,0-.13.27c0,.13.2.19.33.19s.4-.06.66-.13a4.38,4.38,0,0,0,.27.46c-.07.07-.07.14-.2.27a2.54,2.54,0,0,0-.86,1c-.07.07-.26.2-.33.27l-.53.33a.91.91,0,0,0,.07.46l-.14.13a5,5,0,0,1-1.06.53,1.55,1.55,0,0,0-.86.73,2.49,2.49,0,0,1-1,.8c-.53.26-1,.52-1.53.72-.13.07-.26.2-.39.27a1.43,1.43,0,0,1-1,.33,1.49,1.49,0,0,0-.79.4,2.53,2.53,0,0,1-1.19.59c-.4.13-.8.33-1.19.46a.92.92,0,0,1-.4.14c-.4.06-.53.33-.73.72.14.07.27.07.4.14a2.93,2.93,0,0,0-.66,1.39c.13.13.26.06.4,0l1.32-.6a1.36,1.36,0,0,1,.33-.2A7.76,7.76,0,0,0,270.7,71c.79-.33,1.46-.8,2.18-1.06.47-.13.86-.33,1.33-.47a7.4,7.4,0,0,0,2-.92,19.23,19.23,0,0,1,1.79-.73.86.86,0,0,1,.4-.13A7.4,7.4,0,0,1,280,67a11,11,0,0,0,1.32-.6c.67-.26,1.33-.46,2-.72.26-.07.53-.2.79-.27s.33,0,.4.27a2.46,2.46,0,0,1-.93.72,8.78,8.78,0,0,0-1.78,1.26,1.59,1.59,0,0,1-.33.2c-.14.07-.2.13-.2.27s.2.33.39.26a3.69,3.69,0,0,0,.6-.13c-.2.2-.26.33-.33.39a7.78,7.78,0,0,0-1.32.67c-.2.06-.34.26-.53.39.06.2.33.27.13.53a1.56,1.56,0,0,1-.8.66,4.4,4.4,0,0,0-.86.6c0,.2.14.26.27.2a2.11,2.11,0,0,1,.4-.2c-.14.46-.14.46-.4.6a.71.71,0,0,0-.4.13c-.2.33-.59.39-.86.59a2.37,2.37,0,0,1-1.06.33c-.26.14-.53.27-.72.4a5.27,5.27,0,0,0-.8.53h-.13c-.27.27-.73,0-.93.4a5.64,5.64,0,0,1-.92.46,1.72,1.72,0,0,1-.73.27c-.13,0-.2,0-.27.06-.53.4-1.19.6-1.65,1-.07.14-.27.14-.4.14-.06.2-.06.33-.26.46A26.9,26.9,0,0,1,266,78.6a3.25,3.25,0,0,1-.79.19c-.47.14-1,.27-1.52.4a.15.15,0,0,0-.14.13,1.62,1.62,0,0,1-.53.86c-.13.07-.19.27-.33.4a7.49,7.49,0,0,1-.53,1.06c-.06.13-.19.2-.26.27-.27-.2,0-.47-.13-.6s-.27.2-.27.33a3.65,3.65,0,0,0-.26.79,2.3,2.3,0,0,1-.27.93c-.2-.13-.2-.26-.13-.4a6.74,6.74,0,0,1,.27-1.12,1.3,1.3,0,0,1-.07-.33c-.4.59-.33,1.32-.8,1.85l-.39-.2-.13.13c-.07.34-.14.67-.2,1-.2,0-.33.06-.53.06a3.27,3.27,0,0,1-.27.47.92.92,0,0,1-.66.53h-.79a.64.64,0,0,1-.53-.53,8,8,0,0,1-.07-1.33,10.41,10.41,0,0,0,.13-2.11s-.06,0,0-.07c.27-.46,0-1.06.27-1.59a12.37,12.37,0,0,0,.4-2,2.07,2.07,0,0,0-.2-1.65.25.25,0,0,1-.07-.2,1.14,1.14,0,0,1,.66-.47.58.58,0,0,0,.4-.39c.2-.8.4-1.59.66-2.39a9.86,9.86,0,0,0,.46-1.32,5.24,5.24,0,0,1,.34-1.12c-.27-.33-.53-.67-.86-1.06a1.59,1.59,0,0,0,.33-.2c.39-.2.72-.33,1.12-.53a1.16,1.16,0,0,0,.46-.53c.2-.66.53-1.26.8-1.92a3.24,3.24,0,0,0,.46-1.12.5.5,0,0,1,.13-.33.47.47,0,0,0,.2-.4,1.57,1.57,0,0,1,.47-.86.81.81,0,0,0,.33-.73.65.65,0,0,1,.13-.33c.13-.27.33-.53.46-.79a.39.39,0,0,0,.07-.27c.06-.2.06-.4.13-.46.46-.4.4-1.06.66-1.52a15.28,15.28,0,0,0,.73-1.46c.07-.13.07-.2.13-.26a12.41,12.41,0,0,0,.93-1.86c.06-.06.06-.2.13-.26a1.71,1.71,0,0,0,.33-1.13v-.33c.27-.2.47-.53.8-.79a1.6,1.6,0,0,0,.19-.33,8.51,8.51,0,0,1,.53-1.26,2.08,2.08,0,0,0,.2-.66.93.93,0,0,1,.73-.8h.13a1.29,1.29,0,0,1,1.19.07c.47.26.93.4,1.39.66s.8.13,1.19.33a.6.6,0,0,0,.47-.06c.86-.33,1.72-.73,2.58-1.06s1.85-.8,2.78-1.13a10.39,10.39,0,0,0,1.32-.53,11.21,11.21,0,0,1,1.46-.46l1-.4A7.59,7.59,0,0,1,285,46.7a5.76,5.76,0,0,1,1.79-.2,1.06,1.06,0,0,1,.46.07.71.71,0,0,1,.2.26c-.2.07-.4.2-.59.27s-.4.06-.53.2-.14.13-.14.2.07.13.14.19Zm-19.92,23c.06-.06.06-.13.06-.33-.39.07-.66.2-.72.53s0,.6-.2.86-.07.66-.27.93c-.06,0,0,.2.07.2s.2,0,.2-.07Zm3-7.15a3.49,3.49,0,0,0-.47.73c.27.14.4.07.4-.06A2,2,0,0,0,269.91,63.57Z" />
	<path d="M280.56,81.38v-.2a25,25,0,0,1,.46-4.44c.33-1.72,1.46-6.48,1.85-8.27.66-2.64,1.46-5.29,2-7.94.46-1.72.79-3.64,1.12-5.36,0-.13,0-.13.14-.26.33-.2.39-.67.52-1,.2-1,.47-2,.67-3a1.32,1.32,0,0,1,1.32-.93,13.46,13.46,0,0,1,1.85.47c.47.2.8.46.8,1,0,.2.13.33.13.46s.2.33.33.33a3.86,3.86,0,0,0,.73.73.84.84,0,0,1,.26.6v.72a2.21,2.21,0,0,0,.33.67c.07.26.2.33.4.59a20.48,20.48,0,0,0,1,2c.33.39.47.86.8,1.19s.33.66.53,1a2.1,2.1,0,0,1,.46,1.13,6.33,6.33,0,0,0,.66,2c0,.07.13.2.13.33a.87.87,0,0,1,.33-.46h.34V63c-.27.13-.27.2-.14.33a4.6,4.6,0,0,1,.2,1.46,2.89,2.89,0,0,0,0,.72l.13-.06a1.27,1.27,0,0,0,.47.06c.2.14.2.14.33-.06V65.1l.06-.14c.14.14.27.2.27.47a3.31,3.31,0,0,0,.2.73h.13c.07-.07.07-.2.2-.33.33-1,.79-2,1.12-3,.73-1.79,1.39-3.57,2.19-5.29a2.08,2.08,0,0,0,.2-.8.48.48,0,0,1,.13-.53c.33-.92.66-1.78,1-2.64s.53-1.66.86-2.58c.79-1.53,1.46-3.18,2.25-4.7a2.54,2.54,0,0,1,.33-.47,1.67,1.67,0,0,1,1.19-.66.89.89,0,0,0,.53-.13h.13c.47.27.8.6,1.2.79a1.22,1.22,0,0,1,.66,1.33c1-.8,1,8.07,0,7.81v.33a1.71,1.71,0,0,0-.07.59.42.42,0,0,1-.13.33,1,1,0,0,0-.33.73c0,.27-.13.33-.33.6a.67.67,0,0,0-.47.73,1.48,1.48,0,0,1-.53,1.12l-.33.33a1.33,1.33,0,0,0,.67.2c-.14.33-.34.26-.53.13s-.33,0-.6.2c-.07.27-.2.33-.33.6.13.06.13.06.13.19a4.63,4.63,0,0,0-.2.86.45.45,0,0,1-.26.34c-.07.13-.07.33-.2.46s-.13.2-.13.33c-.33.13-.33.33-.4.53a.75.75,0,0,1-.6.79c-.06.14-.33.2-.33.47.14,0,.14.06.27.06s.33,0,.4.13a1.46,1.46,0,0,0,.79.14c.46-.14.53-.33.66-1,0-.26-.13-.46-.53-.59a.91.91,0,0,1-.46-.2.91.91,0,0,1,.46-.2,1.23,1.23,0,0,1,.73-.13v.46a1.7,1.7,0,0,0,.46,1.39.18.18,0,0,1,0,.27c0,.06-.13.2-.33.33a1.25,1.25,0,0,0-.33.86,6,6,0,0,0,.13,1.45c0,.2,0,.34-.13.4a.5.5,0,0,1-.53-.06.13.13,0,0,0-.13-.14c-.2,0-.2-.2-.2-.33a3.12,3.12,0,0,0-.13-.53c-.13-.13-.2-.26-.33-.13-.2.33-.66.53-.47,1.13,0,.06-.06.33-.06.52s-.33,0-.46,0c-.34,0-.53-.46-.47-.79.13-.07.27-.2.13-.33a.82.82,0,0,1,.34-.86c.19-.13.33-.2.46,0s.2.2.4,0a.68.68,0,0,1,.59-.33c.33,0,.4-.13.4-.46s0-.34,0-.53a1.33,1.33,0,0,0-.53.19,1.77,1.77,0,0,1-1.32.47.48.48,0,0,0-.53.53,3.09,3.09,0,0,1-.6,1.12c-.07.13-.2.2-.2.47a2.1,2.1,0,0,1-.46,1.19c-.07.13-.07.33-.2.46a1.07,1.07,0,0,1-.2.4,5.65,5.65,0,0,0-.33.92v.33c-.26.4-.33.86-.59,1.33a1.52,1.52,0,0,1-.2.66c-.47-.27-.53,0-.8.33s-.06.66,0,1a2.93,2.93,0,0,1,.14.53.83.83,0,0,0,.46,1,.33.33,0,0,1,.2.2,2.78,2.78,0,0,0-.14,1.13c-.06.2-.19.53-.33.86a.69.69,0,0,1-.06.26.13.13,0,0,0-.13-.13,3.08,3.08,0,0,0-.14-1.12c0-.07,0-.34-.06-.34a1,1,0,0,1-.14-.66v-.33h-.13c0,.13-.2.27-.2.47a6,6,0,0,0-.19,1.19s0,.13.06.13a1.83,1.83,0,0,1,.13,1.65c-.13.33-.33.53-.33.8s0,.53,0,.86a.37.37,0,0,1-.13.33c-.07.33-.33.53-.4.86-.46-.07-.33-.53-.66-.66a1.58,1.58,0,0,1-.66.92c-.13,0-.26.07-.26.2a9.62,9.62,0,0,1-.34,1.33h-.06c-.13-.2-.27-.47-.13-.67s-.14-.2-.14-.33c0-.53-.39-.79-.86-.46a.66.66,0,0,1-1-.07,4.48,4.48,0,0,1-.66-1.12c-.8-2.45-1.52-5-2.32-7.41-.46-1.33-1.12-2.52-1.45-3.84A21.32,21.32,0,0,0,291,67.48a5.52,5.52,0,0,0-.53-1.06h-.14a19.08,19.08,0,0,0-1,2.38c-.46,1.26-1.59,5.43-1.92,6.62-.2.46-.33.93-.53,1.32s-.2.67-.33,1l-.66,1.65c0-.4.79-2.51.86-3,.13-.14.13-.33.27-.47s.06-.46-.14-.53a1.13,1.13,0,0,1-.13-.92V74.1h-.07c-.13.13-.26.13-.26.26a3.08,3.08,0,0,0-.53,1.66,3.73,3.73,0,0,0-.33.86,1.74,1.74,0,0,1-.53.86c-.13.26-.33.33-.46.59a1.3,1.3,0,0,0-.33.66c-.14.4-.2,1-.33,1.39,0,.14,0,.27-.14.33s-.2-.06-.2-.19c-.13-.34-.19-.47-.52-.47a7.11,7.11,0,0,0-.34.66,7.06,7.06,0,0,0-.26,1.46,4.46,4.46,0,0,1-.2.86,16.32,16.32,0,0,0-.2,1.79c-.13.33-.26.66-.66.66s-.33,0-.46-.13a.59.59,0,0,1-.2-.4c0-.46-.13-.79-.13-1.26Zm2.84,3.77-.2.2c-.19-.07-.19-.2-.19-.4A.24.24,0,0,1,283.4,85.15Zm.27-3.31c-.14,0-.14-.13-.14-.2s.14-.26.2-.33a.35.35,0,0,1,.33.2C283.87,81.64,283.87,82,283.67,81.84Zm12.7-22.63a2.56,2.56,0,0,1-.33-.53C296.37,58.68,296.37,58.81,296.37,59.21Zm3.71,22.1a.46.46,0,0,0,.13-.27h-.46C299.88,81.31,300,81.38,300.08,81.31Zm4-12c0-.14-.07-.2-.07-.33-.13.13-.26.13-.26.19a2.21,2.21,0,0,1-.33.67C303.85,69.73,304.05,69.46,304.05,69.27Zm1.32.33a.23.23,0,0,1-.2.13s-.2-.13-.2-.27a.8.8,0,0,1,.53-.66C305.5,69.07,305.37,69.27,305.37,69.6Zm1.13.86a.23.23,0,0,0-.2.13.7.7,0,0,0-.27-.2c0-.26,0-.46.27-.59l.2-.2A1,1,0,0,1,306.5,70.46Zm.46.79c.07.46.07.46-.13.53C306.63,71.58,306.69,71.38,307,71.25Zm2-9.59a.49.49,0,0,0-.27-.14c.13-.06.13-.06.13-.19s.33-.14.47-.14l.06.14C309.14,61.46,309,61.52,309,61.66Zm-.14.86v-.4C309,62.32,309,62.45,308.81,62.52Zm.8,0v.13a.44.44,0,0,1-.27.13c-.06,0-.06-.13-.06-.26Zm.72-3.38c.14-.46.27-.59.6-.46C310.67,58.81,310.6,59,310.33,59.14Z" />
	<path d="M0,73.77V49.71H2.91V60.42H15.74V49.71h2.92V73.77H15.74V63H2.91V73.77Z" />
	<path d="M31.67,74.14A8.34,8.34,0,0,1,27.18,73a7.61,7.61,0,0,1-2.9-3.24,10.94,10.94,0,0,1-1-4.86,11.16,11.16,0,0,1,1-4.89,7.94,7.94,0,0,1,2.84-3.31,7.6,7.6,0,0,1,4.27-1.19,8.43,8.43,0,0,1,2.79.47,6.93,6.93,0,0,1,2.5,1.52,7.36,7.36,0,0,1,1.8,2.78,11.92,11.92,0,0,1,.67,4.25v1.17H25.24V63.29H36.33a6,6,0,0,0-.61-2.73A4.6,4.6,0,0,0,34,58.67,4.88,4.88,0,0,0,31.39,58a5,5,0,0,0-2.86.81,5.49,5.49,0,0,0-1.85,2.12,6.23,6.23,0,0,0-.65,2.8v1.6a7.73,7.73,0,0,0,.71,3.46,5.1,5.1,0,0,0,2,2.15,5.79,5.79,0,0,0,3,.73,5.88,5.88,0,0,0,2-.31,4.18,4.18,0,0,0,1.54-.94,4.13,4.13,0,0,0,1-1.57l2.68.75A5.77,5.77,0,0,1,37.44,72,6.73,6.73,0,0,1,35,73.57,9,9,0,0,1,31.67,74.14Z" />
	<path d="M44.6,80.49a6,6,0,0,1-1.26-.12,3.25,3.25,0,0,1-.76-.21l.7-2.45a4.08,4.08,0,0,0,2.53,0c.67-.27,1.25-1.08,1.75-2.43l.51-1.41L41.4,55.72h3l5,14.38h.19l5-14.38,3,.05L49.91,76.4a8.09,8.09,0,0,1-1.28,2.28A4.9,4.9,0,0,1,46.86,80,5.49,5.49,0,0,1,44.6,80.49Z" />
	<path d="M64.26,70.48l-.19,1.26a25.46,25.46,0,0,1-.6,2.87q-.4,1.53-.84,2.88c-.29.9-.53,1.62-.72,2.15H59.8c.1-.5.23-1.16.4-2s.33-1.74.5-2.75.3-2.05.41-3.11l.15-1.31Z" />
	<path d="M82,49.71V73.77H79.07V49.71Z" />
	<path d="M89.87,49.71v2.11a6.76,6.76,0,0,1-.34,2,8.62,8.62,0,0,1-1,2.1,7.55,7.55,0,0,1-1.61,1.77l-1.5-1.22a16.86,16.86,0,0,0,1.29-2.2,5.69,5.69,0,0,0,.54-2.45V49.71Z" />
	<path d="M92.83,73.77v-18h2.68v2.82h.24a4.55,4.55,0,0,1,1.82-2.25,5.45,5.45,0,0,1,3-.8,5.2,5.2,0,0,1,3,.8,5.46,5.46,0,0,1,1.86,2.25h.19a5.31,5.31,0,0,1,2.08-2.23,6.36,6.36,0,0,1,3.32-.82,5.45,5.45,0,0,1,4,1.5,6.38,6.38,0,0,1,1.54,4.7V73.77h-2.77V61.69a3.44,3.44,0,0,0-1.1-2.86,4,4,0,0,0-2.57-.85,3.81,3.81,0,0,0-3,1.14,4.13,4.13,0,0,0-1,2.9V73.77h-2.82V61.41a3.29,3.29,0,0,0-1-2.49A3.61,3.61,0,0,0,99.69,58a3.78,3.78,0,0,0-2,.57,4.41,4.41,0,0,0-1.5,1.59,4.73,4.73,0,0,0-.57,2.35V73.77Z" />
</svg>