<svg id="Layer_1" data-name="Layer 1" xmlns="http://www.w3.org/2000/svg" viewBox="0 0 130.43 55.16">
	<path d="M.29,38.69a25,25,0,0,1,2-6.72C3.17,30,4,28,5,26.07c.39-.82,1-1.49,1.35-2.26a47.22,47.22,0,0,1,3.45-5.23,1,1,0,0,1,.24-.19,4.61,4.61,0,0,0,1.25-1.16A27.29,27.29,0,0,1,13.11,15c.19-.19.62-.24,1-.39,0,0,.14.15.14.24a3.24,3.24,0,0,1-.82,1.49,1,1,0,0,0-.24.53,2,2,0,0,0-.09.53.3.3,0,0,0,0,.29c.29.19.14.52.14.76a.29.29,0,0,1-.19.24,1.17,1.17,0,0,1-.14.24c0,.05.14.05.19.1s0,.1,0,.14a6.36,6.36,0,0,1-.44,3c-.14.29-.33.58-.43.86s0,.39.29.34.24,0,.29.19a2,2,0,0,1-.34,1.3.42.42,0,0,0-.14.29c.05.24-.1.28-.24.24s-.29,0-.1-.15c.05,0-.05-.19-.09-.19a.63.63,0,0,0-.68.29c-.24.53-.43,1-.67,1.53-.1.2-.05.24.15.24a1.3,1.3,0,0,1,.57.2v.19c-.09,0-.29,0-.33-.05-.29-.38-.77-.05-1.06-.34-.05.15-.1.29-.14.44s.14.14.23.14.2-.1.29-.14a.18.18,0,0,1,.15-.05c0,.05,0,.19-.05.19-.29.14-.29.34-.19.62s-.1.44-.39.53c-.14.05-.24.15-.09.29a.27.27,0,0,1,.05.19.3.3,0,0,1-.2-.05c-.19-.24-.28-.09-.33.1-.15.43-.58.67-.82,1.06-.19.24-.48.62-.43.86a2.11,2.11,0,0,1-.1,1c0,.14-.24.29-.29.48a2.4,2.4,0,0,0-.19.82.47.47,0,0,1-.33.53l0,0c0,.34-.34.63-.24,1a1,1,0,0,1-.39,1.16.53.53,0,0,0-.14.33,1.28,1.28,0,0,0,.1.43c0,.2.14.39-.15.48-.05,0-.09.1-.05.1.15.53-.38.77-.43,1.2s0,.48.15.67.09.15,0,.24l-.2.19c-.14.1-.14.15,0,.24a.3.3,0,0,1,0,.29.43.43,0,0,0,0,.53c0,.1,0,.19,0,.34a1.59,1.59,0,0,0-.15.52c0,.1.15.24.24.34a2.33,2.33,0,0,1,.34.38s0,.1,0,.1c-.34,0,0,.29-.14.38l0,0c.24-.09.24.1.29.19l.29,1.16c0,.28-.05.52,0,.76a.78.78,0,0,1,0,.58v.1a1.18,1.18,0,0,1,0,1.05c0,.1,0,.24,0,.34s.14-.1.19,0,.24.19.19.24c-.09.34,0,.48.34.58,0,0,.14.14.14.19.05.33.29.29.48.24H8c.43-.1.43-.1.33.33a.68.68,0,0,0,.24.68.64.64,0,0,1,.1.86v.1a1.07,1.07,0,0,0,.24.09s.1-.09.1-.14c0-.24-.05-.48-.05-.72v-.15c.09,0,.24,0,.29.05a1.88,1.88,0,0,0,1,.43s.09.2.19.29.09.15.19.19a1.07,1.07,0,0,0,1.06-.33c1-1.11,2-2.21,3.07-3.27a39.72,39.72,0,0,0,5.9-8.44c.24-.44.53-.92.82-1.35a21.82,21.82,0,0,0,2.69-6.53c.43-1.58,1-3.12,1.44-4.7.19-.63.19-1.3.38-1.92.38-1.39.86-2.79,1.2-4.18.67-2.54,1.3-5.09,2-7.63.05-.24,0-.34-.29-.38a2.2,2.2,0,0,1-.91-.24,1.72,1.72,0,0,0-1.39,0c-.68.19-1.44.24-2.16.38a1.22,1.22,0,0,0-.34.14.42.42,0,0,0-.24.05c-.19.05-.38.05-.53.1a1.23,1.23,0,0,1-1.15,0c-.19,0-.24,0-.34.14a.48.48,0,0,1-.48.24c-.09-.05-.24-.05-.28,0s-.29.15-.34-.05h-.1a.67.67,0,0,1-.52.68c-.1,0-.1.24-.15.38a.59.59,0,0,0-.05-.29c0-.09,0-.14,0-.24s-.29.1-.29.19-.15.24-.34.2h-.09c-.53.48-1.16.14-1.73.24s-1.06-.2-1.49.24c0,0-.1,0-.1-.05-.09-.29-.33-.39-.62-.48-1-.34-2-.67-2.93-1.06A14.29,14.29,0,0,1,10.42,11c-.05,0-.1-.09-.1-.14a1.73,1.73,0,0,1,.87-1.3A38.39,38.39,0,0,1,20,6.82c2.49-.48,4.94-1,7.39-1.49,1.49-.29,3-.48,4.47-.72s3.21-.67,4.8-1c2.54-.48,5.08-1,7.68-1.39a10.81,10.81,0,0,1,1.82-.1c.77-.1,1.49-.29,2.26-.38a.49.49,0,0,1,.24-.05,28.47,28.47,0,0,0,4.89-.53C55.49,1,57.37.67,59.29.43c0,0,0,0,.09,0A.9.9,0,0,0,60.44,0H61c.05.05.05.1.1.1A2.39,2.39,0,0,0,62.5.48c1.15,0,2.26.1,3.41.14.53.05,1,.1,1.1.77v.39a8.7,8.7,0,0,1-1,.38c-.14,0-.28-.05-.43-.14a1,1,0,0,0,0-.24c0-.05-.1-.2-.14-.2s-.34.1-.34.15.14.33.19.48.05.09,0,.14-.09,0-.14.1c-.58.29-.58.29-.72-.34-.1-.38-.15-.43-.48-.24s-.58.39-.87.58c0,0-.14,0-.24,0-.28-.05-.48,0-.48.33a1.52,1.52,0,0,1-.19.34,3.77,3.77,0,0,1-1.58.77,1.38,1.38,0,0,0-.39.09c0,.05-.14.05-.19.05a1.6,1.6,0,0,0-1.53.29.61.61,0,0,1-.29,0,.24.24,0,0,0,.09-.15A2.9,2.9,0,0,0,58.66,4c-.14-.09-.24-.24-.38-.29a.49.49,0,0,0-.34.2c-.09.09-.09.14-.24.09s-.29,0-.29.19v.15s-.09,0-.09,0c-.29-.19-.48-.14-.58.19s-.33.19-.48.1c-.34-.24-.57-.15-.86.14-.1.1-.24.19-.34.29s-.1,0-.14,0c-.24-.1-.53,0-.72.09s-.58,0-.82.15a.34.34,0,0,1-.29,0c-.19-.15-.29,0-.43.09s-.1.19-.19.34a.42.42,0,0,1-.58.24,1.17,1.17,0,0,0-1,.09,9.69,9.69,0,0,1-1.25.44H49.4c-.1,0-.15-.1-.24-.15a2,2,0,0,0-.2.34A1.92,1.92,0,0,1,49,7c0,.09-.09.14-.14.24s0-.15-.1-.15a.19.19,0,0,0-.14,0c-.15,0-.29,0-.34-.15s-.33-.09-.53,0c0,0-.09.24-.24,0h0c0,.33-.58,0-.58.38-.1,0-.24,0-.29-.09a2,2,0,0,1-.48-.39c-.05.19-.09.39-.14.53a.63.63,0,0,1-.15.19s0-.09-.09-.14a.35.35,0,0,0-.19-.19c0,.09-.05.14-.05.19s.05.14.05.19,0,.05-.05.1l0,0c-.14-.19-.19-.1-.19,0s-.15.19-.29,0a2.31,2.31,0,0,1-.19-.14c-.19-.14-.39-.38-.67-.14-.1.09-.29,0-.39,0a1.33,1.33,0,0,0-1.29.57.3.3,0,0,1-.2.05c-.38-.24-.38-.24-.62.14a1,1,0,0,1-.53.29,1.58,1.58,0,0,1-.53.15s-.09-.05-.14-.1,0-.1.1-.1a.56.56,0,0,1,.24-.24s-.1-.09-.15-.09a.76.76,0,0,0-.33,0c-.15.09-.24.24-.39.33s-.19.05-.19,0c-.14-.29-.38-.24-.62-.19a4,4,0,0,1-.77,0,.5.5,0,0,0-.15,0c0,.24-.09.29-.28.29s-.2.09-.2.14.1.19.15.29a.39.39,0,0,1,.14.24c0,.09-.09.19-.19.34a1.72,1.72,0,0,0-.14-.25,2.65,2.65,0,0,0-.48-.19s-.15.19-.2.24v0c.29.1.24.38.34.58a.27.27,0,0,1,.05.19H37.3c-.1.14-.14.24-.24.38l.38-.14h.1c0,.05,0,.1,0,.1a.28.28,0,0,0-.09.43c.09.24.14.53.24.77s0,.28-.2.38l-.28.14a.59.59,0,0,1,0,.15c.29-.15.24.09.29.24s.15.14.24,0h.1c.05,0,.09.19.05.24-.24.14-.24.33-.15.57s0,.2,0,.29-.14.24-.24.34-.14.14-.28.19-.24.1-.24.34c-.05.43-.1.91-.15,1.34a.35.35,0,0,0,0,.24c.24.34,0,.67,0,1,0,.05-.09.1-.09.05a.81.81,0,0,0-.87.05c-.19.14-.19.28,0,.43s.19.14.1.29a1.59,1.59,0,0,1,.05.24.53.53,0,0,0,.24-.05s.09-.05.19-.1v.24a1.72,1.72,0,0,0-.1.48c0,.05,0,.1,0,.15s-.09-.1-.09-.15a.87.87,0,0,0-.77-.48c-.05,0-.1.05-.14.1a.2.2,0,0,0,.14.09c.19.1.24.2.1.39s-.15.09-.15.19-.19.1-.24-.05S35,19,34.9,19s-.19.1-.24.19a2.94,2.94,0,0,1-.34.1,0,0,0,0,0,0,.05.81.81,0,0,0,.29.09l-.29.29a1,1,0,0,0-.43.62.22.22,0,0,1-.19.15c-.44.05-.48.09-.48.53,0,0,.09.14.14.14a1.3,1.3,0,0,0,.43.14,2.43,2.43,0,0,1-.24.72c0,.1-.14.15-.14.24-.05.24-.05.44-.38.24,0,0,0,0,0,0,0,.29-.1.39-.39.34l-.09.05v.24c.05.09.14.14.24.24s.24.43-.19.48c-.25,0-.25.24-.2.43s.1.48-.19.62c-.05.05,0,.19-.05.34a1,1,0,0,1-.09.33,3.2,3.2,0,0,1-.19.34c-.1.24-.15.48-.25.72a.59.59,0,0,0,.05.67c0,.05-.05.19-.09.19-.24.05-.39.2-.15.44a.31.31,0,0,1-.14.43c-.1,0-.19.14-.34.24s0,.05-.09.09h.19a1.92,1.92,0,0,0,.53-.28c.09-.1.24-.29.19-.34-.15-.24,0-.34.14-.38s.29-.29.34-.48a.25.25,0,0,0,.09-.2c0,.1.15.2.2.29v.19a.25.25,0,0,0,0,.15,2.66,2.66,0,0,0,.62.81c.44.24.19.63.34.92a3,3,0,0,1,.19,1c.05.38,0,.43-.38.38s-.24,0-.19.19l.14.53a.11.11,0,0,1-.1.1.49.49,0,0,1-.24,0l-.14.15s.09,0,.14.1a.18.18,0,0,1,.1,0c.38.2.38.2.58-.24a1.85,1.85,0,0,1,.14-.14c0,.05,0,.14,0,.19.14.48,0,.72-.48.87-.05,0-.05.09-.05.14s.09,0,.19.09c-.24,0-.43,0-.43-.28,0,0-.1-.1-.15-.1s0,.1-.09.1v.05c0,.33.09.67-.39.71.15,0,.39.15.39.2,0,.24.09.53-.24.67,0,0,0,0,0,.1a2.6,2.6,0,0,0-.05.62,0,0,0,0,0,.05.05c.43.38-.05.81,0,1.25,0,.09-.14.24-.24.28s-.29.29-.38.53-.24.19-.39.29,0,0,0,0a1.45,1.45,0,0,1,.38-1.06h.1a.22.22,0,0,0,.19.1c0-.19.43-.29.28-.62,0-.1-.19-.29-.28-.29s-.48,0-.53.29c0,.09-.05.28-.14,0v0c-.1,0-.15,0-.25-.1.15-.1.25-.19.39-.29s.05,0,.09,0-.09-.09-.14-.09-.19,0-.29-.1-.28-.09-.19.15c0,.09-.19.24-.34.24s-.09,0-.14.14a.5.5,0,0,0-.1.29,1.2,1.2,0,0,1-.19-.29c-.09-.24-.24-.14-.43-.14s-.29.57-.67.43l-.05.05.1.09a.83.83,0,0,0,.24.15l-.29.14c-.43.14-.43.29-.19.62a3,3,0,0,1,.28.53c.05,0,0,.19-.09.29S29,38,28.9,38a.66.66,0,0,0-.19.14v-.24l.14-.14a.16.16,0,0,1-.14-.05v-.14c0-.05,0-.15,0-.19a1,1,0,0,0-.28-.2.38.38,0,0,0-.1.24,4.25,4.25,0,0,0-.05.82.46.46,0,0,1-.19.24.35.35,0,0,0-.19-.1.18.18,0,0,0-.15.05c0,.19,0,.43-.09.63-.05,0-.05.14-.1.19a1.78,1.78,0,0,0-.48.33,7.64,7.64,0,0,0-.62.68s-.05.14,0,.14a.38.38,0,0,0,.29.19l.43-.29h.24c0,.1.05.24,0,.29a1,1,0,0,1-.53.15.69.69,0,0,0-.67,1c0,.15,0,.29,0,.39v.14s.09,0,.09-.09.19-.05.29-.1a.27.27,0,0,0,0-.19c0-.1,0-.19,0-.29.1.05.14.14.19.19a.88.88,0,0,0,.34.1c.09,0,.29-.1.19.14a.53.53,0,0,1,.14.1.24.24,0,0,0,.15.09l-.15.15h-.19c0,.38-.14.14-.29.09s-.24,0-.38-.09a.49.49,0,0,1,0,.24,0,0,0,0,0,.05,0c.24-.15.19.09.28.14a1.1,1.1,0,0,0,.29.19c.15.05.24.05.39.1a2.91,2.91,0,0,1-.34.38h-.14s.09.15.14.15a2.75,2.75,0,0,1,.48.33.31.31,0,0,0,.53-.14,7.16,7.16,0,0,0,.48-1s-.1-.15-.15-.24-.19-.1-.24-.19,0-.1,0-.2a.17.17,0,0,1,.14,0c.1.05.19.15.29.19.33.24.33.34.09.63,0,0-.14.14-.14.19a1.53,1.53,0,0,1-.48,1.1,11.65,11.65,0,0,1-.62,1.06,2,2,0,0,1-.44.48c-.38.53-.81,1.1-1.2,1.63-.19.24-.28.24-.48,0s-.24-.24-.33,0-.39.24-.63,0c0,0-.19,0-.28,0s-.15.1-.24.15.09.09.14.09h.14a.21.21,0,0,0,0,.15c-.2.19-.1.19.09.19h.19c.1,0,.2.05.29.05a.5.5,0,0,1-.19.24,5.87,5.87,0,0,1-1,.52.14.14,0,0,1,0-.09c0-.1.1-.19.1-.29s.05-.29-.24-.29c-.1,0-.19-.14-.34-.19a1.52,1.52,0,0,0,.19-.34s.05-.09.05-.14-.19,0-.19,0c-.19.24-.53.38-.48.72,0,0,0,.1-.05.1-.29.33-.05.52.15.76a2.46,2.46,0,0,0,.09.29c-.14,0-.24-.05-.33-.05s-.1-.14-.15-.14,0,0-.09-.1v.1c-.1.48-.29.82-.82.91a.85.85,0,0,0-.1.53,1,1,0,0,1-.09.82.16.16,0,0,0-.05.14.77.77,0,0,1-.53.86c-.33.1-.53,0-.53-.38,0-.1-.14-.19-.24-.29,0,.1-.09.15,0,.24a.86.86,0,0,0,.09.34.79.79,0,0,0,.15.19c-.15,0-.34.05-.44,0a.51.51,0,0,1-.09-.53,1.88,1.88,0,0,0,0-.72c0-.14-.15-.19-.24,0s-.2.15-.34,0-.29,0-.38.19a4.15,4.15,0,0,1-.48.68,13.35,13.35,0,0,1-1.25,1,.38.38,0,0,0-.1.2s.1.09.19.14.15.05.2.05-.1.14-.2.14c-.81.24-1.63.39-2.35.67-1,.39-2.06.15-3,.44a3,3,0,0,0-.67.24H11c0-.1-.14-.15-.19-.24-.29-.39-.48-.39-.91-.29a1.57,1.57,0,0,1-.48,0,5.18,5.18,0,0,0-1.2.09,1.48,1.48,0,0,1-1-.19,2.51,2.51,0,0,0-1.54-.48,1,1,0,0,1-1-.43c-.29-.39-.58-.72-.82-1.11a14.13,14.13,0,0,1-3-5.37A11.55,11.55,0,0,1,.24,44.6C.19,44,.1,43.49,0,42.92V40.56C.1,39.94.24,39.32.29,38.69ZM9,30.53a.46.46,0,0,0,.19-.09,1.31,1.31,0,0,1,.1.48.52.52,0,0,1-.15.33c0,.05-.14.19-.19.19s-.24-.14-.24-.24a2.18,2.18,0,0,1,0-.57c0-.05.1-.1.1-.1S8.93,30.58,9,30.53ZM9.84,49.4c.05,0-.05.09-.09.14a1.92,1.92,0,0,0-.05-.24.33.33,0,0,1,.05-.19C9.79,49.25,9.84,49.3,9.84,49.4Zm.87-21.27V27.7a.17.17,0,0,1,.14.05l.24.24a1.08,1.08,0,0,1,.14.19c-.09.09-.24.19-.33.29s-.1,0-.15,0A.73.73,0,0,0,10.71,28.13Zm1.2-1.06c-.1-.14-.34-.28-.34-.43a1.59,1.59,0,0,1,.24-.62s.14,0,.14.05.15.33.2.57C12.05,26.79,12,26.93,11.91,27.07Zm8.16,23.86c.24.15.09.24,0,.34s0,.19,0,.29l.14-.15.34-.19c0,.1,0,.19.09.29v.09a.18.18,0,0,1,.1,0c.05-.15.19-.39.14-.48a1.87,1.87,0,0,0-.57-.44A1.53,1.53,0,0,1,20.07,50.93Zm1.72-2.16s-.09.15-.09.19.09.15.19.2a.17.17,0,0,0,.05-.1Zm3-1.53a.92.92,0,0,0,.29.33,1.93,1.93,0,0,0,.19-.33c0-.05-.1-.15-.19-.24C24.91,47.09,24.77,47.19,24.77,47.24Zm1-1.88c-.1-.09-.15-.19-.24-.24a1,1,0,0,1-.29.24c.1,0,.14.1.24.15Zm1,.53c.05,0,.1,0,.1-.09a.07.07,0,0,0,0-.1c-.38-.1-.43-.38-.48-.72a.16.16,0,0,0-.05-.14s0,.09-.09.14-.1.1-.1.14a1.55,1.55,0,0,1-.82.87l0,.09a4.52,4.52,0,0,0,.91.53s.24-.09.33-.19,0-.14,0-.24-.09-.19,0-.19.14-.1.24-.15Zm-.33-2.83c-.1-.24-.29-.19-.43-.14s-.1.14-.15.28l.15.1c.14-.19.14,0,.19.1s.09.19.19.19.19,0,.1.19v.14s.09,0,.14-.09,0-.1,0-.24A1.91,1.91,0,0,1,26.5,43.06Zm0,1.34c-.05,0-.1.05-.15.05s0,.1.15.15.19,0,.29,0,.09,0,.09,0,.19.24.29.34,0,.14.1.24,0,.09.09.14.1,0,.15-.09a.35.35,0,0,0-.1-.53c-.24-.15-.58-.29-.86-.48C26.55,44.36,26.55,44.36,26.5,44.4Zm.62-2.78c-.09-.1-.19-.14-.29-.24v-.1a.69.69,0,0,0,.24-.19c.05,0,.1-.05.1,0l.14.15A1.13,1.13,0,0,1,27.12,41.62ZM27.51,44l-.44.29a1.68,1.68,0,0,0,.44.19s.09-.09.14-.19A1.11,1.11,0,0,0,27.51,44Zm1.2-2.78-.1-.1L28.47,41c0,.09-.1.14,0,.24s0,.24,0,.33a1.41,1.41,0,0,1-.39-.09l-.43-.15s-.14-.14-.14-.19.09-.14.14-.24c.05.1.14.15.14.19.1.2.2.2.29,0a.16.16,0,0,0,.05-.14c.14-.1.29-.29.34-.24s.24.24.33.38S28.75,41.14,28.71,41.19Zm-.63-.82h0c0-.14-.43-.09-.14-.38.05-.05,0-.19,0-.29a.51.51,0,0,0,.19.24.8.8,0,0,0,.34.05A2.33,2.33,0,0,1,28.08,40.37ZM28,39c0-.05,0-.1.1-.15a.54.54,0,0,1,.14.2.58.58,0,0,1-.14.09C28.08,39.12,28,39.08,28,39Zm.34,3.79c-.1-.1-.19-.14-.24-.19s.1-.1.1-.1a1.24,1.24,0,0,1,.24.19Zm1.3-1.3a2.09,2.09,0,0,0-.34-.33c-.1-.1-.14-.15-.24-.24.1,0,.14-.05.24-.1l.29-.14a.58.58,0,0,0-.05.29s.1.09.1.14.14.24.19.38a.62.62,0,0,0-.1.15C29.71,41.57,29.71,41.52,29.67,41.52Zm.24-4.41s0,0,0,0a.43.43,0,0,1-.24.09s-.1,0-.1-.09c0-.2-.05-.29-.29-.2-.05,0-.09-.09-.14-.09s.14-.1.24-.19A4.71,4.71,0,0,1,29.91,37.11Zm-.48,4.51v-.14s.09.09.09.14.05.24.1.38h-.1A.85.85,0,0,1,29.43,41.62Zm.43-.72c0-.24,0-.43-.29-.48v-.1c.14-.19.34-.38.48-.57s.1,0,.14-.1a2.25,2.25,0,0,0,.15-.19,1.24,1.24,0,0,1,.43.38c.05,0-.05.15-.1.24s-.24.39-.33.58-.24.34-.39.53C29.91,41,29.86,41,29.86,40.9Zm.24-.48a1.92,1.92,0,0,0,0-.24c0-.1-.15-.14-.2-.24a.8.8,0,0,1-.19.29c0,.05.15.05.19.09S30.05,40.42,30.1,40.42Zm.09-2.83a.39.39,0,0,1-.19-.1c.1-.05.19-.14.29-.19s.05,0,.14.05Zm.24-8.16c.05,0,.15,0,.2,0a3,3,0,0,0,.48-.24s0,0,.09-.09-.09-.1-.14-.1l-.48.15c-.1,0-.15.09-.19.14A.19.19,0,0,1,30.43,29.43Zm.05,7.1a.14.14,0,0,1-.09-.05c.09,0,.19-.14.28-.19s.1.05.2.1A1.65,1.65,0,0,0,30.48,36.53Zm.67-.19c.05-.1.15-.14.25-.24a.19.19,0,0,0,0,.1c-.09.09-.14.19-.24.28C31.15,36.39,31.11,36.34,31.15,36.34Zm.77-2.5c-.09,0-.19.1-.19.15s.05.09.1.19c.09-.1.19-.14.28-.24C32,33.89,32,33.84,31.92,33.84Zm0-1.1a.14.14,0,0,0,0,.09c.15.25.39.25.53,0,0,0,0-.14-.05-.23s-.09,0-.09.09-.1.19-.2,0c0,0,0,0-.09,0S31.92,32.69,31.88,32.74Zm.47-2.69h-.09a.18.18,0,0,0-.15-.05.32.32,0,0,0,.1.19,2.79,2.79,0,0,0,.39.2c.14,0,.28.05.33,0s.24-.24,0-.44c0,0,0-.14.05-.24s0-.14,0-.24-.25-.09-.29,0-.29.09-.39-.1-.14-.1-.14,0a.4.4,0,0,0,0,.34c.05.09.09.19.14.28S32.4,30.05,32.35,30.05Zm-.24,1.25s.1.05.15.05a1.27,1.27,0,0,0,.24-.2s0,0-.1-.09S32.21,31.2,32.11,31.3ZM33.7,20.93a2.31,2.31,0,0,1-.14-.19s0,0,.09,0a.93.93,0,0,0,.34.14A2,2,0,0,1,33.7,20.93Zm.24,1.34c.05.1.1.15.1.24s0,.1-.1.1,0-.1-.1-.1S33.89,22.32,33.94,22.27Zm.34-4.46c-.05.29-.1.58-.15.91,0,0,.1.1.15.05s.33-.19.48-.29a.19.19,0,0,1,0-.14.16.16,0,0,0-.14-.05c-.19,0-.34-.05-.19-.29.05-.05,0-.19,0-.33C34.32,17.76,34.28,17.76,34.28,17.81ZM35,19.87a.55.55,0,0,1-.09-.28c-.05,0,.09-.1.14-.1s.1.1.15.1.09.14.09.19S35.14,19.87,35,19.87Zm1.44-1.77c-.09-.15-.24-.34-.33-.48l.14-.15.15.15a3.1,3.1,0,0,1,.14.43A.17.17,0,0,1,36.48,18.1Zm.72-4.37a1.88,1.88,0,0,1-.24.14,1.27,1.27,0,0,1,.2.24s.09-.14.14-.19Zm1.3-4.8c0,.05.1.09.1.14a1.61,1.61,0,0,1-.1.53,1.49,1.49,0,0,1-.34-.29C38.31,9.17,38.4,9,38.5,8.93ZM45.94,8s-.14-.1-.19-.15a3.67,3.67,0,0,1,.38-.24.39.39,0,0,1,.15,0C46.13,7.82,46,8,45.94,8Zm.43-.53a.35.35,0,0,1,.1.19.35.35,0,0,1-.1.19s0-.14,0-.19S46.37,7.54,46.37,7.49Z"/>
	<path d="M52.8,31.83a.63.63,0,0,0-.09.57.46.46,0,0,1-.05.34,9,9,0,0,1-.19,1c0,.24,0,.48.14.57,0,.53-.67,1.2-1.54,3.41a1.9,1.9,0,0,1-.57.91,1.25,1.25,0,0,0-.24.44,3.08,3.08,0,0,1-.34.52c-.09.1-.05.15.1.2-.19.14-.48,0-.67.24,0,0-.1,0-.1,0s0-.15-.1-.24c0,.14,0,.28-.09.43a.37.37,0,0,1-.29.38.88.88,0,0,0-.58.29c0,.05-.09.05-.14.1a1.87,1.87,0,0,0-1,1.15.35.35,0,0,1-.24.05c-.19,0-.19.24-.34.28s-.09.05-.14,0,0-.09,0-.14a4.6,4.6,0,0,0,.53-.48v0s.1,0,.14-.1v-.14s0,0,0,0a.11.11,0,0,0-.1.1v.14c-.34-.14-.58.1-.87.19a.46.46,0,0,0-.09.19,1,1,0,0,0,0,.39,3.2,3.2,0,0,0-1.1.53s0,.14,0,.19a.24.24,0,0,1-.24.19.84.84,0,0,0-.33-.1,2.67,2.67,0,0,0-.34.29,3,3,0,0,1-.38.15L43,43.73a1.44,1.44,0,0,1-1,.43.25.25,0,0,1-.15.05,2.31,2.31,0,0,1-1.48.15A3.13,3.13,0,0,1,39.31,44c-.29-.19-.57-.29-.86-.48s-.39-.33-.63-.48a5.91,5.91,0,0,1-1.34-1.53,2.72,2.72,0,0,1-.38-.72c-.1-.2-.2-.39-.34-.63a5.65,5.65,0,0,1-.53-.81c-.09-.1-.19-.24-.29-.34a1.06,1.06,0,0,1-.28-.43,8.22,8.22,0,0,1-.34-3.41,10.42,10.42,0,0,1,1.1-3.79c.24-.53.53-1,.77-1.54a5.64,5.64,0,0,1,.72-1.3,18.85,18.85,0,0,1,1.39-1.87l.29-.29a19.94,19.94,0,0,1,2.07-2.44,12.4,12.4,0,0,1,1.44-1.35A3.94,3.94,0,0,1,43,22c.29-.14.62-.38.91-.52L45,20.83s.14,0,.19,0a1,1,0,0,0,.72.19,1,1,0,0,1,.67.29c.15.19.29.33.43.52v.1c-.24.38-.24.38.1.67.1.05.19.15.34.15a5.87,5.87,0,0,1,1.15.48,1,1,0,0,0,.38.09,1.22,1.22,0,0,1,.91.39,3.62,3.62,0,0,1,.87,1,1.42,1.42,0,0,0,.24.34,12.72,12.72,0,0,1,.91,1.44,2.53,2.53,0,0,1,.29.81c0,.05,0,.15.09.2a.57.57,0,0,1,.15.57.73.73,0,0,0,.09.43.18.18,0,0,1,.05.15A6.12,6.12,0,0,0,52.71,30v.87a1.29,1.29,0,0,0,.09.72C52.85,31.63,52.8,31.78,52.8,31.83ZM48.58,31c0-.81,0-1.68,0-2.49,0-.58,0-.58-.34-1a2.64,2.64,0,0,0-.62-.63c-.29-.14-.63-.24-.91-.38s-.29-.14-.48-.05a.56.56,0,0,1-.48-.09.54.54,0,0,0-.77.14c-.24.29-.48.58-.72.82a2.38,2.38,0,0,0-.48.76,1,1,0,0,0-.63.44.32.32,0,0,1-.19.24,1.41,1.41,0,0,0-.48.57.3.3,0,0,1-.29.24.49.49,0,0,0-.33.19c-.24.34-.48.73-.72,1.11a.9.9,0,0,0,0,.38c0,.05,0,.05-.05.1a5,5,0,0,1-.62.82,1.76,1.76,0,0,0-.44.62c-.14.53-.48,1-.62,1.54a5.36,5.36,0,0,1-.24.48c0,.19-.14.28-.24.43a.92.92,0,0,1-.1.81.87.87,0,0,0-.14.48,2.43,2.43,0,0,0-.1.58,3.28,3.28,0,0,0,1.11,3,1,1,0,0,0,1,.28,7.49,7.49,0,0,0,1.1-.38,14.13,14.13,0,0,0,2.16-1,10.66,10.66,0,0,0,1.25-.67.62.62,0,0,0,.24-.24,10,10,0,0,0,1.05-1.49,2.71,2.71,0,0,1,.29-.43A3.1,3.1,0,0,0,47.33,35a2.09,2.09,0,0,1,.24-.43c.1-.24.24-.48.34-.77A7.92,7.92,0,0,0,48.34,32c0-.14,0-.29.09-.39S48.58,31.2,48.58,31ZM44,15.41a2,2,0,0,1,.52.62,1.54,1.54,0,0,1,.34,1.68c-.05.05-.1.24-.19.39a.57.57,0,0,1-.39.48,1.21,1.21,0,0,0-.48.38.74.74,0,0,1-.81.58.9.9,0,0,0-.24.05h-.29a2.09,2.09,0,0,1-1.25-.53,3.56,3.56,0,0,0-.57-.63,10.51,10.51,0,0,1-1.06-1.05v-.67c0-.2,0-.39,0-.63a1.68,1.68,0,0,1,.57-.91,1.84,1.84,0,0,1,.92-.77h.33Zm-2.4,27.94a.76.76,0,0,0-.24-.19,2.24,2.24,0,0,0-1.59,0,.2.2,0,0,0-.14.14c0,.15.05.19.14.24a2,2,0,0,0,1.39.1c.1-.05.2-.05.29-.1Zm4.22-17.67a.67.67,0,0,0,.24.19,6.6,6.6,0,0,1,1.49.72,1.07,1.07,0,0,0,.58.29,3.48,3.48,0,0,0-.72-1.29.62.62,0,0,0-.63-.15.64.64,0,0,1-.43,0A.57.57,0,0,0,45.84,25.68Zm5.57-6.05c0,.05-.14.05-.29.05s-.53-.05-.77-.05-.43.05-.62.05a2.31,2.31,0,0,1-.67-.33c-.39-.34-.82-.58-1.2-.92s-.77-.76-.82-1.29c0-.24.05-.53.05-.72V16a.21.21,0,0,1,0-.24c.24-.2.29-.44.48-.53a.87.87,0,0,1,.43-.29h.77s0,.05.1.05a1.24,1.24,0,0,0,0,.24c.1,0,.1,0,.15,0v0l0-.1a6.08,6.08,0,0,1,2,1.2l.15.15a3.32,3.32,0,0,1,.67,1.34v1C51.79,19,51.6,19.3,51.41,19.63ZM49.63,39.12c-.24,0-.24.15-.28.29s0,.15,0,.19.15,0,.24.1Z"/>
	<path d="M71.62,50.45a.72.72,0,0,1-.48.34.45.45,0,0,0-.48.33.88.88,0,0,1-.63.44s-.09,0-.19,0-.09.2-.09.34,0,.05-.1.05a1.48,1.48,0,0,0-.63.38,1.33,1.33,0,0,1-.67.19c-.14,0-.33,0-.48,0s0,.19,0,.24a.92.92,0,0,1-.53.1,1,1,0,0,0-.86.33,3.24,3.24,0,0,0-1.11,0h-.09a6.56,6.56,0,0,1-2.83-.86,4.91,4.91,0,0,1-.92-.87,3.42,3.42,0,0,1-.52-.81c-.1-.15-.29-.39-.2-.58a.27.27,0,0,0,0-.19c-.72-.77.57-7.1.33-7.78a12.77,12.77,0,0,1,.72-3,12.76,12.76,0,0,1,.48-1.54,17.46,17.46,0,0,0,.58-2.21c.14-.67,0-.67-.53-.86A3,3,0,0,0,61,34.42a3.2,3.2,0,0,1-.67.14,1.57,1.57,0,0,1-.72.1c-.1,0-.15.05-.15.14s0,.34.1.44c.19-.05,0-.34.34-.39a2.57,2.57,0,0,1-.34,1s-.19.14-.24.19-.05-.09-.14-.09-.1-.05-.15.09a.3.3,0,0,0,.29,0,.79.79,0,0,0-.29.39c-.05,0-.09.09-.09.24,0,.33-.58.62-.24,1,.19.09.19.19.09.33s-.09.29-.14.48a.22.22,0,0,1-.29.15.2.2,0,0,0-.14.09c-.1.15-.53,1.87-.63,2a.31.31,0,0,0-.09.34.77.77,0,0,1-.1.14c0,.14-.14.24-.14.38s-.1.29.09.34,0,.14,0,.29a.26.26,0,0,0,.19-.15c0,.1.1.15,0,.2s-.09.19-.09.38a2.14,2.14,0,0,1-.24.53.73.73,0,0,0-.24.38.85.85,0,0,0-.68.43c-.28,0-.28,0-.52-.28-.1,0-.24,0-.34.28s-.19.2-.34.29,0,.19,0,.34c-.24.33-.24.33-.48.38a.43.43,0,0,1-.09.29c0,.19-.15.38-.34.38a.29.29,0,0,0-.24.1,3.35,3.35,0,0,0-.38-.19c-.15.24-.48.29-.58.62l-.14,0c-.2,0-.68,1.15-.87,1.1a3.36,3.36,0,0,1-.24.29c0,.1-.09.19-.24.19,0-.19.19-.28.24-.52.05,0,.1-.1.05-.2a.61.61,0,0,0-.14.34.4.4,0,0,1-.24-.05c.33-.77,1.1-2.49,1.39-3.31a2.07,2.07,0,0,0-.43-.48,1,1,0,0,1-.1-.77,2,2,0,0,0,.14-.53c0-.33.2-.57.29-.86a.18.18,0,0,1,.29,0c.1.14.24.14.38.19a5.87,5.87,0,0,0,.48-1.1c.05-.15.44-1.92.48-2.07s.2-.57.29-.81A7.2,7.2,0,0,1,55,36.48c.09-.24.14-.48.24-.76-.1,0-.15,0-.24,0v-.19h-.24s-.05,0,0-.15a8.18,8.18,0,0,1,.67-.62,1.29,1.29,0,0,0,.24-.43c.24-.72.43-1.49.67-2.16a15.13,15.13,0,0,1,1-2.41s0-.14,0-.19a1.87,1.87,0,0,1,.19-.72c.05-.09.1-.29.15-.38s0-.1.09-.19.24-.34.19-.58a.16.16,0,0,1,.05-.14,2.07,2.07,0,0,0,.39-.77.94.94,0,0,1,.19-.48.46.46,0,0,0,.09-.48c.15,0,.24,0,.29-.05.29-.43.82-.62.15-.48l0,.05a.53.53,0,0,0-.53.29h-.24c0-.44.34-.44.53-.63,0-.14-.1-.14-.19-.09a1.93,1.93,0,0,0-.53.24c-.1,0-.1.14-.15.19s-.14.19-.19.24a2.45,2.45,0,0,0-.48.72c-.05.09-.14.14-.19.24s-.14.19-.24.29-.43,0-.67-.15a1.72,1.72,0,0,1-.67-.67,3.43,3.43,0,0,1-.29-.19v-.19a1.22,1.22,0,0,0-.19-.53,2.12,2.12,0,0,1-.58-1,4.34,4.34,0,0,0-.29-.72.33.33,0,0,1,.1-.53c.43-.38.86-.77,1.25-1.15.09-.05.14-.1.24-.15a3.69,3.69,0,0,0,.81-.62,4.23,4.23,0,0,0,.67-.34c.05,0,.1-.09.15-.14a12.35,12.35,0,0,1,2.25-1c.29-.09.63-.29.92-.38a13.61,13.61,0,0,1,2.59-.87c.43-.09.91-.28,1.34-.38.1,0,.29,0,.43,0a16,16,0,0,1,3.32-.05,10.09,10.09,0,0,1,2.93.68,3.26,3.26,0,0,1,1.68,1.44c.24.48.57,1,.81,1.44a3.66,3.66,0,0,1,.29.91,7.9,7.9,0,0,0,.34,1,2.58,2.58,0,0,1,.28,1.58,4,4,0,0,1-.33,1c-.15.19-.19.48-.34.67a1.56,1.56,0,0,1-.29.72,3.74,3.74,0,0,0-.57.87c0,.09-.15.14-.19.24a2.91,2.91,0,0,1-.77.67c-.1.05-.15.19-.24.29a1,1,0,0,1-.24.38c-.1.05-.19.14-.19.19.09.24-.1.34-.2.48,0-.09,0-.14-.09-.19a.47.47,0,0,0-.39.43c-.33.05-.62.1-.77.44a.37.37,0,0,1-.14-.29c-.43.19-.86.43-1.3.62-.09-.19,0-.19.1-.24a.25.25,0,0,0,.14-.24.2.2,0,0,0,0-.14c0-.05,0-.05-.1-.05a1,1,0,0,0-.29.19c-.09.05-.14.15-.24.1s-.33.14-.48.19a.83.83,0,0,0-.33.38H67s-.05.15,0,.19a2,2,0,0,0,.29.72,5.32,5.32,0,0,1,.24,1.16,12.3,12.3,0,0,1-.05,1.82,16.78,16.78,0,0,0-.34,2.11c-.09.53-.14,1-.19,1.54,0,.05,0,.05-.1.1s-.19.14-.19.24,0,.24,0,.43-.14.09-.24.09v.1a.59.59,0,0,1,0,.72.5.5,0,0,0-.1.29c0,.09-.09.19-.14.29a1.26,1.26,0,0,1-.53.76.32.32,0,0,0-.14.24c-.1.24-.2.48-.29.77a4.2,4.2,0,0,1-.39,1,6.47,6.47,0,0,0-.57,1.78V46c.14.33.14.81.29,1.15,0,.1.09.14.09.24s.1.38.19.48a7.42,7.42,0,0,0,1,1.1.44.44,0,0,1,.29.2,1.77,1.77,0,0,0,.34.24c.14,0,.24.09.38.14a2.65,2.65,0,0,0,1,.53.17.17,0,0,1,.1,0v.14l0,.05h-.15a12.8,12.8,0,0,1-2.4-1.39,12.07,12.07,0,0,1-1-1.16.66.66,0,0,1-.14-.19c-.1.1-.1.15-.1.15s.1.19.15.28A1.69,1.69,0,0,0,65,49.25a3.43,3.43,0,0,0,1.2.82c.39.14.77.33,1.11.43a4,4,0,0,0,1.48.19,8.14,8.14,0,0,0,2.16-.24A3.09,3.09,0,0,1,71.62,50.45Zm-14-22.32h-.05s0-.05-.09-.05h.09A0,0,0,0,0,57.6,28.13Zm.62,9.41c-.33.05-.43.29-.52.53-.05.09-.05.14,0,.29a.68.68,0,0,1,.44-.39C58.32,37.92,58.32,37.78,58.22,37.54Zm.63-2.06c-.15.09-.19.14-.15.24S58.9,35.57,58.85,35.48Zm7.77-9.08a19.7,19.7,0,0,0,1.54-1.34A11.74,11.74,0,0,1,69.41,24c0-.09.09-.14.19-.09a6.89,6.89,0,0,1-1.15,1.24c0,.1,0,.1,0,.15v.19a3.43,3.43,0,0,1,.43-.43,2.87,2.87,0,0,0,.39-.39,1.73,1.73,0,0,0,.43-.38,4,4,0,0,1,.43-.29c0,.15,0,.39,0,.53s-.28,0-.19.1,0-.2,0-.24h.19c.15-.15.24-.2.29-.34A7.89,7.89,0,0,0,71.09,23a3.1,3.1,0,0,0,.29-.72c-.29-.33-.72-.19-1.06-.38.39-.1.62.19,1,.14a.38.38,0,0,0-.24-.33,2,2,0,0,1-.38-.1c-.2-.05-.29-.14-.44-.14a4.92,4.92,0,0,0-1.44-.19h-.24a1.35,1.35,0,0,0-.77,0s-.19,0-.28,0-.24,0-.39,0-.24.19-.38.19a2.23,2.23,0,0,1-.77.05,1.06,1.06,0,0,0-.91.24s-.15.14-.19.14c-.29,0-.39.19-.58.24v.19a.17.17,0,0,0,.1.05,1.58,1.58,0,0,1,.48-.1c.09-.09.14-.09.28.05-.09.05-.14.1-.19.1a2.24,2.24,0,0,1-.57.19c-.2.14-.29.24-.24.38a2.56,2.56,0,0,1-.05.58v.1a.84.84,0,0,1,.33-.1c.15.1.1.19.15.34a.28.28,0,0,1-.1.33c-.09.15-.19.05-.33,0s-.24,0-.39.15a.76.76,0,0,1-.09.28,1.2,1.2,0,0,1-.48.68.38.38,0,0,0-.1.33,1,1,0,0,1-.19.72.22.22,0,0,1,0,.15,2.38,2.38,0,0,1-.19,1c-.24.44-.39.87-.58,1.3V29a.68.68,0,0,1,.34.1c-.05.09-.1.14-.15.24a2.27,2.27,0,0,1-.38.38c-.05,0-.1.15,0,.19a8,8,0,0,0,1.25-.67c.19-.14.48-.24.72-.43A3.42,3.42,0,0,0,65,28.08a3.55,3.55,0,0,0,.77-.72c.24-.29.53-.53.72-.81C66.53,26.5,66.58,26.4,66.62,26.4ZM63.36,51.51c-.24-.39-.48-.72-.72-1.06-.1-.09-.14-.19-.24-.24A.36.36,0,0,0,62,50H62c0,.29.29.39.29.67,0,0-.24,0-.2.2a1.11,1.11,0,0,0,.34-.15,1.57,1.57,0,0,1,.48.48,4.52,4.52,0,0,1,.43.48C63.41,51.6,63.36,51.56,63.36,51.51Zm-.72-22.85h.1c-.05.05-.05.05-.05.09s0,0-.15,0ZM62.93,25a.16.16,0,0,0,0,.14s.14,0,.14,0a1.53,1.53,0,0,0,.43-1.3h-.19a1.07,1.07,0,0,0-.24.38C63.07,24.48,63,24.72,62.93,25Zm0,3.26v0ZM66,32.6a2.26,2.26,0,0,1,.77,1.29,2.1,2.1,0,0,0,.19.53.5.5,0,0,0,.1.24s.09,0,0-.1a2.47,2.47,0,0,0-.09-.67,1.17,1.17,0,0,1-.1-.58,4.61,4.61,0,0,0-.33-1.43c0-.05-.1-.05-.15-.1-.24,0-.43.1-.67.14a.24.24,0,0,0-.05.34C65.81,32.35,65.86,32.5,66,32.6Zm2.69-10.85c-.1,0-.1.14-.15.14a6.63,6.63,0,0,0-2.35.24.54.54,0,0,1-.48.05.53.53,0,0,1,.39-.24A6.07,6.07,0,0,1,68,21.75h.72ZM66,41.52a.55.55,0,0,0,.1-.38A.55.55,0,0,0,66,41.52Zm.24-1.29c0,.05.05.09.05.14s.14,0,.14-.09-.09-.05-.09-.1S66.29,40.23,66.24,40.23Zm.38-13.16v0a0,0,0,0,1,0,0v.05S66.62,27.07,66.62,27.07Zm2.64-5.18s-.14-.1-.24-.1a1.18,1.18,0,0,1,.87.1h-.63Z"/>
	<path d="M95,32.93s-.09.1-.14.1a11.42,11.42,0,0,0-1.54.81c-.19.39-.67.48-1,.77s-.63.58-1,.82c-.58.53-1.2,1-1.78,1.49-.58.33-1.15.86-1.68,1.2s-.67.57-1.11.57a.47.47,0,0,0-.28.1.49.49,0,0,0-.39.62,2.6,2.6,0,0,0,.15.82l-.58.57v.29a.53.53,0,0,1-.24.58,2.43,2.43,0,0,0-.62.62,1.6,1.6,0,0,1-.53.58l-.87.86a.85.85,0,0,0-.09.48c-.19.34-.58.43-.91.58-.1.05-.29.19-.39.09-.33-.09-.48.1-.67.2a1,1,0,0,1,0,.38c0,.1-.24.14-.34.19s-.28-.14-.38-.24a4.71,4.71,0,0,1-.29.48.94.94,0,0,0-.72.29,1.92,1.92,0,0,0-.19-.48c-.1,0-.24,0-.29.19a1.36,1.36,0,0,0-.43.43.54.54,0,0,1-.62.2.6.6,0,0,0-.48.09c-.29.29-.34.29-.72,0a1.28,1.28,0,0,1-.87.58,4.21,4.21,0,0,1-1.15.29c-.14,0-.24,0-.43,0s-.15.09-.19,0c-.29-.19-.48,0-.77.15s-.53-.1-.72.14c-.1,0-.1.19-.1.34a4,4,0,0,1-.62.14c0-.14,0-.19,0-.29s0-.14-.1-.19a.29.29,0,0,0-.29,0c-.09.1-.09.29-.24.19a.45.45,0,0,1-.38-.14,3.66,3.66,0,0,1-.72-.58,4.57,4.57,0,0,1-.58-.72,2,2,0,0,1-.48-1.44.41.41,0,0,0-.09-.33,3.84,3.84,0,0,1-.39-.63,1.33,1.33,0,0,0-.33-.52c-.1-.2-.15-.34-.2-.44A6.51,6.51,0,0,1,68,41.38a.67.67,0,0,1,.14-.38c.14-.2.19-.34.14-.48a.21.21,0,0,1,0-.29c-.19-.53,1.39-4.66,1.83-5.28a1.28,1.28,0,0,0,.24-.63.44.44,0,0,1,.14-.24,1.83,1.83,0,0,0,.58-.77c.14-.28.33-.57.48-.81a2.77,2.77,0,0,0,.57-.91,4,4,0,0,1,.72-.82s.1-.05.1-.1c.14-.72,4.94-5,5.18-5.32.67-.53,1.44-1.06,2.11-1.64a28.6,28.6,0,0,1,5.81-3.16c.39-.15.82-.44,1.25-.29a.72.72,0,0,0,.38-.19.77.77,0,0,1,.58-.05.88.88,0,0,1,.48.24,6.15,6.15,0,0,1,1.39.86,2.27,2.27,0,0,1,.34.15,3.51,3.51,0,0,1,1.73,1.87.78.78,0,0,1,.19.14c.1,0,.1.15.1.15s-.15.09-.2.09a6.71,6.71,0,0,1-1-.05,1.17,1.17,0,0,0-.91.1,10.89,10.89,0,0,1-1.16.43,1.6,1.6,0,0,1,0,.48,1.12,1.12,0,0,0-.86.15c-.48.24-1,.48-1.44.76a.38.38,0,0,0-.24.24,1.7,1.7,0,0,1-.77.53A23.45,23.45,0,0,0,83.47,28c-.43.33-.91.52-1.15,1,0,.05-.19.1-.24.15A5.92,5.92,0,0,1,81,30a5,5,0,0,0-1.34,1.3c-.38.48-.82,1-1.25,1.44-.05.05-.19.14-.19.24,0,.38-.34.58-.43.91a2.19,2.19,0,0,1-.29.48c-.14.15-.34.34,0,.53a2.83,2.83,0,0,1-.48.39.6.6,0,0,0-.33.43,1,1,0,0,1-.24.48,2.86,2.86,0,0,0-.58.81c-.1.2-.24.44-.34.63s-.33.33-.19.62a.37.37,0,0,1-.09.19c-.15.39-.2.82-.58,1.06,0,.1-.14.19-.14.29A2.93,2.93,0,0,1,74,41.38a.15.15,0,0,0,0,.1c0,.14.24.33,0,.48a.87.87,0,0,0-.14.52c0,.1.09.24.14.34s-.33.38,0,.62a2.53,2.53,0,0,0,1.68-.19,24.29,24.29,0,0,0,3.22-1.63c.33-.19.57-.43.91-.62.1-.1.19-.24.29-.34.33-.29.53-.77,1-1a5.46,5.46,0,0,0,1-1,9.81,9.81,0,0,0,.86-1,.18.18,0,0,0,0-.15c-.29-.14-.58-.33-.91-.48a1.12,1.12,0,0,1-.39.1.82.82,0,0,0-.62.14,1.15,1.15,0,0,1-.67.19c-.48-.09-.48,0-.82.24-.19-.24-.57-.33-.67-.67a2.65,2.65,0,0,1,1.78-.48,1,1,0,0,0,.62-.09c-.1-.24-.14-.29-.34-.29a4.68,4.68,0,0,0-.67.19,1.72,1.72,0,0,0-.67-.24,1.25,1.25,0,0,1-.48-.38,3.35,3.35,0,0,1-.72-1.25.76.76,0,0,1,.67-.58c1.39-.29,2.74-.81,4.08-1.2a1.82,1.82,0,0,1,.39-.09A16.6,16.6,0,0,0,85.92,32c.14-.05.38-.05.58-.1a5.67,5.67,0,0,0,1.63-.57,2.44,2.44,0,0,1,.81-.24,5.38,5.38,0,0,0,.63-.19.68.68,0,0,0,.34-.1c.33-.34.86-.24,1.29-.48.29.38.82.38,1.25.67a4.76,4.76,0,0,1,.86.48,1.05,1.05,0,0,0,.48.14c.24,0,.29.1.2.34ZM72.53,47.33a1.25,1.25,0,0,0,1,.05c0-.1,0-.24-.1-.29s-.29-.14-.33-.29a.77.77,0,0,0-.82-.28c-.1,0-.14,0-.19,0A5.06,5.06,0,0,1,70.7,46l-1-.63c0,.1-.1.19,0,.24a3.23,3.23,0,0,0,.53,1,.8.8,0,0,0,.86.48h.72ZM87.07,38c-.19-.14-.33,0-.48.1s0,0,0,.14a.44.44,0,0,0,.53-.14Z"/>
	<path d="M112.13,20.16c.19-.05.29.05.43.19-.1.2-.24.34-.34.53a10.91,10.91,0,0,0-1.77.91c0,.15.09.15.14.15H111l0,0v.09a.22.22,0,0,1-.19.1,4.79,4.79,0,0,1-.81.24,2.45,2.45,0,0,0-.92.53l.15.28a4.9,4.9,0,0,0-.82.2c-.19.09-.43.24-.67.38a.67.67,0,0,1-.1.29.45.45,0,0,1-.19.24,1.47,1.47,0,0,0-.67.57.36.36,0,0,1-.34.2.78.78,0,0,0-.62.48.73.73,0,0,1-.34.33,1.25,1.25,0,0,0-.62.29h-.1c-.33-.05-.52.14-.76.29a1.36,1.36,0,0,1-.87.29.82.82,0,0,0-.81.62,2.75,2.75,0,0,1-.68.86h.44c0,.05,0,.1,0,.15-.14.24-.33.43-.24.77a.66.66,0,0,0-.28-.05c-.15.09,0,.14,0,.24v.09a1,1,0,0,0-.43.68.59.59,0,0,1,.24.19v.1a1.73,1.73,0,0,1-.48.28.47.47,0,0,0-.38.43c0,.15-.15.29-.19.44s.14,0,.24,0,.14-.24.24-.34a1.2,1.2,0,0,0,.19-.29c.14.15,0,.29.09.39l0,0c.43-.2.87-.34,1.35-.53l1.92-.72.91-.29a1.36,1.36,0,0,1,.62-.05c.15,0,.29,0,.39,0a1.24,1.24,0,0,1,.24.19,4,4,0,0,0-.77.49.32.32,0,0,0-.1.19c0,.09.15.14.24.14s.29-.05.48-.1a3.25,3.25,0,0,0,.19.34.73.73,0,0,1-.14.19,1.9,1.9,0,0,0-.62.72s-.2.15-.24.2l-.39.23a.68.68,0,0,0,0,.34l-.1.1a3.86,3.86,0,0,1-.76.38,1.15,1.15,0,0,0-.63.53,1.83,1.83,0,0,1-.77.58,10.92,10.92,0,0,1-1.1.52c-.1.05-.19.15-.29.2a1.06,1.06,0,0,1-.72.24,1.09,1.09,0,0,0-.57.28,1.89,1.89,0,0,1-.87.44c-.29.09-.57.24-.86.33a.67.67,0,0,1-.29.1c-.29,0-.38.24-.53.53.1,0,.19,0,.29.09a2.24,2.24,0,0,0-.48,1c.1.1.19,0,.29,0,.33-.14.62-.29,1-.43a1,1,0,0,1,.24-.15,5,5,0,0,0,1.25-.43c.57-.24,1-.57,1.58-.77.34-.09.62-.24,1-.33a6.08,6.08,0,0,0,1.44-.67,11.08,11.08,0,0,1,1.3-.53.63.63,0,0,1,.28-.1,5.84,5.84,0,0,1,1.2-.53,7.43,7.43,0,0,0,1-.43c.48-.19,1-.34,1.44-.53.2,0,.39-.14.58-.19s.24,0,.29.19a1.84,1.84,0,0,1-.67.53,6.43,6.43,0,0,0-1.3.91,1,1,0,0,1-.24.15c-.1,0-.14.09-.14.19s.14.24.28.19a3.4,3.4,0,0,0,.44-.09,2.24,2.24,0,0,0-.24.28,6.14,6.14,0,0,0-1,.48c-.15.05-.24.2-.39.29,0,.15.24.19.1.39a1.22,1.22,0,0,1-.58.48,2.45,2.45,0,0,0-.62.43c0,.14.09.19.19.14a1.58,1.58,0,0,1,.29-.14c-.1.33-.1.33-.29.43a.5.5,0,0,0-.29.1c-.14.24-.43.28-.62.43a1.89,1.89,0,0,1-.77.24,4.35,4.35,0,0,0-.53.29,3.76,3.76,0,0,0-.57.38h-.1c-.19.19-.53,0-.67.29a4.15,4.15,0,0,1-.67.33,1.2,1.2,0,0,1-.53.2c-.1,0-.15,0-.19,0-.39.29-.87.44-1.2.72-.05.1-.2.1-.29.1s0,.24-.19.34A20.7,20.7,0,0,1,97,42.53a2.48,2.48,0,0,1-.58.15l-1.1.28a.11.11,0,0,0-.1.1,1.24,1.24,0,0,1-.38.62c-.1,0-.15.2-.24.29a5.57,5.57,0,0,1-.39.77c0,.1-.14.14-.19.19-.19-.14,0-.33-.09-.43a.21.21,0,0,0-.2.24,3,3,0,0,0-.19.58,1.7,1.7,0,0,1-.19.67c-.15-.1-.15-.19-.1-.29a4.9,4.9,0,0,1,.2-.82.8.8,0,0,1,0-.24c-.29.44-.24,1-.58,1.35l-.29-.15-.09.1-.15.72c-.14,0-.24.05-.38.05a2.94,2.94,0,0,1-.19.33.66.66,0,0,1-.48.39h-.58a.46.46,0,0,1-.38-.39,5.8,5.8,0,0,1-.05-1,7.64,7.64,0,0,0,.09-1.53s0,0,0,0c.2-.34,0-.77.2-1.15,0-.53.33-1,.28-1.49a1.48,1.48,0,0,0-.14-1.2.17.17,0,0,1,0-.14.82.82,0,0,1,.48-.34.42.42,0,0,0,.29-.29c.14-.57.29-1.15.48-1.73a6.86,6.86,0,0,0,.34-1,3.46,3.46,0,0,1,.24-.81l-.63-.77a1.53,1.53,0,0,0,.24-.14c.29-.15.53-.24.82-.39a.83.83,0,0,0,.33-.38c.15-.48.39-.92.58-1.4a2.25,2.25,0,0,0,.34-.81.35.35,0,0,1,.09-.24c.1-.1.15-.14.15-.29a1.15,1.15,0,0,1,.33-.62c.15-.15.29-.29.24-.53s0-.15.1-.24.24-.39.34-.58a.33.33,0,0,0,0-.19c0-.14,0-.29.1-.34.33-.28.29-.76.48-1.1s.38-.72.53-1.06a1.79,1.79,0,0,1,.09-.19,9.39,9.39,0,0,0,.68-1.34c0-.05,0-.15.09-.19a1.28,1.28,0,0,0,.24-.82v-.24c.19-.14.34-.38.58-.58a.84.84,0,0,0,.14-.24,5.31,5.31,0,0,1,.39-.91,2,2,0,0,0,.14-.48.64.64,0,0,1,.53-.57h.09a.93.93,0,0,1,.87,0c.33.2.67.29,1,.48s.57.1.86.24a.45.45,0,0,0,.34,0c.62-.24,1.24-.53,1.87-.77s1.34-.58,2-.82a7.09,7.09,0,0,0,1-.38,8.68,8.68,0,0,1,1.06-.34l.72-.29a5.7,5.7,0,0,1,1.58-.48,4.15,4.15,0,0,1,1.3-.14.8.8,0,0,1,.34.05.84.84,0,0,1,.14.19c-.14.05-.29.14-.43.19s-.29.05-.39.15-.09.09-.09.14,0,.1.09.14ZM97.68,36.82s0-.1,0-.24c-.29.05-.48.14-.53.38s0,.44-.14.63,0,.48-.2.67c0,0,0,.14,0,.14s.15,0,.15,0Zm2.16-5.19a3,3,0,0,0-.34.53c.2.1.29.05.29,0A1.48,1.48,0,0,0,99.84,31.63Z"/>
	<path d="M107.57,44.55V44.4a17.92,17.92,0,0,1,.33-3.21c.24-1.25,1.06-4.71,1.35-6,.48-1.92,1-3.84,1.44-5.76.33-1.25.57-2.64.81-3.89,0-.1,0-.1.1-.19s.29-.48.38-.72c.15-.72.34-1.44.48-2.21a1,1,0,0,1,1-.67,9.2,9.2,0,0,1,1.35.33c.33.15.57.34.57.72,0,.15.1.24.1.34s.14.24.24.24a2.65,2.65,0,0,0,.53.53.62.62,0,0,1,.19.43v.53a1.54,1.54,0,0,0,.24.48c0,.19.14.24.29.43a12.89,12.89,0,0,0,.72,1.44c.24.29.33.62.57.86s.24.48.39.72a1.51,1.51,0,0,1,.33.82,4.7,4.7,0,0,0,.48,1.44c0,.05.1.14.1.24a.64.64,0,0,1,.24-.34H120v.24c-.19.1-.19.15-.1.24a3.43,3.43,0,0,1,.15,1.06,1.88,1.88,0,0,0,0,.53l.09-.05a.8.8,0,0,0,.34.05c.14.09.14.09.24-.05v-.24l0-.1c.09.1.19.15.19.34a2.78,2.78,0,0,0,.14.53h.1s0-.15.14-.24c.24-.72.58-1.44.82-2.21.53-1.3,1-2.59,1.58-3.84a1.39,1.39,0,0,0,.15-.58.35.35,0,0,1,.09-.38c.24-.67.48-1.3.72-1.92s.39-1.2.63-1.87c.57-1.11,1-2.31,1.63-3.41a1.42,1.42,0,0,1,.24-.34,1.22,1.22,0,0,1,.86-.48.7.7,0,0,0,.39-.09h.09c.34.19.58.43.87.57a.89.89,0,0,1,.48,1c.72-.57.72,5.86,0,5.67v.24a1.27,1.27,0,0,0,0,.43.31.31,0,0,1-.1.24.7.7,0,0,0-.24.53c0,.19-.09.24-.24.43s-.33.29-.33.53a1.1,1.1,0,0,1-.39.81,2.72,2.72,0,0,1-.24.24.93.93,0,0,0,.48.15c-.09.24-.24.19-.38.09s-.24,0-.43.15-.15.24-.24.43c.09.05.09.05.09.14a3.56,3.56,0,0,0-.14.63c0,.09-.1.19-.19.24s0,.24-.15.33-.09.15-.09.24c-.24.1-.24.24-.29.39a.54.54,0,0,1-.43.57c0,.1-.24.15-.24.34.09,0,.09,0,.19,0s.24,0,.29.09a1.06,1.06,0,0,0,.57.1c.34-.1.39-.24.48-.72,0-.19-.09-.34-.38-.43a.64.64,0,0,1-.34-.15.7.7,0,0,1,.34-.14.84.84,0,0,1,.53-.1v.34a1.25,1.25,0,0,0,.33,1,.13.13,0,0,1,0,.19s-.09.14-.24.24a.91.91,0,0,0-.24.62,4.14,4.14,0,0,0,.1,1.06c0,.14,0,.24-.1.29a.35.35,0,0,1-.38-.05.1.1,0,0,0-.1-.1c-.14,0-.14-.14-.14-.24a2.19,2.19,0,0,0-.1-.38c-.09-.1-.14-.19-.24-.1-.14.24-.48.39-.33.82,0,.05,0,.24,0,.38s-.24,0-.34,0-.38-.33-.33-.57c.09-.05.19-.15.09-.24a.62.62,0,0,1,.24-.63c.15-.09.24-.14.34,0s.14.15.29,0a.5.5,0,0,1,.43-.24c.24,0,.29-.09.29-.33s0-.24,0-.39a.91.91,0,0,0-.39.15,1.29,1.29,0,0,1-1,.33.35.35,0,0,0-.38.39,2.32,2.32,0,0,1-.43.81c0,.1-.15.15-.15.34a1.48,1.48,0,0,1-.33.86c0,.1,0,.24-.15.34a.77.77,0,0,1-.14.29,3.59,3.59,0,0,0-.24.67v.24c-.19.29-.24.62-.43,1a1,1,0,0,1-.15.48c-.33-.19-.38,0-.57.24s0,.48,0,.72a2.39,2.39,0,0,1,.09.38.62.62,0,0,0,.34.72c.05,0,.14.1.14.15a2.23,2.23,0,0,0-.09.81c-.05.15-.15.39-.24.63a.47.47,0,0,1,0,.19.1.1,0,0,0-.1-.1,2.49,2.49,0,0,0-.09-.81c0-.05,0-.24,0-.24A.77.77,0,0,1,123,41v-.24h-.09c0,.09-.15.19-.15.33a5.46,5.46,0,0,0-.14.87s0,.09,0,.09a1.32,1.32,0,0,1,.09,1.2c-.09.24-.24.39-.24.58s0,.38,0,.62a.27.27,0,0,1-.09.24c0,.24-.24.39-.29.63-.34-.05-.24-.39-.48-.48a1.19,1.19,0,0,1-.48.67c-.1,0-.19,0-.19.14a7.92,7.92,0,0,1-.24,1h0c-.1-.14-.19-.33-.1-.48s-.09-.14-.09-.24c0-.38-.29-.57-.63-.33a.48.48,0,0,1-.72,0,3.55,3.55,0,0,1-.48-.82c-.57-1.77-1.1-3.6-1.68-5.37-.33-1-.81-1.83-1-2.79a14.34,14.34,0,0,0-.87-2,3.68,3.68,0,0,0-.38-.77h-.1a14.1,14.1,0,0,0-.72,1.73c-.33.91-1.15,3.93-1.39,4.8-.14.33-.24.67-.38,1s-.15.48-.24.72l-.48,1.2c0-.29.57-1.83.62-2.21.1-.1.1-.24.19-.34s0-.33-.09-.38a.81.81,0,0,1-.1-.67v-.24h0c-.09.09-.19.09-.19.19a2.21,2.21,0,0,0-.38,1.2,2.53,2.53,0,0,0-.24.62,1.29,1.29,0,0,1-.39.63c-.09.19-.24.24-.33.43a.88.88,0,0,0-.24.48c-.1.29-.15.72-.24,1,0,.09,0,.19-.1.24s-.14,0-.14-.15-.15-.33-.39-.33a5.34,5.34,0,0,0-.24.48,5.34,5.34,0,0,0-.19,1,3.56,3.56,0,0,1-.14.63,10.14,10.14,0,0,0-.15,1.29c-.09.24-.19.48-.48.48s-.24,0-.33-.09a.41.41,0,0,1-.15-.29c0-.34-.09-.58-.09-.91Zm2.06,2.73-.14.15c-.15,0-.15-.15-.15-.29A.18.18,0,0,1,109.63,47.28Zm.19-2.4c-.09,0-.09-.09-.09-.14a.39.39,0,0,1,.14-.24.27.27,0,0,1,.24.14C110,44.74,110,45,109.82,44.88ZM119,28.47a1.65,1.65,0,0,1-.24-.39C119,28.08,119,28.18,119,28.47Zm2.69,16a.36.36,0,0,0,.09-.19h-.33C121.58,44.5,121.68,44.55,121.73,44.5Zm2.88-8.74c0-.09,0-.14,0-.24-.1.1-.19.1-.19.15a1.8,1.8,0,0,1-.24.48C124.46,36.1,124.61,35.91,124.61,35.76Zm1,.24a.18.18,0,0,1-.15.1s-.14-.1-.14-.19a.56.56,0,0,1,.38-.48C125.66,35.62,125.57,35.76,125.57,36Zm.81.63a.18.18,0,0,0-.14.09.7.7,0,0,0-.19-.14c0-.19,0-.34.19-.43l.14-.15A.7.7,0,0,1,126.38,36.63Zm.34.57c0,.34,0,.34-.1.39C126.48,37.44,126.53,37.3,126.72,37.2Zm1.44-7a.36.36,0,0,0-.19-.09c.09,0,.09,0,.09-.15s.24-.09.34-.09l0,.09C128.3,30.1,128.21,30.15,128.16,30.24Zm-.1.63v-.29C128.21,30.72,128.21,30.82,128.06,30.87Zm.58,0V31a.3.3,0,0,1-.19.1s0-.1,0-.19Zm.53-2.45c.09-.34.19-.43.43-.34C129.41,28.18,129.36,28.32,129.17,28.42Z"/>
</svg>