<svg xmlns="http://www.w3.org/2000/svg" viewBox="0 0 846 75.23">
	<style>
		path {
			fill: #24292f;
		}

		@media (prefers-color-scheme: dark) {
			path {
				fill: #c9d1d9;
			}	
		}
	</style>
	<path d="M408.48,52.53a34.73,34.73,0,0,1,2.72-9.26c1.25-2.71,2.45-5.43,3.77-8.14.53-1.12,1.32-2.05,1.85-3.11a63.32,63.32,0,0,1,4.77-7.21,1.19,1.19,0,0,1,.33-.27A6.64,6.64,0,0,0,423.64,23a34.85,34.85,0,0,1,2.51-3.11c.27-.27.86-.34,1.32-.53,0,0,.2.19.2.33a4.53,4.53,0,0,1-1.12,2.05c-.2.13-.27.46-.33.73a2.25,2.25,0,0,0-.14.72.46.46,0,0,0,0,.4c.4.27.2.73.2,1.06a.43.43,0,0,1-.26.33,1.36,1.36,0,0,1-.2.33c.07.07.2.07.26.13s.07.14.07.2a8.81,8.81,0,0,1-.59,4.11,8.85,8.85,0,0,0-.6,1.19c-.13.39,0,.53.4.46s.33,0,.39.26a2.78,2.78,0,0,1-.46,1.79.59.59,0,0,0-.2.4c.07.33-.13.4-.33.33s-.4,0-.13-.2c.07,0-.07-.26-.13-.26a.84.84,0,0,0-.93.39c-.33.73-.59,1.39-.93,2.12-.13.26-.06.33.2.33a1.81,1.81,0,0,1,.8.27v.26c-.14,0-.4,0-.47-.07-.39-.53-1.05-.06-1.45-.46-.07.2-.13.4-.2.6s.2.2.33.2.27-.14.4-.2a.23.23,0,0,1,.2-.07c0,.07,0,.27-.07.27-.4.19-.4.46-.26.86s-.14.59-.53.72c-.2.07-.34.2-.14.4a.16.16,0,1,1-.2.2c-.26-.33-.39-.13-.46.13-.2.6-.79.93-1.12,1.46-.27.33-.67.86-.6,1.19a2.93,2.93,0,0,1-.13,1.32c-.07.2-.33.4-.4.66a3.17,3.17,0,0,0-.26,1.13.65.65,0,0,1-.47.73l-.06.06c-.07.47-.47.86-.33,1.33a1.32,1.32,0,0,1-.53,1.58.71.71,0,0,0-.2.47,1.79,1.79,0,0,0,.13.59c.07.27.2.53-.2.66-.06,0-.13.14-.06.14.19.72-.53,1.06-.6,1.65,0,.4-.07.66.2.93s.13.2,0,.33l-.27.26c-.19.14-.19.2,0,.33a.41.41,0,0,1,0,.4.61.61,0,0,0-.06.73c.06.13,0,.26,0,.46a2.3,2.3,0,0,0-.2.73c0,.13.2.33.33.46a3.11,3.11,0,0,1,.46.53c.07,0,0,.14-.06.14-.47,0-.07.39-.2.52l.07.07c.33-.13.33.13.39.27.13.52.27,1.05.4,1.58s-.07.73,0,1.06a1.1,1.1,0,0,1,0,.8v.13a1.61,1.61,0,0,1,0,1.45c0,.14.07.34.07.47s.19-.13.26-.07.33.27.26.33c-.13.47.07.66.47.8.06.06.2.2.2.26.06.46.39.4.66.33h.13c.6-.13.6-.13.46.47a.89.89,0,0,0,.33.92.9.9,0,0,1,.14,1.19v.13a1,1,0,0,0,.33.14c.06,0,.13-.14.13-.2,0-.33-.07-.66-.07-1v-.2c.14,0,.34-.07.4.06a2.61,2.61,0,0,0,1.39.6c.07,0,.13.26.27.4a1.06,1.06,0,0,0,.26.26,1.51,1.51,0,0,0,1.46-.46c1.39-1.52,2.78-3,4.23-4.5,3.38-3.44,5.76-7.48,8.14-11.65.33-.59.73-1.26,1.13-1.85a29.76,29.76,0,0,0,3.7-9c.6-2.18,1.39-4.3,2-6.49.26-.86.26-1.78.53-2.64.52-1.92,1.19-3.84,1.65-5.76.93-3.51,1.79-7,2.71-10.52.07-.33,0-.46-.39-.53A3,3,0,0,1,446.6,15a2.42,2.42,0,0,0-1.92,0c-.93.26-2,.33-3,.53a1.32,1.32,0,0,0-.46.2.65.65,0,0,0-.33.06c-.27.07-.53.07-.73.14a1.72,1.72,0,0,1-1.59,0c-.26-.07-.33,0-.46.19a.67.67,0,0,1-.66.34.4.4,0,0,0-.4,0c-.2.13-.4.19-.46-.07h-.14a.92.92,0,0,1-.72.93c-.14,0-.14.33-.2.52a.77.77,0,0,0-.07-.39c0-.13-.06-.2-.06-.33-.14.06-.4.13-.4.26s-.2.33-.47.27h-.13c-.73.66-1.59.19-2.38.33s-1.45-.27-2.05.33c0,0-.13,0-.13-.07-.14-.4-.47-.53-.86-.66-1.33-.46-2.72-.93-4-1.46a19.38,19.38,0,0,1-2.51-1.65c-.07,0-.14-.13-.14-.2a2.41,2.41,0,0,1,1.19-1.79A53.34,53.34,0,0,1,435.68,8.6c3.44-.66,6.82-1.39,10.19-2,2.05-.4,4.1-.67,6.15-1,2.25-.39,4.44-.92,6.62-1.32,3.51-.66,7-1.32,10.59-1.92a14.7,14.7,0,0,1,2.51-.13c1.06-.13,2.06-.4,3.11-.53a.71.71,0,0,1,.33-.07c2.32.13,4.5-.46,6.75-.73,2.65-.26,5.23-.72,7.88-1,.07-.07.07-.07.13-.07A1.27,1.27,0,0,0,491.4-.8h.79c.07.07.07.13.13.13a3.16,3.16,0,0,0,1.92.53c1.59,0,3.11.13,4.7.2.73.07,1.39.13,1.52,1.06v.53a10.39,10.39,0,0,1-1.32.53c-.2.06-.4-.07-.6-.2a1.3,1.3,0,0,0,.07-.33c-.07-.07-.13-.27-.2-.27s-.46.14-.46.2a5.69,5.69,0,0,0,.26.66c0,.07.07.14,0,.2s-.13.07-.2.13c-.79.4-.79.4-1-.46-.13-.53-.2-.59-.66-.33a13.61,13.61,0,0,0-1.19.79.28.28,0,0,1-.33,0c-.4-.06-.66,0-.66.47a2.66,2.66,0,0,1-.27.46,5.17,5.17,0,0,1-2.18,1.06,1.71,1.71,0,0,0-.53.13.39.39,0,0,1-.27.07,2.21,2.21,0,0,0-2.11.4,1,1,0,0,1-.4.06.31.31,0,0,0,.13-.2c.13-.06.27-.2.4-.26-.2-.13-.33-.33-.53-.4a.64.64,0,0,0-.46.27c-.14.13-.14.19-.33.13s-.4,0-.4.26v.2c-.07,0-.13,0-.13-.06-.4-.27-.67-.2-.8.26s-.46.26-.66.13c-.46-.33-.79-.2-1.19.2-.13.13-.33.27-.46.4s-.14.06-.2.06c-.33-.13-.73.07-1,.14s-.79-.07-1.12.2c-.07.06-.33.13-.4.06-.26-.2-.39-.06-.59.13a3.14,3.14,0,0,1-.27.47.56.56,0,0,1-.79.33,1.66,1.66,0,0,0-1.46.13,12.42,12.42,0,0,1-1.72.6h-.26c-.13-.07-.2-.14-.33-.2a2.66,2.66,0,0,0-.27.46,3,3,0,0,1,.07.33c-.07.13-.13.2-.2.33-.07-.06-.07-.2-.13-.2a.27.27,0,0,0-.2-.06c-.2-.07-.4-.07-.46-.2-.27-.27-.47-.13-.73.07-.07.06-.13.33-.33.06h-.07c-.07.46-.79,0-.79.53-.14-.07-.33-.07-.4-.13a2.61,2.61,0,0,1-.66-.53c-.07.26-.13.53-.2.73a.84.84,0,0,1-.2.26c-.07-.06-.07-.13-.13-.2a.49.49,0,0,0-.27-.26c0,.13-.06.2-.06.26s.06.2.06.27,0,.06-.06.13l-.07-.07c-.2-.26-.26-.13-.26.07s-.2.26-.4.07-.2-.14-.26-.2c-.27-.2-.53-.53-.93-.2-.13.13-.4.07-.53,0a1.87,1.87,0,0,0-1.79.79c-.06.07-.2.07-.26.07-.53-.33-.53-.33-.86.2a1.27,1.27,0,0,1-.73.39,2,2,0,0,1-.73.2c-.06,0-.13-.06-.2-.13s.07-.13.14-.13a.7.7,0,0,1,.33-.33c-.07-.07-.14-.13-.2-.13a1.22,1.22,0,0,0-.46.06c-.2.13-.34.33-.53.46s-.27.07-.27,0c-.2-.39-.53-.33-.86-.26a5.36,5.36,0,0,1-1.06,0,.73.73,0,0,0-.2.07c0,.33-.13.39-.39.39a.3.3,0,0,0-.27.2c0,.13.13.27.2.4a.53.53,0,0,1,.2.33c0,.13-.13.26-.27.46a1.6,1.6,0,0,0-.19-.33,2.65,2.65,0,0,0-.67-.26c-.06,0-.2.26-.26.33v.06c.4.14.33.53.46.8.07.06.07.2.07.26h-.07l-.33.53c.13-.06.33-.13.53-.2h.13c0,.07,0,.14-.06.14-.27.2-.27.39-.14.59s.2.73.34,1.06,0,.4-.27.53l-.4.2a.62.62,0,0,1,.07.2c.4-.2.33.13.4.33s.2.2.33,0h.13c.07.06.13.26.07.33-.33.2-.33.46-.2.79,0,.14-.07.27-.07.4s-.2.33-.33.46-.2.2-.4.27-.33.13-.33.46c-.06.6-.13,1.26-.2,1.85,0,.14,0,.27.07.33.33.47.07.93-.07,1.33,0,.06-.13.13-.13.06a1.12,1.12,0,0,0-1.19.07q-.39.3,0,.6c.27.06.27.2.13.39a3,3,0,0,1,.07.33.77.77,0,0,0,.33-.06c.07,0,.13-.07.26-.13v.33a2.57,2.57,0,0,0-.13.66c0,.06-.06.13-.06.2s-.14-.14-.14-.2a1.15,1.15,0,0,0-1.05-.66.31.31,0,0,0-.2.13.31.31,0,0,0,.2.13c.26.13.33.27.13.53-.07.07-.2.13-.2.27-.2.19-.27.13-.33-.07s-.2-.27-.27-.27-.26.14-.33.27a2.64,2.64,0,0,1-.46.13.07.07,0,0,0,.07.07,1,1,0,0,0,.39.13l-.39.4a1.37,1.37,0,0,0-.6.86.3.3,0,0,1-.26.2c-.6.06-.67.13-.67.72,0,.07.14.2.2.2a2.07,2.07,0,0,0,.6.2,3.58,3.58,0,0,1-.33,1c-.07.14-.2.2-.2.33-.07.33-.07.6-.53.33,0-.06-.07,0-.07.07.07.4-.13.53-.53.46l-.13.07v.33c.07.13.2.2.33.33.13.33.33.6-.26.66-.33,0-.33.34-.27.6s.14.66-.26.86c-.07.07,0,.26-.07.46a1.19,1.19,0,0,1-.13.47A3.11,3.11,0,0,1,452,35c-.13.33-.19.66-.33,1a.82.82,0,0,0,.07.93c0,.06-.07.26-.13.26-.33.07-.53.27-.2.6a.43.43,0,0,1-.2.59c-.13.07-.26.2-.46.34s-.07.06-.14.13h.27a2.58,2.58,0,0,0,.73-.4c.13-.13.33-.4.26-.46-.2-.33,0-.47.2-.53.4-.13.4-.4.46-.66a.36.36,0,0,0,.14-.27c.06.13.2.27.26.4v.26a.36.36,0,0,0-.06.2,3.66,3.66,0,0,0,.86,1.13c.59.33.26.86.46,1.25a3.74,3.74,0,0,1,.26,1.33c.07.53-.06.59-.53.53s-.33,0-.26.26.13.46.2.73a.14.14,0,0,1-.13.13.6.6,0,0,1-.34.07l-.19.2a.31.31,0,0,1,.19.13.24.24,0,0,1,.14.06c.53.27.53.27.79-.33l.2-.19c0,.06.07.19.07.26.19.66,0,1-.67,1.19-.06,0-.06.13-.06.2s.13.07.26.13c-.33,0-.59,0-.59-.4,0-.06-.14-.13-.2-.13s-.07.13-.13.13v.07c.06.46.13.93-.53,1,.2.07.53.2.53.27,0,.33.13.73-.33.92-.07,0-.07.07-.07.14a3.53,3.53,0,0,0-.07.86.06.06,0,0,0,.07.06c.59.53-.07,1.13,0,1.72,0,.14-.2.34-.33.4-.33.13-.4.4-.53.73,0,.13-.33.26-.53.4,0,.06-.07,0-.07,0a2,2,0,0,1,.53-1.46H452a.35.35,0,0,0,.27.13c.07-.26.6-.39.4-.86-.07-.13-.27-.39-.4-.39s-.66,0-.73.39c0,.13-.06.4-.2.07v-.07a.65.65,0,0,1-.33-.13c.2-.13.33-.26.53-.4a.26.26,0,0,1,.13-.06c-.06-.07-.13-.14-.19-.14s-.27-.06-.4-.13-.4-.13-.27.2c.07.13-.26.33-.46.33s-.13.07-.2.2a.76.76,0,0,0-.13.4,1.76,1.76,0,0,1-.27-.4c-.13-.33-.33-.2-.59-.2-.46,0-.4.8-.93.6l-.06.06.13.14a1.6,1.6,0,0,0,.33.19l-.4.2c-.59.2-.59.4-.26.86a4.83,4.83,0,0,1,.4.73c.06.07,0,.27-.14.4s-.26.26-.33.33a.71.71,0,0,0-.26.2v-.33l.2-.2a.23.23,0,0,1-.2-.07V51c0-.06.06-.2.06-.26a1.53,1.53,0,0,0-.39-.27.5.5,0,0,0-.14.33,6.77,6.77,0,0,0-.06,1.13.67.67,0,0,1-.27.33.45.45,0,0,0-.26-.13.26.26,0,0,0-.2.06c-.07.27-.07.6-.13.86-.07.07-.07.2-.13.27a2.28,2.28,0,0,0-.67.46,12.14,12.14,0,0,0-.86.93c0,.06-.06.2,0,.2a.56.56,0,0,0,.4.26l.6-.4h.33c0,.14.06.34,0,.4a1.38,1.38,0,0,1-.73.2,1,1,0,0,0-.93,1.39c.07.2,0,.4.07.53v.2c.06-.07.13-.07.13-.13s.27-.07.4-.14a.4.4,0,0,0,.06-.26c0-.13-.06-.27-.06-.4a.93.93,0,0,1,.26.27,1.38,1.38,0,0,0,.47.13c.13,0,.39-.13.26.2a.84.84,0,0,1,.2.13c.07.07.13.13.2.13l-.2.2h-.27c0,.53-.19.2-.39.13s-.33-.06-.53-.13a.79.79,0,0,1,.06.33A.07.07,0,0,0,445,58c.33-.2.27.13.4.2a1.47,1.47,0,0,0,.39.26c.2.07.34.07.53.13a3.11,3.11,0,0,1-.46.53h-.2c.07.07.13.2.2.2a4.39,4.39,0,0,1,.66.46.42.42,0,0,0,.73-.19,7.85,7.85,0,0,0,.66-1.33c0-.06-.13-.2-.2-.33s-.26-.13-.33-.26-.06-.14-.06-.27a.25.25,0,0,1,.2.07c.13.06.26.2.39.26.47.33.47.47.13.86-.06.07-.19.2-.19.27a2.14,2.14,0,0,1-.67,1.52,15,15,0,0,1-.86,1.46,2.85,2.85,0,0,1-.59.66c-.53.72-1.13,1.52-1.66,2.25-.26.33-.39.33-.66,0s-.33-.33-.46,0-.53.33-.86,0c-.07-.07-.27,0-.4,0s-.2.13-.33.2c.07.06.13.13.2.13h.2a.23.23,0,0,0-.07.2c-.26.26-.13.26.13.26h.27c.13,0,.26.07.4.07a.73.73,0,0,1-.27.33,9.32,9.32,0,0,1-1.32.73.24.24,0,0,1-.07-.14c0-.13.13-.26.13-.39s.07-.4-.33-.4c-.13,0-.26-.2-.46-.26a2.54,2.54,0,0,0,.26-.47c0-.06.07-.13.07-.2s-.26-.06-.26,0c-.27.33-.73.53-.67,1,0,.06,0,.13-.06.13-.4.46-.07.73.2,1.06.06.13.06.26.13.39-.2,0-.33-.06-.46-.06s-.14-.2-.2-.2-.07-.07-.13-.13v.13a1.36,1.36,0,0,1-1.13,1.26,1,1,0,0,0-.13.72,1.42,1.42,0,0,1-.13,1.13.24.24,0,0,0-.07.2,1.08,1.08,0,0,1-.73,1.19c-.46.13-.73-.07-.73-.53,0-.13-.2-.27-.33-.4,0,.13-.13.2-.06.33a1.19,1.19,0,0,0,.13.47.71.71,0,0,0,.2.26c-.2,0-.47.07-.6,0a.71.71,0,0,1-.13-.73,2.46,2.46,0,0,0,.07-1c-.07-.2-.2-.26-.34-.07s-.26.2-.46.07-.4,0-.53.27a4.79,4.79,0,0,1-.66.92,16.58,16.58,0,0,1-1.72,1.39.48.48,0,0,0-.13.27c0,.06.13.13.26.19s.2.07.27.07-.14.2-.27.2c-1.12.33-2.25.53-3.24.93-1.39.53-2.85.19-4.17.59a6.11,6.11,0,0,0-.93.33h-.26c-.07-.13-.2-.2-.26-.33-.4-.53-.67-.53-1.26-.4a2.15,2.15,0,0,1-.66.07,6.86,6.86,0,0,0-1.66.13,2.05,2.05,0,0,1-1.39-.26,3.44,3.44,0,0,0-2.12-.66,1.41,1.41,0,0,1-1.38-.6c-.4-.53-.8-1-1.13-1.52-1.72-2.25-3.51-4.5-4.17-7.41a16.71,16.71,0,0,1-.79-3.58c-.07-.79-.2-1.52-.33-2.31V55.12C408.22,54.26,408.42,53.4,408.48,52.53Zm12-11.24a.5.5,0,0,0,.27-.14,2.15,2.15,0,0,1,.13.67.72.72,0,0,1-.2.46c-.07.06-.2.26-.27.26s-.33-.2-.33-.33a3.48,3.48,0,0,1,0-.79c0-.07.14-.13.14-.13S420.39,41.35,420.46,41.29Zm1.19,26c.07.07-.06.13-.13.2a3,3,0,0,0-.07-.33.5.5,0,0,1,.07-.27A1.29,1.29,0,0,1,421.65,67.29ZM422.84,38v-.6a.23.23,0,0,1,.2.07l.33.33a1.82,1.82,0,0,1,.2.26c-.13.14-.33.27-.46.4s-.13-.07-.2-.07A.77.77,0,0,0,422.84,38Zm1.66-1.46c-.14-.2-.47-.4-.47-.59a2.28,2.28,0,0,1,.33-.86c.07,0,.2,0,.2.06.07.27.2.46.27.8C424.7,36.12,424.63,36.32,424.5,36.52Zm11.25,32.89c.33.2.13.33,0,.46s0,.27,0,.4l.19-.2c.14-.07.34-.2.47-.26.06.13.06.26.13.39v.14a.2.2,0,0,1,.13-.07c.07-.2.27-.53.2-.66a2.7,2.7,0,0,0-.79-.6A2.42,2.42,0,0,1,435.75,69.41Zm2.38-3c0,.07-.13.2-.13.27a1.06,1.06,0,0,0,.26.26.24.24,0,0,0,.07-.13Zm4.1-2.12c.07.2.27.33.4.47a3.3,3.3,0,0,0,.26-.47c0-.06-.13-.19-.26-.33C442.43,64.12,442.23,64.25,442.23,64.31Zm1.39-2.58c-.13-.13-.2-.26-.33-.33a1.49,1.49,0,0,1-.4.33c.14.07.2.14.33.2Zm1.46.73c.06-.07.13-.07.13-.13a.08.08,0,0,0,0-.13c-.53-.14-.6-.53-.66-1a.25.25,0,0,0-.07-.2c0,.07-.07.14-.13.2s-.13.14-.13.2a2.19,2.19,0,0,1-1.13,1.19l-.06.14a8,8,0,0,0,1.25.72c.07.07.33-.13.47-.26s0-.2,0-.33-.14-.27-.07-.27.2-.13.33-.2Zm-.47-3.9c-.13-.33-.39-.27-.59-.2s-.13.2-.2.4l.2.13c.2-.27.2,0,.26.13s.13.26.27.26.26,0,.13.27v.2c.07-.07.13-.07.2-.13s0-.14.06-.34A2.74,2.74,0,0,1,444.61,58.56Zm0,1.85c-.06,0-.13.07-.2.07s.07.13.2.19.27.07.4.07.13,0,.13.07.27.33.4.46.07.2.13.33.07.13.13.2.14-.07.2-.13a.47.47,0,0,0-.13-.73c-.33-.2-.79-.4-1.19-.66C444.68,60.34,444.68,60.34,444.61,60.41Zm.86-3.84c-.13-.13-.26-.2-.39-.33v-.13a1.59,1.59,0,0,0,.33-.27c.06,0,.13-.06.13,0l.2.2A1.9,1.9,0,0,1,445.47,56.57Zm.53,3.24-.59.4a2.58,2.58,0,0,0,.59.27c0,.06.14-.14.2-.27A1,1,0,0,0,446,59.81ZM447.66,56l-.13-.14-.2-.19c-.07.13-.14.19-.07.33s.07.33.07.46a2.24,2.24,0,0,1-.53-.13l-.6-.2c-.06-.07-.2-.2-.2-.27a3.62,3.62,0,0,0,.2-.33c.07.14.2.2.2.27.13.26.27.26.4,0a.26.26,0,0,0,.06-.2c.2-.13.4-.4.47-.33s.33.33.46.53C447.72,55.84,447.72,55.91,447.66,56Zm-.86-1.13h-.07c0-.2-.59-.13-.2-.53.07-.06,0-.26,0-.4a.71.71,0,0,0,.27.34,1.22,1.22,0,0,0,.46.06A3.11,3.11,0,0,1,446.8,54.85ZM446.73,53c0-.07.07-.13.13-.2a.81.81,0,0,1,.2.26.68.68,0,0,1-.2.14C446.8,53.13,446.73,53.06,446.73,53Zm.46,5.23a3.65,3.65,0,0,0-.33-.27c0-.06.14-.13.14-.13a1.44,1.44,0,0,1,.33.26ZM449,56.44a2.85,2.85,0,0,0-.46-.46l-.33-.33c.13,0,.2-.07.33-.14l.39-.2a1,1,0,0,0-.06.4c0,.07.13.13.13.2a3.69,3.69,0,0,1,.27.53.93.93,0,0,0-.14.2C449.05,56.51,449.05,56.44,449,56.44Zm.33-6.09s.07.07,0,.07a.53.53,0,0,1-.33.13s-.13-.07-.13-.13c0-.27-.07-.4-.4-.27-.06,0-.13-.13-.2-.13s.2-.13.33-.26A5.67,5.67,0,0,1,449.31,50.35Zm-.66,6.22v-.2c.07.07.13.14.13.2a3.74,3.74,0,0,1,.13.53h-.13A1.33,1.33,0,0,1,448.65,56.57Zm.6-1c0-.33,0-.6-.4-.66v-.14c.2-.26.46-.52.66-.79.07-.07.13-.07.2-.13s.2-.27.2-.27a1.61,1.61,0,0,1,.59.53c.07,0-.06.2-.13.33s-.33.53-.46.8l-.53.73A1.29,1.29,0,0,1,449.25,55.58Zm.33-.66c0-.07.06-.2.06-.33s-.2-.2-.26-.33a1.31,1.31,0,0,1-.27.39c.07.07.2.07.27.13S449.51,54.92,449.58,54.92Zm.13-3.91a.48.48,0,0,1-.27-.13c.14-.07.27-.2.4-.26s.07,0,.2.06ZM450,39.76c.07,0,.2.07.26.07s.4-.2.67-.33c.06,0,.06-.07.13-.13s-.13-.14-.2-.14c-.27.07-.46.14-.66.2s-.2.14-.27.2A.24.24,0,0,1,450,39.76Zm.07,9.8a.24.24,0,0,1-.14-.07c.14-.06.27-.2.4-.26s.13.06.26.13A2.17,2.17,0,0,0,450.11,49.56Zm.92-.27c.07-.13.2-.2.33-.33a.21.21,0,0,0,.07.13c-.13.14-.2.27-.33.4C451,49.36,451,49.29,451,49.29Zm1.06-3.44c-.13.07-.26.13-.26.2s.06.13.13.26c.13-.13.26-.19.4-.33C452.22,45.92,452.16,45.85,452.09,45.85ZM452,44.33a.19.19,0,0,0,.07.13.39.39,0,0,0,.73,0c.07-.06,0-.2-.07-.33,0,.07-.13.07-.13.13s-.13.27-.26,0c-.07,0-.07-.06-.14-.06S452.09,44.26,452,44.33Zm.67-3.71h-.14a.24.24,0,0,0-.19-.06.46.46,0,0,0,.13.26,3.69,3.69,0,0,0,.53.27c.2,0,.39.06.46,0s.33-.33.07-.6c-.07,0,0-.2.06-.33s.07-.2.07-.33-.33-.13-.4-.07c-.26.14-.39.14-.53-.13s-.2-.13-.2,0a.61.61,0,0,0,0,.46l.2.4C452.75,40.56,452.75,40.62,452.69,40.62Zm-.33,1.72c.06,0,.13.07.19.07a1.75,1.75,0,0,0,.34-.26c0-.07-.07-.07-.14-.14C452.62,42.15,452.49,42.21,452.36,42.34Zm2.18-14.29c-.07-.07-.13-.2-.2-.26s.07-.07.13-.07a1.67,1.67,0,0,0,.47.2A3.27,3.27,0,0,1,454.54,28.05Zm.33,1.85c.07.14.13.2.13.33s-.06.14-.13.14-.07-.14-.13-.14S454.8,30,454.87,29.9Zm.46-6.15c-.06.4-.13.79-.19,1.26,0,0,.13.13.19.06s.47-.26.67-.39a.25.25,0,0,1,.06-.2.23.23,0,0,0-.2-.07c-.26,0-.46-.06-.26-.39.06-.07-.07-.27-.07-.47C455.4,23.68,455.33,23.68,455.33,23.75Zm1.06,2.85a.79.79,0,0,1-.13-.4c-.07,0,.13-.13.2-.13s.13.13.2.13.13.2.13.26S456.52,26.6,456.39,26.6Zm2-2.45-.47-.66.2-.2.2.2a3,3,0,0,1,.2.59A.24.24,0,0,1,458.38,24.15Zm1-6c-.13.06-.2.13-.33.19a1.58,1.58,0,0,1,.26.33,2.56,2.56,0,0,0,.2-.26Zm1.79-6.62c.06.06.13.13.13.2a2.5,2.5,0,0,1-.13.72,1.76,1.76,0,0,1-.47-.39C460.89,11.84,461,11.64,461.16,11.51Zm10.25-1.26c-.06.07-.2-.13-.26-.2a3.5,3.5,0,0,1,.53-.33.53.53,0,0,1,.2.07A2.77,2.77,0,0,1,471.41,10.25Zm.6-.73a.48.48,0,0,1,.13.27.46.46,0,0,1-.13.26c0-.06-.07-.2-.07-.26S472,9.59,472,9.52Z" />
	<path d="M480.87,43.07a.87.87,0,0,0-.13.8.55.55,0,0,1-.07.46,9.7,9.7,0,0,1-.26,1.39c-.07.33-.07.66.2.79-.07.73-.93,1.66-2.12,4.7a2.72,2.72,0,0,1-.79,1.26,1.72,1.72,0,0,0-.34.59,3.85,3.85,0,0,1-.46.73c-.13.13-.06.2.13.27-.26.2-.66.06-.92.33,0,.06-.14,0-.14,0s-.06-.2-.13-.33c-.06.2-.06.39-.13.59a.49.49,0,0,1-.4.53,1.15,1.15,0,0,0-.79.4c-.07.07-.13.07-.2.13a2.6,2.6,0,0,0-1.39,1.59.48.48,0,0,1-.33.07c-.26.06-.26.33-.46.39a.14.14,0,1,1-.2-.2,6.13,6.13,0,0,0,.73-.66v0c.06-.06.13-.06.19-.13v-.2s-.06-.06-.06,0a.14.14,0,0,0-.13.13v.2c-.47-.2-.8.14-1.2.27a.53.53,0,0,0-.13.26,1.6,1.6,0,0,0-.06.53,4.68,4.68,0,0,0-1.53.73c0,.07.07.2.07.26a.35.35,0,0,1-.33.27,1.14,1.14,0,0,0-.46-.13,3.24,3.24,0,0,0-.47.39,3.12,3.12,0,0,1-.53.2c-.19-.06-.39-.13-.66-.2a2,2,0,0,1-1.32.6.36.36,0,0,1-.2.06,3.11,3.11,0,0,1-2.05.2,3.94,3.94,0,0,1-1.52-.53c-.4-.26-.8-.39-1.19-.66s-.53-.46-.86-.66a7.83,7.83,0,0,1-1.86-2.12,3.54,3.54,0,0,1-.53-1c-.13-.26-.26-.53-.46-.86a7.19,7.19,0,0,1-.73-1.12c-.13-.14-.26-.34-.39-.47a1.54,1.54,0,0,1-.4-.59,11.35,11.35,0,0,1-.47-4.7,14.48,14.48,0,0,1,1.53-5.23c.33-.73.73-1.39,1.06-2.12a7.49,7.49,0,0,1,1-1.78,22.4,22.4,0,0,1,1.92-2.58l.39-.4a27.57,27.57,0,0,1,2.85-3.38,18.6,18.6,0,0,1,2-1.85,5.24,5.24,0,0,1,1.19-.73c.39-.2.86-.53,1.25-.72.53-.34,1-.6,1.53-.93.06,0,.19-.07.26-.07a1.44,1.44,0,0,0,1,.27,1.54,1.54,0,0,1,.93.39c.2.27.4.47.59.73v.13c-.33.53-.33.53.14.93a.93.93,0,0,0,.46.2,8.25,8.25,0,0,1,1.59.66,1.18,1.18,0,0,0,.53.13,1.72,1.72,0,0,1,1.26.53A5.24,5.24,0,0,1,478,33.28a1.65,1.65,0,0,0,.33.46,16.73,16.73,0,0,1,1.25,2,3.26,3.26,0,0,1,.4,1.12c.07.07.07.2.13.27a.81.81,0,0,1,.2.79,1,1,0,0,0,.13.6.23.23,0,0,1,.07.2,8.38,8.38,0,0,0,.2,1.85v1.19a1.71,1.71,0,0,0,.13,1C480.94,42.81,480.87,43,480.87,43.07Zm-5.82-1.19c0-1.12.06-2.31,0-3.44,0-.79.06-.79-.46-1.39a3.39,3.39,0,0,0-.87-.86c-.39-.2-.86-.33-1.25-.53-.2-.07-.4-.2-.66-.07a.78.78,0,0,1-.67-.13.74.74,0,0,0-1.05.2c-.34.4-.67.79-1,1.13a3.64,3.64,0,0,0-.66,1.05,1.4,1.4,0,0,0-.86.6.43.43,0,0,1-.26.33,2,2,0,0,0-.67.8.41.41,0,0,1-.39.33.7.7,0,0,0-.47.26c-.33.46-.66,1-1,1.52a1.43,1.43,0,0,0-.06.53c0,.07,0,.07-.07.13a7.47,7.47,0,0,1-.86,1.13,2.53,2.53,0,0,0-.6.86c-.2.73-.66,1.39-.86,2.12a5.07,5.07,0,0,1-.33.66c0,.26-.2.4-.33.59a1.35,1.35,0,0,1-.13,1.13,1.14,1.14,0,0,0-.2.66,3.18,3.18,0,0,0-.13.8,4.51,4.51,0,0,0,1.52,4.1,1.38,1.38,0,0,0,1.39.39,10.84,10.84,0,0,0,1.52-.52,20.7,20.7,0,0,0,3-1.33,13.4,13.4,0,0,0,1.72-.92.83.83,0,0,0,.33-.34,14.44,14.44,0,0,0,1.46-2.05,3.16,3.16,0,0,1,.39-.59,4.27,4.27,0,0,0,.8-1.52,2.56,2.56,0,0,1,.33-.6c.13-.33.33-.66.46-1.06a10.57,10.57,0,0,0,.6-2.51,3.74,3.74,0,0,1,.13-.53C475.11,42.54,475.05,42.21,475.05,41.88Zm-6.29-21.44a2.94,2.94,0,0,1,.73.86,2.14,2.14,0,0,1,.46,2.32c-.06.06-.13.33-.26.53a.8.8,0,0,1-.53.66,1.54,1.54,0,0,0-.66.53,1,1,0,0,1-1.13.79,1.3,1.3,0,0,0-.33.07h-.4a2.84,2.84,0,0,1-1.72-.73,4.72,4.72,0,0,0-.79-.86,15.48,15.48,0,0,1-1.46-1.46v-.92c0-.27.07-.53.07-.86a2.32,2.32,0,0,1,.79-1.26,2.54,2.54,0,0,1,1.26-1.06h.46C466.45,19.51,467.57,20,468.76,20.44ZM465.45,59a1.25,1.25,0,0,0-.33-.26,3.09,3.09,0,0,0-2.18-.07c-.07,0-.2.14-.2.2s.07.27.2.33a2.69,2.69,0,0,0,1.92.13c.13-.06.26-.06.39-.13Zm5.83-24.35a1.16,1.16,0,0,0,.33.27,8.24,8.24,0,0,1,2.05,1,1.53,1.53,0,0,0,.79.4,4.61,4.61,0,0,0-1-1.79.83.83,0,0,0-.86-.2.88.88,0,0,1-.6,0A.76.76,0,0,0,471.28,34.6ZM479,26.26c-.06.07-.2.07-.39.07s-.73-.07-1.06-.07-.6.07-.86.07a3,3,0,0,1-.93-.46c-.53-.47-1.12-.8-1.65-1.26s-1.06-1.06-1.13-1.79c0-.33.07-.72.07-1v-.59a.3.3,0,0,1,0-.34c.33-.26.39-.59.66-.72a1.22,1.22,0,0,1,.59-.4h1.06s0,.07.14.07a1.49,1.49,0,0,0,.06.33c.13,0,.13.06.2.06v-.06l.07-.14a8.46,8.46,0,0,1,2.78,1.66l.19.2a4.44,4.44,0,0,1,.93,1.85v1.32C479.48,25.4,479.22,25.8,479,26.26ZM476.5,53.13c-.33,0-.33.2-.39.4a.42.42,0,0,0,.06.26c.07.07.2.07.33.13Z" />
	<path d="M506.81,68.75a1,1,0,0,1-.66.46.65.65,0,0,0-.67.46,1.16,1.16,0,0,1-.86.6c-.06,0-.13.07-.26.07s-.13.26-.13.46c-.07,0-.07.06-.13.06a2.15,2.15,0,0,0-.87.53,1.79,1.79,0,0,1-.92.27c-.2,0-.47.07-.66.07,0,.19,0,.26.06.33a1.33,1.33,0,0,1-.73.13,1.37,1.37,0,0,0-1.19.46,4.17,4.17,0,0,0-1.52.07h-.13a9.31,9.31,0,0,1-3.9-1.19A6.91,6.91,0,0,1,493,70.34a4.89,4.89,0,0,1-.73-1.13c-.13-.2-.4-.53-.26-.79s0-.2-.07-.27c-1-1.06.79-9.79.46-10.72a17,17,0,0,1,1-4.1,16.57,16.57,0,0,1,.67-2.12,23,23,0,0,0,.79-3c.2-.93,0-.93-.73-1.19a4.07,4.07,0,0,0-2-.33,5.12,5.12,0,0,1-.93.19,2.26,2.26,0,0,1-1,.14.18.18,0,0,0-.2.2c0,.26,0,.46.13.59.27-.07.07-.46.47-.53a3.43,3.43,0,0,1-.47,1.39c0,.07-.26.2-.33.27s-.06-.14-.2-.14-.13-.06-.19.14a.44.44,0,0,0,.39,0,1,1,0,0,0-.39.53.37.37,0,0,0-.14.33c-.06.46-.79.86-.33,1.32.27.13.27.26.13.46s-.13.4-.19.66-.14.27-.4.2c-.07,0-.13.07-.2.13s-.73,2.59-.86,2.72a.4.4,0,0,0-.13.46,1.06,1.06,0,0,1-.14.2c-.06.2-.19.33-.19.53s-.14.4.13.46c.06.07,0,.2.06.4a.37.37,0,0,0,.27-.2c0,.13.13.2,0,.27s-.13.26-.13.53a2.64,2.64,0,0,1-.33.72,1.15,1.15,0,0,0-.33.53,1.13,1.13,0,0,0-.93.6c-.4-.07-.4-.07-.73-.4-.13,0-.33.07-.46.4s-.27.26-.47.39c0,.14.07.27.07.47-.33.46-.33.46-.66.53a.56.56,0,0,1-.13.39c-.07.27-.2.53-.47.53a.4.4,0,0,0-.33.14,3.69,3.69,0,0,0-.53-.27c-.19.33-.66.4-.79.86l-.2.07c-.26-.07-.93,1.59-1.19,1.52-.13.13-.2.26-.33.4s-.13.26-.33.26c0-.26.26-.4.33-.73.07,0,.13-.13.07-.26a.83.83,0,0,0-.2.46.63.63,0,0,1-.33-.06c.46-1.06,1.52-3.45,1.92-4.57a3,3,0,0,0-.6-.66,1.47,1.47,0,0,1-.13-1.06,3.31,3.31,0,0,0,.2-.73c-.07-.46.26-.79.39-1.19a.25.25,0,0,1,.4,0c.13.2.33.2.53.27a8,8,0,0,0,.66-1.53c.07-.2.6-2.64.66-2.84.13-.4.27-.8.4-1.13a9.64,9.64,0,0,1,.46-1.52c.13-.33.2-.66.33-1.06-.13,0-.2-.06-.33-.06V48.1h-.33c0-.06-.06-.06,0-.2.33-.26.53-.59.93-.86a1.77,1.77,0,0,0,.33-.59c.33-1,.59-2.05.93-3a20,20,0,0,1,1.32-3.31.43.43,0,0,0,.06-.26,2.51,2.51,0,0,1,.27-1c.07-.13.13-.39.2-.53s.06-.13.13-.26.33-.46.27-.79a.25.25,0,0,1,.06-.2,2.58,2.58,0,0,0,.53-1.06,1.29,1.29,0,0,1,.27-.66.68.68,0,0,0,.13-.67c.2,0,.33,0,.4-.06.39-.6,1.12-.86.19-.66l-.06.06a.71.71,0,0,0-.73.4h-.33c-.07-.6.46-.6.73-.86,0-.2-.14-.2-.27-.13a3.36,3.36,0,0,0-.73.33c-.13,0-.13.2-.19.26s-.2.27-.27.33a3.28,3.28,0,0,0-.66,1c-.07.13-.2.19-.27.33s-.19.26-.33.39c-.33.2-.59,0-.92-.19a2.51,2.51,0,0,1-.93-.93,4,4,0,0,1-.4-.27v-.26a1.7,1.7,0,0,0-.26-.73,2.94,2.94,0,0,1-.8-1.32,5.81,5.81,0,0,0-.39-1,.44.44,0,0,1,.13-.73c.6-.53,1.19-1.06,1.72-1.59l.33-.2a5,5,0,0,0,1.13-.86,5.64,5.64,0,0,0,.92-.46c.07,0,.13-.13.2-.2A16.46,16.46,0,0,1,490.33,26c.4-.13.86-.4,1.26-.53a18.47,18.47,0,0,1,3.57-1.19c.6-.13,1.26-.4,1.85-.53.14,0,.4-.07.6-.07a21.81,21.81,0,0,1,4.57-.06,13.6,13.6,0,0,1,4,.92,4.53,4.53,0,0,1,2.32,2c.33.66.79,1.32,1.12,2a5.67,5.67,0,0,1,.4,1.26,12.36,12.36,0,0,0,.46,1.33,3.46,3.46,0,0,1,.4,2.18,5.81,5.81,0,0,1-.46,1.39c-.2.26-.27.66-.47.92a2.19,2.19,0,0,1-.39,1,5.62,5.62,0,0,0-.8,1.19c-.06.13-.2.2-.26.33a3.65,3.65,0,0,1-1.06.93c-.13.06-.2.26-.33.39s-.13.4-.33.53-.27.2-.27.27c.14.33-.13.46-.26.66a1.72,1.72,0,0,0-.13-.27.64.64,0,0,0-.53.6c-.47.07-.86.13-1.06.6-.13-.14-.2-.2-.2-.4-.6.26-1.19.59-1.79.86-.13-.27.07-.27.14-.33a.37.37,0,0,0,.19-.33.29.29,0,0,0-.06-.2c0-.07-.07-.07-.13-.07a1.23,1.23,0,0,0-.4.27c-.13.06-.2.2-.33.13-.33,0-.47.2-.66.26a1.23,1.23,0,0,0-.47.53h-.39c0,.07-.07.2,0,.27a2.92,2.92,0,0,0,.39,1,6.44,6.44,0,0,1,.33,1.59,16.19,16.19,0,0,1-.06,2.51,25.06,25.06,0,0,0-.47,2.91c-.13.73-.19,1.39-.26,2.12,0,.07-.07.07-.13.13s-.27.2-.27.34.07.33.07.59a.65.65,0,0,1-.33.13v.14a.8.8,0,0,1,.06,1,.76.76,0,0,0-.13.4c0,.13-.13.26-.2.39a1.73,1.73,0,0,1-.72,1.06.45.45,0,0,0-.2.33c-.14.33-.27.66-.4,1.06a6.09,6.09,0,0,1-.53,1.39,8.54,8.54,0,0,0-.79,2.45v.26c.19.47.19,1.13.39,1.59,0,.13.14.2.14.33s.13.53.26.66a9.89,9.89,0,0,0,1.32,1.53.6.6,0,0,1,.4.26,1.88,1.88,0,0,0,.46.33l.53.2a3.5,3.5,0,0,0,1.39.73.21.21,0,0,1,.13.06v.2l-.06.07h-.2a16.88,16.88,0,0,1-3.31-1.92A14.46,14.46,0,0,1,497,65a.84.84,0,0,1-.2-.26c-.13.13-.13.2-.13.2s.13.26.2.39a2.26,2.26,0,0,0,.86,1.72,4.55,4.55,0,0,0,1.65,1.13c.53.2,1.06.46,1.52.59a5.58,5.58,0,0,0,2,.27,11.26,11.26,0,0,0,3-.33A4.12,4.12,0,0,1,506.81,68.75ZM487.49,38h-.07s0-.07-.13-.07h.13A.07.07,0,0,0,487.49,38Zm.86,13c-.47.06-.6.39-.73.72-.07.14-.07.2.06.4a1,1,0,0,1,.6-.53C488.48,51.48,488.48,51.28,488.35,51Zm.86-2.85c-.2.13-.27.2-.2.33C489.21,48.37,489.27,48.23,489.21,48.1Zm10.72-12.51A24.71,24.71,0,0,0,502,33.74a16.77,16.77,0,0,1,1.72-1.45c.07-.14.14-.2.27-.14a9.45,9.45,0,0,1-1.59,1.72c-.07.14-.07.14-.07.2v.27a4.77,4.77,0,0,1,.6-.6,3.78,3.78,0,0,0,.53-.53,2.33,2.33,0,0,0,.6-.53,4.31,4.31,0,0,1,.59-.39c0,.2.07.53-.07.72s-.39,0-.26.14c0-.07.07-.27.07-.33h.26c.2-.2.33-.27.4-.47a11.56,11.56,0,0,0,1-1.45,5,5,0,0,0,.4-1c-.4-.46-1-.26-1.46-.53.53-.13.86.27,1.39.2a.53.53,0,0,0-.33-.46,4.53,4.53,0,0,1-.53-.13c-.26-.07-.4-.2-.59-.2a7.15,7.15,0,0,0-2-.27h-.33a2,2,0,0,0-1.06,0c-.07.07-.26.07-.4.07s-.33-.07-.53-.07-.33.27-.53.27a2.87,2.87,0,0,1-1.05.07,1.47,1.47,0,0,0-1.26.33c-.07.06-.2.19-.27.19-.39,0-.53.27-.79.34V30a.24.24,0,0,0,.13.07,2.3,2.3,0,0,1,.66-.14c.14-.13.2-.13.4.07-.13.07-.2.13-.26.13a3,3,0,0,1-.8.27c-.26.2-.39.33-.33.53s-.06.53-.06.79v.13a1.33,1.33,0,0,1,.46-.13c.2.13.13.27.2.46a.42.42,0,0,1-.14.47c-.13.2-.26.06-.46,0s-.33-.07-.53.2a.86.86,0,0,1-.13.39,1.52,1.52,0,0,1-.66.93.55.55,0,0,0-.13.46,1.31,1.31,0,0,1-.27,1,.27.27,0,0,1-.07.2,3.22,3.22,0,0,1-.26,1.39c-.33.6-.53,1.19-.79,1.79v.26a.93.93,0,0,1,.46.14c-.07.13-.13.2-.2.33a4.41,4.41,0,0,1-.53.53c-.07.06-.13.2,0,.26a11.08,11.08,0,0,0,1.72-.92c.27-.2.66-.34,1-.6a4.57,4.57,0,0,0,1.59-1.06,4.8,4.8,0,0,0,1.06-1,14.29,14.29,0,0,0,1-1.13C499.79,35.73,499.86,35.59,499.93,35.59Zm-4.5,34.61c-.33-.53-.67-1-1-1.45-.13-.14-.19-.27-.33-.33a.49.49,0,0,0-.53-.33h-.06c-.07.39.39.52.39.92,0,.07-.33.07-.26.27a1.74,1.74,0,0,0,.46-.2,2,2,0,0,1,.66.66,5.12,5.12,0,0,1,.6.66C495.49,70.34,495.43,70.27,495.43,70.2Zm-1-31.49h.14c-.07.06-.07.06-.07.13s-.07-.07-.2-.07Zm.4-5a.22.22,0,0,0,.07.19s.2,0,.2-.06a2.15,2.15,0,0,0,.59-1.79h-.26a1.26,1.26,0,0,0-.33.53C495,33,494.9,33.28,494.83,33.68Zm0,4.5v0Zm4.24,6a3.07,3.07,0,0,1,1.05,1.79,3.09,3.09,0,0,0,.27.73.81.81,0,0,0,.13.33c.07-.07.13-.07.07-.14a3.69,3.69,0,0,0-.13-.92,1.62,1.62,0,0,1-.14-.8,6.18,6.18,0,0,0-.46-2c-.07-.07-.13-.07-.2-.13l-.92.19c-.14.14-.2.34-.07.47S498.87,44,499.07,44.13Zm3.7-15c-.13.06-.13.19-.2.19a9,9,0,0,0-3.24.34.76.76,0,0,1-.66.06.74.74,0,0,1,.53-.33,8.58,8.58,0,0,1,2.58-.26h1Zm-3.7,27.26a.82.82,0,0,0,.13-.53A.8.8,0,0,0,499.07,56.44Zm.33-1.79c0,.07.06.13.06.2s.2-.07.2-.13-.13-.07-.13-.13S499.46,54.65,499.4,54.65Zm.53-18.13v-.07a.07.07,0,0,1-.07.07v.07A.07.07,0,0,0,499.93,36.52Zm3.64-7.15c-.07,0-.2-.13-.34-.13a1.61,1.61,0,0,1,1.2.13h-.86Z" />
	<path d="M539,44.59c-.06.07-.13.14-.2.14a15.4,15.4,0,0,0-2.11,1.12c-.27.53-.93.66-1.39,1.06s-.86.79-1.33,1.13c-.79.72-1.65,1.39-2.45,2.05-.79.46-1.58,1.19-2.31,1.65-.53.33-.93.79-1.52.79a1.08,1.08,0,0,0-.93,1,3.74,3.74,0,0,0,.2,1.12l-.8.8v.39a.71.71,0,0,1-.33.8,3.51,3.51,0,0,0-.86.86,2.05,2.05,0,0,1-.72.79l-1.2,1.19a1.12,1.12,0,0,0-.13.66c-.26.47-.79.6-1.26.8-.13.06-.39.26-.52.13-.47-.13-.67.13-.93.27a1.56,1.56,0,0,1,0,.53c-.07.13-.33.19-.46.26-.14-.13-.4-.2-.53-.33-.14.2-.2.4-.4.66a1.26,1.26,0,0,0-1,.4,2.87,2.87,0,0,0-.27-.66c-.13.06-.33.06-.39.26a1.64,1.64,0,0,0-.6.6.76.76,0,0,1-.86.26.8.8,0,0,0-.66.13c-.4.4-.47.4-1-.06a1.73,1.73,0,0,1-1.19.79,5.63,5.63,0,0,1-1.58.4c-.2,0-.34.06-.6.06-.07.07-.2.14-.26.07-.4-.26-.67.07-1.06.2s-.73-.13-1,.2c-.13.06-.13.26-.13.46a5.59,5.59,0,0,1-.86.2c0-.2.07-.26.07-.4s-.07-.2-.13-.26-.34-.07-.4,0-.13.4-.33.26a.62.62,0,0,1-.53-.2,5.45,5.45,0,0,1-1-.79,5.88,5.88,0,0,1-.8-1,2.79,2.79,0,0,1-.66-2,.55.55,0,0,0-.13-.46,6.26,6.26,0,0,1-.53-.86,2,2,0,0,0-.47-.73c-.13-.26-.19-.46-.26-.59a9.2,9.2,0,0,1-.4-2.52,1,1,0,0,1,.2-.53c.2-.26.27-.46.2-.66a.29.29,0,0,1,.07-.4c-.27-.73,1.91-6.42,2.51-7.28a1.67,1.67,0,0,0,.33-.86.64.64,0,0,1,.2-.33,2.43,2.43,0,0,0,.79-1.06c.2-.39.47-.79.67-1.12a3.86,3.86,0,0,0,.79-1.26,5.21,5.21,0,0,1,1-1.12s.14-.07.14-.14c.19-1,6.81-6.94,7.14-7.34.93-.73,2-1.46,2.91-2.25,2.39-1.92,5.23-3,8-4.37.53-.2,1.12-.59,1.72-.4a1,1,0,0,0,.53-.26,1.11,1.11,0,0,1,.79-.07,1.37,1.37,0,0,1,.67.33,8.6,8.6,0,0,1,1.91,1.2,3.24,3.24,0,0,1,.47.19,4.87,4.87,0,0,1,2.38,2.59.83.83,0,0,1,.26.19c.14,0,.14.2.14.2s-.2.13-.27.13a10.64,10.64,0,0,1-1.45-.06,1.59,1.59,0,0,0-1.26.13c-.53.2-1.06.46-1.59.6a2.12,2.12,0,0,1,.07.66,1.54,1.54,0,0,0-1.19.2c-.67.33-1.33.66-2,1.06a.54.54,0,0,0-.33.33,2.29,2.29,0,0,1-1.06.72c-1.26.53-2.25,1.79-3.44,2.52-.59.46-1.26.73-1.59,1.39-.06.06-.26.13-.33.2a9.28,9.28,0,0,1-1.45,1.12,6.87,6.87,0,0,0-1.86,1.79c-.53.66-1.12,1.32-1.72,2-.06.07-.26.2-.26.33,0,.53-.47.8-.6,1.26a3.26,3.26,0,0,1-.39.66c-.2.2-.47.47-.07.73a4.38,4.38,0,0,1-.66.53.9.9,0,0,0-.47.6,1.22,1.22,0,0,1-.33.66,4.2,4.2,0,0,0-.79,1.12c-.13.27-.33.6-.46.86s-.47.47-.27.86a.56.56,0,0,1-.13.27c-.2.53-.27,1.12-.8,1.45-.06.14-.19.27-.19.4a4,4,0,0,1-.73,2.25.2.2,0,0,0-.07.13c-.06.2.33.47-.06.67a1.12,1.12,0,0,0-.2.72c-.07.14.13.33.2.47s-.47.53,0,.86a3.53,3.53,0,0,0,2.31-.27,33.61,33.61,0,0,0,4.44-2.25c.46-.26.79-.59,1.25-.86.14-.13.27-.33.4-.46.46-.4.73-1.06,1.32-1.39A7.28,7.28,0,0,0,521,52.4a11.53,11.53,0,0,0,1.19-1.32.26.26,0,0,0,.06-.2c-.39-.2-.79-.46-1.25-.66a1.52,1.52,0,0,1-.53.13,1.15,1.15,0,0,0-.86.2,1.65,1.65,0,0,1-.93.26c-.66-.13-.66-.06-1.12.34-.27-.34-.8-.47-.93-.93a3.61,3.61,0,0,1,2.45-.66,1.39,1.39,0,0,0,.86-.13c-.13-.34-.2-.4-.47-.4a6.28,6.28,0,0,0-.92.26,2.61,2.61,0,0,0-.93-.33c-.26-.06-.46-.33-.66-.53a4.45,4.45,0,0,1-1-1.72,1,1,0,0,1,.92-.79c1.92-.4,3.78-1.13,5.63-1.66a3.51,3.51,0,0,1,.53-.13,22.4,22.4,0,0,0,3.51-.79c.19-.07.52-.07.79-.14a7.48,7.48,0,0,0,2.25-.79,3.65,3.65,0,0,1,1.12-.33,6.7,6.7,0,0,0,.86-.26.93.93,0,0,0,.47-.14c.46-.46,1.19-.33,1.78-.66.4.53,1.13.53,1.72.93a6.94,6.94,0,0,1,1.2.66,1.49,1.49,0,0,0,.66.2c.33,0,.39.13.26.46Zm-31,19.86a1.87,1.87,0,0,0,1.33.06c-.07-.13-.07-.33-.14-.39s-.39-.2-.46-.4a1,1,0,0,0-1.12-.4c-.14,0-.2.07-.27,0a6.11,6.11,0,0,1-1.85-.66c-.46-.27-1-.6-1.46-.86,0,.13-.13.26,0,.33a4.71,4.71,0,0,0,.73,1.39,1.11,1.11,0,0,0,1.19.66h1Zm20.05-12.91c-.26-.2-.46,0-.66.13s-.06.07-.06.2a.58.58,0,0,0,.72-.2Z" />
	<path d="M562.65,27c.27-.06.4.07.6.27-.13.26-.33.46-.47.72a14.74,14.74,0,0,0-2.44,1.26c0,.2.13.2.19.2h.53l.07.07v.13a.33.33,0,0,1-.26.13,5.51,5.51,0,0,1-1.13.33,3.52,3.52,0,0,0-1.26.73c.07.13.14.27.2.4a6.27,6.27,0,0,0-1.12.26c-.27.13-.6.33-.93.53a1,1,0,0,1-.13.4.67.67,0,0,1-.27.33,2.12,2.12,0,0,0-.92.79.52.52,0,0,1-.47.27,1.09,1.09,0,0,0-.86.66c-.06.2-.26.33-.46.46a1.77,1.77,0,0,0-.86.4h-.13c-.47-.07-.73.2-1.06.4a1.87,1.87,0,0,1-1.19.39,1.14,1.14,0,0,0-1.13.86,4,4,0,0,1-.92,1.2h.59c0,.06.07.13.07.19-.2.34-.47.6-.33,1.06a1.1,1.1,0,0,0-.4-.06c-.2.13.07.2.07.33v.13a1.31,1.31,0,0,0-.6.93A1.07,1.07,0,0,1,548,41v.13a2.2,2.2,0,0,1-.66.4.65.65,0,0,0-.53.6c0,.19-.2.39-.26.59.13.13.19.07.33,0s.2-.33.33-.46a1.3,1.3,0,0,0,.26-.4c.2.2.07.4.13.53l.07.07c.6-.27,1.19-.47,1.85-.73l2.65-1,1.26-.4a2,2,0,0,1,.86-.07c.2,0,.4-.06.53-.06a1.07,1.07,0,0,1,.33.26,5.93,5.93,0,0,0-1.06.66.48.48,0,0,0-.13.27c0,.13.2.2.33.2s.4-.07.66-.14a4.05,4.05,0,0,0,.26.47c-.06.06-.06.13-.19.26a2.53,2.53,0,0,0-.86,1c-.07.07-.27.2-.34.27l-.52.33a1,1,0,0,0,.06.46l-.13.14a5.5,5.5,0,0,1-1.06.52,1.59,1.59,0,0,0-.86.73,2.46,2.46,0,0,1-1.06.8c-.53.26-1,.53-1.52.73-.13.06-.27.19-.4.26a1.36,1.36,0,0,1-1,.33,1.49,1.49,0,0,0-.79.4,2.51,2.51,0,0,1-1.2.59c-.39.14-.79.33-1.19.47a1,1,0,0,1-.39.13c-.4.07-.53.33-.73.73.13.06.26.06.4.13a3,3,0,0,0-.67,1.39c.14.13.27.06.4,0l1.32-.6a1.91,1.91,0,0,1,.34-.2,7.28,7.28,0,0,0,1.72-.59c.79-.33,1.45-.79,2.18-1.06.46-.13.86-.33,1.32-.46a7.67,7.67,0,0,0,2-.93c.59-.26,1.19-.53,1.78-.73a1.1,1.1,0,0,1,.4-.13,7.48,7.48,0,0,1,1.66-.73,10.91,10.91,0,0,0,1.32-.59c.66-.27,1.32-.47,2-.73.26-.07.52-.2.79-.27s.33,0,.4.27a2.59,2.59,0,0,1-.93.73,8.43,8.43,0,0,0-1.79,1.25,1.1,1.1,0,0,1-.33.2c-.13.07-.2.14-.2.27s.2.33.4.26a3.14,3.14,0,0,0,.6-.13,3.29,3.29,0,0,0-.33.4,7.85,7.85,0,0,0-1.33.66c-.2.06-.33.26-.53.4.07.19.33.26.13.53a1.59,1.59,0,0,1-.79.66,4,4,0,0,0-.86.59c0,.2.13.27.27.2a2,2,0,0,1,.39-.2c-.13.47-.13.47-.39.6a.66.66,0,0,0-.4.13c-.2.33-.6.4-.86.6a2.7,2.7,0,0,1-1.06.33,6.91,6.91,0,0,0-.73.39,6.06,6.06,0,0,0-.79.53h-.13c-.27.27-.73,0-.93.4a5.73,5.73,0,0,1-.93.46,1.52,1.52,0,0,1-.73.27c-.13,0-.19,0-.26.06-.53.4-1.19.6-1.65,1-.07.13-.27.13-.4.13-.07.2-.07.33-.27.46a26.79,26.79,0,0,1-3.7,1.79,3.9,3.9,0,0,1-.8.2c-.46.13-1,.26-1.52.39a.15.15,0,0,0-.13.14,1.79,1.79,0,0,1-.53.86c-.13.06-.2.26-.33.39a7.49,7.49,0,0,1-.53,1.06c-.07.13-.2.2-.26.27-.27-.2,0-.47-.14-.6s-.26.2-.26.33a4.19,4.19,0,0,0-.27.8,2.46,2.46,0,0,1-.26.92c-.2-.13-.2-.26-.13-.39a6.58,6.58,0,0,1,.26-1.13,1.3,1.3,0,0,1-.07-.33c-.39.6-.33,1.32-.79,1.85l-.4-.2-.13.14c-.06.33-.13.66-.2,1-.2,0-.33.07-.53.07a2.43,2.43,0,0,1-.26.46.92.92,0,0,1-.66.53h-.8a.64.64,0,0,1-.53-.53,9.29,9.29,0,0,1-.06-1.32,11.29,11.29,0,0,0,.13-2.12s-.07,0,0-.07c.26-.46,0-1.06.26-1.59a10.46,10.46,0,0,0,.4-2.05,2,2,0,0,0-.2-1.65.26.26,0,0,1-.06-.2,1.05,1.05,0,0,1,.66-.46.61.61,0,0,0,.4-.4c.19-.79.39-1.59.66-2.38a11.65,11.65,0,0,0,.46-1.33,6.11,6.11,0,0,1,.33-1.12l-.86-1.06a1.36,1.36,0,0,0,.33-.2c.4-.2.73-.33,1.13-.53a1.16,1.16,0,0,0,.46-.53c.2-.66.53-1.25.79-1.92a3.37,3.37,0,0,0,.47-1.12.48.48,0,0,1,.13-.33.48.48,0,0,0,.2-.4,1.59,1.59,0,0,1,.46-.86c.2-.2.4-.4.33-.73,0-.13.07-.2.13-.33s.34-.53.47-.79a.45.45,0,0,0,.06-.27c.07-.2.07-.39.14-.46.46-.4.39-1.06.66-1.52s.53-1,.73-1.46c.06-.13.06-.2.13-.26a11.46,11.46,0,0,0,.92-1.86c.07-.06.07-.19.14-.26a1.76,1.76,0,0,0,.33-1.12V33c.26-.19.46-.52.79-.79a1.59,1.59,0,0,0,.2-.33,7.11,7.11,0,0,1,.53-1.26,2.77,2.77,0,0,0,.2-.66.89.89,0,0,1,.73-.79h.13a1.26,1.26,0,0,1,1.19.06c.46.27.93.4,1.39.66s.79.14,1.19.33a.58.58,0,0,0,.46-.06c.86-.33,1.72-.73,2.58-1.06s1.86-.79,2.78-1.13a12.17,12.17,0,0,0,1.33-.52,11.64,11.64,0,0,1,1.45-.47l1-.39a7.6,7.6,0,0,1,2.18-.67,5.44,5.44,0,0,1,1.79-.19,1.22,1.22,0,0,1,.46.06.9.9,0,0,1,.2.27c-.2.06-.4.19-.6.26s-.4.07-.53.2-.13.13-.13.2.07.13.13.2ZM542.73,50c.07-.06.07-.13.07-.33-.4.07-.66.2-.73.53s0,.6-.2.86-.06.66-.26.93c-.07,0,0,.2.07.2s.19,0,.19-.07Zm3-7.14a3.16,3.16,0,0,0-.46.73c.26.13.4.06.4-.07A2.25,2.25,0,0,0,545.71,42.81Z" />
	<path d="M556.36,60.61v-.2a24,24,0,0,1,.47-4.43c.33-1.72,1.45-6.49,1.85-8.28.66-2.64,1.45-5.29,2-7.94.47-1.72.8-3.64,1.13-5.36,0-.13,0-.13.13-.26.33-.2.4-.66.53-1,.2-1,.46-2,.66-3a1.33,1.33,0,0,1,1.33-.92,12.2,12.2,0,0,1,1.85.46c.46.2.79.46.79,1,0,.2.14.33.14.47s.19.33.33.33a3.49,3.49,0,0,0,.72.72.85.85,0,0,1,.27.6v.73a2,2,0,0,0,.33.66c.07.26.2.33.4.59a17.56,17.56,0,0,0,1,2c.33.4.46.86.79,1.19s.33.66.53,1a2,2,0,0,1,.47,1.13,6.24,6.24,0,0,0,.66,2c0,.07.13.2.13.33a.87.87,0,0,1,.33-.46h.33v.33c-.26.13-.26.2-.13.33a5,5,0,0,1,.2,1.46,2.55,2.55,0,0,0,0,.73l.13-.07a1.06,1.06,0,0,0,.46.07c.2.13.2.13.33-.07v-.33l.07-.13c.13.13.27.2.27.46a2.81,2.81,0,0,0,.19.73h.14c.06-.07.06-.2.19-.33.34-1,.8-2,1.13-3.05.73-1.78,1.39-3.57,2.18-5.29a1.91,1.91,0,0,0,.2-.79c-.06-.2,0-.47.13-.53.33-.93.67-1.79,1-2.65s.53-1.65.86-2.58c.79-1.52,1.45-3.18,2.25-4.7a1.88,1.88,0,0,1,.33-.46,1.67,1.67,0,0,1,1.19-.66.86.86,0,0,0,.53-.14h.13c.46.27.79.6,1.19.8s.8.66.66,1.32c1-.79,1,8.07,0,7.81v.33a2,2,0,0,0-.06.6.43.43,0,0,1-.14.33,1,1,0,0,0-.33.72c0,.27-.13.33-.33.6a.67.67,0,0,0-.46.73,1.51,1.51,0,0,1-.53,1.12l-.33.33a1.21,1.21,0,0,0,.66.2c-.13.33-.33.27-.53.13s-.33,0-.59.2c-.07.27-.2.33-.33.6.13.06.13.06.13.2a4.46,4.46,0,0,0-.2.86.44.44,0,0,1-.27.33c-.06.13-.06.33-.19.46s-.14.2-.14.33c-.33.13-.33.33-.39.53a.78.78,0,0,1-.6.8c-.06.13-.33.19-.33.46.13,0,.13.06.27.06s.33,0,.39.14a1.61,1.61,0,0,0,.8.13c.46-.13.53-.33.66-1,0-.27-.13-.47-.53-.6a.8.8,0,0,1-.46-.2.88.88,0,0,1,.46-.2,1.23,1.23,0,0,1,.73-.13v.47a1.69,1.69,0,0,0,.46,1.38.19.19,0,0,1,0,.27c0,.07-.13.2-.33.33a1.25,1.25,0,0,0-.33.86,6.1,6.1,0,0,0,.13,1.46c0,.2,0,.33-.13.39a.47.47,0,0,1-.53-.06.13.13,0,0,0-.13-.13c-.2,0-.2-.2-.2-.34a3.39,3.39,0,0,0-.13-.53c-.14-.13-.2-.26-.34-.13-.19.33-.66.53-.46,1.13,0,.06-.06.33-.06.53s-.34,0-.47,0c-.33,0-.53-.47-.46-.8.13-.06.26-.2.13-.33a.81.81,0,0,1,.33-.86c.2-.13.33-.2.47,0s.19.2.39,0a.69.69,0,0,1,.6-.33c.33,0,.39-.13.39-.46s0-.33,0-.53a1.21,1.21,0,0,0-.52.2,1.83,1.83,0,0,1-1.33.46.49.49,0,0,0-.53.53,3.07,3.07,0,0,1-.59,1.12c-.07.14-.2.2-.2.47a2,2,0,0,1-.47,1.19c-.06.13-.06.33-.19.46a1.25,1.25,0,0,1-.2.4,4.7,4.7,0,0,0-.33.93v.33c-.27.39-.33.86-.6,1.32a1.37,1.37,0,0,1-.2.66c-.46-.26-.53,0-.79.33a1.26,1.26,0,0,0,0,1,3.39,3.39,0,0,1,.13.53.86.86,0,0,0,.46,1,.29.29,0,0,1,.2.2,3,3,0,0,0-.13,1.12c-.07.2-.2.53-.33.86a.67.67,0,0,1-.07.27.13.13,0,0,0-.13-.14,3.31,3.31,0,0,0-.13-1.12c0-.07,0-.33-.07-.33a1.11,1.11,0,0,1-.13-.66v-.34h-.13c0,.14-.2.27-.2.47a6.86,6.86,0,0,0-.2,1.19s0,.13.07.13a1.85,1.85,0,0,1,.13,1.66c-.13.33-.33.52-.33.79s0,.53,0,.86a.37.37,0,0,1-.13.33c-.07.33-.33.53-.4.86-.46-.07-.33-.53-.66-.66a1.64,1.64,0,0,1-.66.93c-.14,0-.27.06-.27.19a9.22,9.22,0,0,1-.33,1.33h-.07c-.13-.2-.26-.47-.13-.66s-.13-.2-.13-.34c0-.52-.4-.79-.86-.46a.65.65,0,0,1-1-.06,5.11,5.11,0,0,1-.67-1.13c-.79-2.45-1.52-5-2.31-7.41-.46-1.32-1.13-2.52-1.46-3.84a20,20,0,0,0-1.19-2.78,5,5,0,0,0-.53-1.06h-.13a18.59,18.59,0,0,0-1,2.39c-.47,1.25-1.59,5.42-1.92,6.61-.2.47-.33.93-.53,1.33s-.2.66-.33,1l-.66,1.65c0-.39.79-2.51.86-3,.13-.13.13-.33.26-.46s.07-.47-.13-.53a1.15,1.15,0,0,1-.13-.93v-.33h-.07c-.13.13-.26.13-.26.26a3.08,3.08,0,0,0-.53,1.66,3.31,3.31,0,0,0-.33.86,1.81,1.81,0,0,1-.53.86c-.14.26-.33.33-.47.59a1.29,1.29,0,0,0-.33.67c-.13.39-.2,1-.33,1.39,0,.13,0,.26-.13.33s-.2-.07-.2-.2c-.13-.33-.2-.47-.53-.47-.13.27-.26.47-.33.67a6.87,6.87,0,0,0-.26,1.45,4.46,4.46,0,0,1-.2.86,16.32,16.32,0,0,0-.2,1.79c-.13.33-.27.66-.66.66s-.33,0-.47-.13-.19-.33-.19-.4c0-.46-.14-.79-.14-1.26Zm2.85,3.77-.2.2c-.2-.07-.2-.2-.2-.4A.25.25,0,0,1,559.21,64.38Zm.26-3.31c-.13,0-.13-.13-.13-.2s.13-.26.2-.33a.38.38,0,0,1,.33.2C559.67,60.87,559.67,61.2,559.47,61.07Zm12.71-22.63a2.19,2.19,0,0,1-.33-.53C572.18,37.91,572.18,38,572.18,38.44Zm3.7,22.1a.45.45,0,0,0,.14-.26h-.47C575.69,60.54,575.82,60.61,575.88,60.54Zm4-12c0-.13-.06-.2-.06-.33-.13.13-.27.13-.27.2a2,2,0,0,1-.33.66C579.66,49,579.85,48.7,579.85,48.5Zm1.33.33a.25.25,0,0,1-.2.13s-.2-.13-.2-.26a.79.79,0,0,1,.53-.66C581.31,48.3,581.18,48.5,581.18,48.83Zm1.12.86a.25.25,0,0,0-.2.13.76.76,0,0,0-.26-.2c0-.26,0-.46.26-.59l.2-.2A.93.93,0,0,1,582.3,49.69Zm.47.79c.06.47.06.47-.14.53C582.44,50.81,582.5,50.62,582.77,50.48Zm2-9.59a.45.45,0,0,0-.26-.13c.13-.07.13-.07.13-.2s.33-.13.46-.13l.07.13C585,40.69,584.82,40.76,584.75,40.89Zm-.13.86v-.4C584.82,41.55,584.82,41.68,584.62,41.75Zm.79,0v.13a.4.4,0,0,1-.26.13c-.07,0-.07-.13-.07-.26Zm.73-3.38c.13-.46.27-.59.6-.46C586.47,38,586.41,38.24,586.14,38.37Z" />
	<path d="M275.81,53V28.94h2.91V39.65h12.83V28.94h2.91V53h-2.91V42.24H278.72V53Z" />
	<path d="M307.48,53.37A8.4,8.4,0,0,1,303,52.22,7.66,7.66,0,0,1,300.08,49a11,11,0,0,1-1-4.85,11.35,11.35,0,0,1,1-4.9,8,8,0,0,1,2.85-3.31,7.65,7.65,0,0,1,4.27-1.19,8.37,8.37,0,0,1,2.78.47,6.85,6.85,0,0,1,2.5,1.52,7.21,7.21,0,0,1,1.8,2.78,11.73,11.73,0,0,1,.67,4.25v1.18H301v-2.4h11.09a6,6,0,0,0-.6-2.73,4.69,4.69,0,0,0-1.72-1.89,4.84,4.84,0,0,0-2.61-.69,5,5,0,0,0-2.86.81,5.43,5.43,0,0,0-1.85,2.13,6.19,6.19,0,0,0-.65,2.79v1.6a7.7,7.7,0,0,0,.71,3.46,5,5,0,0,0,2,2.15,5.79,5.79,0,0,0,3,.73,5.88,5.88,0,0,0,2-.31A4.07,4.07,0,0,0,312,48.06l2.68.76a6,6,0,0,1-1.42,2.39,6.92,6.92,0,0,1-2.47,1.59A9.07,9.07,0,0,1,307.48,53.37Z" />
	<path d="M320.4,59.72a6.6,6.6,0,0,1-1.25-.11,3.83,3.83,0,0,1-.77-.22l.71-2.44a4.11,4.11,0,0,0,2.52,0c.68-.27,1.26-1.08,1.75-2.43l.52-1.41L317.21,35h3l5,14.38h.18l5-14.38,3,0-7.69,20.63a7.69,7.69,0,0,1-1.28,2.29,5,5,0,0,1-1.77,1.35A5.46,5.46,0,0,1,320.4,59.72Z" />
	<path d="M340.07,49.71,339.88,51a25.32,25.32,0,0,1-.6,2.86c-.27,1-.56,2-.84,2.88s-.53,1.62-.72,2.15H335.6c.11-.5.24-1.16.4-2s.33-1.74.5-2.76.31-2.05.42-3.11l.14-1.31Z" />
	<path d="M357.78,28.94V53h-2.91V28.94Z" />
	<path d="M365.68,28.94v2.11a6.79,6.79,0,0,1-.35,2.05,8.33,8.33,0,0,1-1,2.11,7.45,7.45,0,0,1-1.6,1.76l-1.5-1.22a15.18,15.18,0,0,0,1.28-2.2,5.53,5.53,0,0,0,.55-2.45V28.94Z" />
	<path d="M368.64,53V35h2.68v2.82h.23a4.66,4.66,0,0,1,1.82-2.25,5.55,5.55,0,0,1,3-.8,5.25,5.25,0,0,1,3,.8,5.31,5.31,0,0,1,1.86,2.25h.19a5.29,5.29,0,0,1,2.08-2.22,6.31,6.31,0,0,1,3.33-.83,5.42,5.42,0,0,1,4,1.51,6.33,6.33,0,0,1,1.53,4.69V53h-2.77V40.92a3.4,3.4,0,0,0-1.09-2.85,4,4,0,0,0-2.57-.86,3.79,3.79,0,0,0-2.95,1.14,4.14,4.14,0,0,0-1.05,2.9V53h-2.82V40.64a3.27,3.27,0,0,0-1-2.49,3.57,3.57,0,0,0-2.57-.94,3.78,3.78,0,0,0-2,.57,4.31,4.31,0,0,0-1.51,1.6,4.69,4.69,0,0,0-.57,2.34V53Z" />
</svg>