<svg id="Layer_1" data-name="Layer 1" xmlns="http://www.w3.org/2000/svg" viewBox="0 0 846 55.16">
	<style>
		path {
			fill: #24292f;
		}

		@media (prefers-color-scheme: dark) {
			path {
				fill: #c9d1d9;
			}	
		}
	</style>
	<path d="M414.9,38.69a25,25,0,0,1,2-6.72c.92-2,1.78-3.94,2.74-5.9.38-.82,1-1.49,1.35-2.26a47.22,47.22,0,0,1,3.45-5.23,1,1,0,0,1,.24-.19,4.61,4.61,0,0,0,1.25-1.16c.58-.76,1.15-1.53,1.82-2.25.2-.19.63-.24,1-.39,0,0,.15.15.15.24a3.24,3.24,0,0,1-.82,1.49,1,1,0,0,0-.24.53,1.68,1.68,0,0,0-.09.53.3.3,0,0,0,0,.29c.28.19.14.52.14.76a.31.31,0,0,1-.19.24.83.83,0,0,1-.15.24c0,.05.15.05.2.1s0,.1,0,.14a6.23,6.23,0,0,1-.43,3c-.14.29-.33.58-.43.86s0,.39.29.34.24,0,.29.19a2.1,2.1,0,0,1-.34,1.3.38.38,0,0,0-.14.29c0,.24-.1.28-.24.24s-.29,0-.1-.15c.05,0-.05-.19-.1-.19a.62.62,0,0,0-.67.29c-.24.53-.43,1-.67,1.53-.1.2-.05.24.14.24a1.3,1.3,0,0,1,.58.2v.19c-.1,0-.29,0-.34-.05-.28-.38-.76-.05-1.05-.34l-.15.44s.15.14.24.14.2-.1.29-.14a.18.18,0,0,1,.15-.05c0,.05,0,.19,0,.19-.29.14-.29.34-.19.62a.47.47,0,0,1-.39.53c-.14.05-.24.15-.09.29a.33.33,0,0,1,0,.19.29.29,0,0,1-.19-.05c-.19-.24-.29-.09-.33.1-.15.43-.58.67-.82,1.06-.19.24-.48.62-.43.86a2.11,2.11,0,0,1-.1,1c-.05.14-.24.29-.29.48a2.4,2.4,0,0,0-.19.82.47.47,0,0,1-.33.53l-.05,0c-.05.34-.34.63-.24,1A1,1,0,0,1,421,36.2a.53.53,0,0,0-.14.33,1.28,1.28,0,0,0,.1.43c0,.2.14.39-.15.48-.05,0-.09.1-.05.1.15.53-.38.77-.43,1.2s-.05.48.14.67.1.15,0,.24a1.7,1.7,0,0,1-.19.19c-.14.1-.14.15,0,.24a.3.3,0,0,1,0,.29.43.43,0,0,0,0,.53c0,.1,0,.19,0,.34a1.59,1.59,0,0,0-.15.52c0,.1.15.24.24.34a2.91,2.91,0,0,1,.34.38s0,.1-.05.1c-.34,0-.05.29-.15.38l.05,0c.24-.09.24.1.29.19l.29,1.16c.05.28,0,.52,0,.76a.78.78,0,0,1,0,.58v.1a1.18,1.18,0,0,1,0,1.05c0,.1.05.24.05.34s.14-.1.19,0,.24.19.19.24c-.09.34.05.48.34.58.05,0,.14.14.14.19.05.33.29.29.48.24h.1c.43-.1.43-.1.33.33a.68.68,0,0,0,.24.68.65.65,0,0,1,.1.86v.1a1.07,1.07,0,0,0,.24.09c.05,0,.1-.09.1-.14,0-.24,0-.48,0-.72v-.15c.09,0,.24,0,.29.05a1.89,1.89,0,0,0,1,.43c.05,0,.1.2.2.29s.09.15.19.19a1,1,0,0,0,1-.33c1-1.11,2-2.21,3.08-3.27a40.08,40.08,0,0,0,5.9-8.44c.24-.44.53-.92.82-1.35a21.54,21.54,0,0,0,2.68-6.53c.44-1.58,1-3.12,1.44-4.7.2-.63.2-1.3.39-1.92.38-1.39.86-2.79,1.2-4.18.67-2.54,1.3-5.09,2-7.63,0-.24,0-.34-.29-.38a2.17,2.17,0,0,1-.91-.24,1.75,1.75,0,0,0-1.4,0c-.67.19-1.44.24-2.16.38a1.17,1.17,0,0,0-.33.14.4.4,0,0,0-.24.05c-.19.05-.39.05-.53.1a1.23,1.23,0,0,1-1.15,0c-.19,0-.24,0-.34.14a.49.49,0,0,1-.48.24.3.3,0,0,0-.29,0c-.14.1-.28.15-.33-.05h-.1c-.05.34-.14.58-.53.68-.09,0-.09.24-.14.38a.59.59,0,0,0,0-.29c0-.09-.05-.14-.05-.24s-.28.1-.28.19-.15.24-.34.2h-.1c-.52.48-1.15.14-1.72.24s-1.06-.2-1.49.24c0,0-.1,0-.1-.05-.09-.29-.33-.39-.62-.48-1-.34-2-.67-2.93-1.06A14.29,14.29,0,0,1,425,11s-.1-.09-.1-.14a1.74,1.74,0,0,1,.86-1.3,38.62,38.62,0,0,1,8.84-2.78c2.49-.48,4.94-1,7.39-1.49,1.49-.29,3-.48,4.46-.72,1.64-.29,3.22-.67,4.8-1,2.55-.48,5.09-1,7.68-1.39a10.93,10.93,0,0,1,1.83-.1c.77-.1,1.49-.29,2.25-.38a.53.53,0,0,1,.24-.05,28.59,28.59,0,0,0,4.9-.53C470.1,1,472,.67,473.89.43c.05,0,.05,0,.1,0A.9.9,0,0,0,475.05,0h.57c.05.05.05.1.1.1a2.39,2.39,0,0,0,1.39.38c1.15,0,2.26.1,3.41.14.53.05,1,.1,1.1.77v.39a8.7,8.7,0,0,1-1,.38c-.14,0-.29-.05-.43-.14a1,1,0,0,0,0-.24c0-.05-.1-.2-.15-.2s-.33.1-.33.15.14.33.19.48.05.09,0,.14-.1,0-.14.1c-.58.29-.58.29-.72-.34-.1-.38-.15-.43-.48-.24s-.58.39-.87.58a.21.21,0,0,1-.24,0c-.29-.05-.48,0-.48.33a2.06,2.06,0,0,1-.19.34,3.77,3.77,0,0,1-1.58.77,1.38,1.38,0,0,0-.39.09.27.27,0,0,1-.19.05,1.62,1.62,0,0,0-1.54.29.56.56,0,0,1-.28,0s.09-.1.09-.15.19-.14.29-.19c-.14-.09-.24-.24-.38-.29a.49.49,0,0,0-.34.2c-.1.09-.1.14-.24.09s-.29,0-.29.19v.15s-.09,0-.09,0c-.29-.19-.48-.14-.58.19s-.34.19-.48.1c-.34-.24-.58-.15-.86.14-.1.1-.24.19-.34.29s-.1,0-.14,0c-.24-.1-.53,0-.72.09s-.58,0-.82.15a.34.34,0,0,1-.29,0c-.19-.15-.29,0-.43.09s-.1.19-.19.34a.42.42,0,0,1-.58.24,1.19,1.19,0,0,0-1.06.09,9,9,0,0,1-1.24.44H464c-.09,0-.14-.1-.24-.15a3.2,3.2,0,0,0-.19.34,1.92,1.92,0,0,1,.05.24,1.88,1.88,0,0,0-.14.24c-.05,0-.05-.15-.1-.15a.2.2,0,0,0-.14,0c-.15,0-.29,0-.34-.15s-.34-.09-.53,0-.09.24-.24,0h-.05c0,.33-.57,0-.57.38-.1,0-.24,0-.29-.09a1.83,1.83,0,0,1-.48-.39c-.05.19-.1.39-.14.53a.63.63,0,0,1-.15.19c-.05,0-.05-.09-.09-.14a.34.34,0,0,0-.2-.19c0,.09,0,.14,0,.19s0,.14,0,.19,0,.05,0,.1l-.05,0c-.15-.19-.19-.1-.19,0s-.15.19-.29,0a1.33,1.33,0,0,1-.19-.14c-.2-.14-.39-.38-.68-.14-.09.09-.28,0-.38,0a1.35,1.35,0,0,0-1.3.57c0,.05-.14.05-.19.05-.38-.24-.38-.24-.62.14a1,1,0,0,1-.53.29,1.65,1.65,0,0,1-.53.15c-.05,0-.09-.05-.14-.1s.05-.1.09-.1a.69.69,0,0,1,.24-.24s-.09-.09-.14-.09a.8.8,0,0,0-.34,0c-.14.09-.24.24-.38.33s-.19.05-.19,0c-.15-.29-.39-.24-.63-.19a3.86,3.86,0,0,1-.76,0,.5.5,0,0,0-.15,0c0,.24-.09.29-.29.29s-.19.09-.19.14.1.19.15.29.14.14.14.24-.1.19-.19.34a1.09,1.09,0,0,0-.15-.25,2.18,2.18,0,0,0-.48-.19s-.14.19-.19.24v0c.29.1.24.38.34.58a.27.27,0,0,1,0,.19h0c-.1.14-.15.24-.24.38l.38-.14h.1c0,.05,0,.1,0,.1a.29.29,0,0,0-.1.43c.1.24.15.53.24.77s0,.28-.19.38l-.29.14a.5.5,0,0,1,.05.15c.29-.15.24.09.29.24s.14.14.24,0h.1s.09.19,0,.24c-.24.14-.24.33-.14.57s0,.2,0,.29-.14.24-.24.34a.46.46,0,0,1-.29.19.3.3,0,0,0-.24.34c0,.43-.09.91-.14,1.34a.35.35,0,0,0,.05.24c.24.34.05.67-.05,1,0,.05-.1.1-.1.05a.79.79,0,0,0-.86.05c-.19.14-.19.28,0,.43s.19.14.1.29a1.94,1.94,0,0,1,0,.24.49.49,0,0,0,.24-.05c.05,0,.1-.05.2-.1v.24a1.72,1.72,0,0,0-.1.48c0,.05,0,.1,0,.15a.24.24,0,0,1-.09-.15.89.89,0,0,0-.77-.48c-.05,0-.1.05-.15.1a.24.24,0,0,0,.15.09c.19.1.24.2.09.39s-.14.09-.14.19-.19.1-.24-.05-.14-.19-.19-.19-.19.1-.24.19a2.94,2.94,0,0,1-.34.1,0,0,0,0,0,.05.05.81.81,0,0,0,.29.09l-.29.29a1,1,0,0,0-.43.62.22.22,0,0,1-.19.15c-.44.05-.48.09-.48.53,0,0,.09.14.14.14a1.23,1.23,0,0,0,.43.14,2.43,2.43,0,0,1-.24.72c0,.1-.14.15-.14.24-.05.24-.05.44-.39.24,0,0,0,0,0,0,0,.29-.1.39-.39.34l-.09.05v.24c0,.09.14.14.24.24s.24.43-.2.48c-.24,0-.24.24-.19.43s.1.48-.19.62c-.05.05,0,.19-.05.34a1,1,0,0,1-.09.33,2,2,0,0,1-.2.34c-.09.24-.14.48-.24.72a.59.59,0,0,0,.05.67c0,.05-.05.19-.09.19-.24.05-.39.2-.15.44a.31.31,0,0,1-.14.43c-.1,0-.19.14-.34.24s-.05.05-.09.09h.19a1.92,1.92,0,0,0,.53-.28c.09-.1.24-.29.19-.34-.15-.24,0-.34.14-.38.29-.1.29-.29.34-.48a.25.25,0,0,0,.09-.2c.05.1.15.2.2.29v.19a.25.25,0,0,0-.05.15,2.66,2.66,0,0,0,.62.81c.43.24.19.63.34.92a3,3,0,0,1,.19,1c.05.38-.05.43-.38.38s-.24,0-.2.19.1.34.15.53a.11.11,0,0,1-.1.1.49.49,0,0,1-.24,0l-.14.15s.09,0,.14.1a.18.18,0,0,1,.1,0c.38.2.38.2.57-.24l.15-.14c0,.05.05.14.05.19.14.48,0,.72-.48.87-.05,0-.05.09-.05.14s.09,0,.19.09c-.24,0-.43,0-.43-.28,0,0-.1-.1-.15-.1s0,.1-.09.1v.05c0,.33.09.67-.39.71.15,0,.39.15.39.2,0,.24.09.53-.24.67-.05,0-.05,0-.05.1a2.6,2.6,0,0,0-.05.62,0,0,0,0,0,.05.05c.43.38-.05.81,0,1.25,0,.09-.14.24-.24.28s-.29.29-.38.53-.24.19-.39.29-.05,0-.05,0a1.5,1.5,0,0,1,.39-1.06h.09a.26.26,0,0,0,.2.1c0-.19.43-.29.28-.62,0-.1-.19-.29-.28-.29s-.48,0-.53.29c0,.09,0,.28-.15,0v0c-.09,0-.14,0-.24-.1.15-.1.24-.19.39-.29s.05,0,.09,0-.09-.09-.14-.09-.19,0-.29-.1-.29-.09-.19.15c.05.09-.19.24-.34.24s-.09,0-.14.14a.5.5,0,0,0-.1.29,1.2,1.2,0,0,1-.19-.29c-.09-.24-.24-.14-.43-.14-.34,0-.29.57-.67.43l-.05.05.09.09a1.09,1.09,0,0,0,.25.15l-.29.14c-.44.14-.44.29-.19.62a3.9,3.9,0,0,1,.28.53c.05,0,0,.19-.09.29s-.19.19-.24.24a1,1,0,0,0-.2.14v-.24l.15-.14a.18.18,0,0,1-.15-.05v-.14c0-.05.05-.15.05-.19a1,1,0,0,0-.28-.2.38.38,0,0,0-.1.24,4.25,4.25,0,0,0-.05.82.51.51,0,0,1-.19.24.35.35,0,0,0-.19-.1.18.18,0,0,0-.15.05c0,.19,0,.43-.09.63-.05,0-.05.14-.1.19a1.78,1.78,0,0,0-.48.33,7.64,7.64,0,0,0-.62.68s-.05.14,0,.14a.37.37,0,0,0,.29.19l.43-.29h.24c0,.1,0,.24,0,.29a1,1,0,0,1-.53.15.69.69,0,0,0-.67,1c.05.15,0,.29.05.39v.14s.09,0,.09-.09.19-.05.29-.1a.27.27,0,0,0,.05-.19c0-.1-.05-.19-.05-.29.1.05.14.14.19.19a.88.88,0,0,0,.34.1c.09,0,.28-.1.19.14a.77.77,0,0,1,.14.1.24.24,0,0,0,.15.09l-.15.15H442c0,.38-.14.14-.29.09s-.24,0-.38-.09a.49.49,0,0,1,.05.24,0,0,0,0,0,0,0c.23-.15.19.09.28.14A1.1,1.1,0,0,0,442,43c.14.05.24.05.39.1a2.91,2.91,0,0,1-.34.38h-.14s.09.15.14.15a2.75,2.75,0,0,1,.48.33.31.31,0,0,0,.53-.14,7.16,7.16,0,0,0,.48-1s-.1-.15-.15-.24-.19-.1-.24-.19,0-.1,0-.2a.17.17,0,0,1,.14,0,2.9,2.9,0,0,0,.29.19c.33.24.33.34.09.63,0,0-.14.14-.14.19a1.53,1.53,0,0,1-.48,1.1,11.65,11.65,0,0,1-.62,1.06,2,2,0,0,1-.44.48c-.38.53-.81,1.1-1.2,1.63-.19.24-.29.24-.48,0s-.24-.24-.33,0-.39.24-.63,0c0,0-.19,0-.29,0s-.14.1-.24.15c.05,0,.1.09.15.09H439A.18.18,0,0,0,439,48c-.19.19-.09.19.1.19h.19c.1,0,.19.05.29.05a.57.57,0,0,1-.19.24,6.32,6.32,0,0,1-1,.52.14.14,0,0,1-.05-.09c0-.1.1-.19.1-.29s0-.29-.24-.29c-.1,0-.2-.14-.34-.19a2.06,2.06,0,0,0,.19-.34s.05-.09.05-.14-.19,0-.19,0c-.19.24-.53.38-.48.72,0,0,0,.1,0,.1-.29.33-.05.52.14.76s.05.2.1.29c-.14,0-.24-.05-.34-.05s-.09-.14-.14-.14-.05,0-.1-.1v.1c-.09.48-.28.82-.81.91a.78.78,0,0,0-.1.53,1,1,0,0,1-.09.82.16.16,0,0,0-.05.14.78.78,0,0,1-.53.86c-.34.1-.53,0-.53-.38,0-.1-.14-.19-.24-.29,0,.1-.09.15-.05.24a.88.88,0,0,0,.1.34,1.17,1.17,0,0,0,.14.19c-.14,0-.33.05-.43,0a.51.51,0,0,1-.09-.53,1.88,1.88,0,0,0,0-.72c0-.14-.14-.19-.24,0s-.19.15-.33,0-.29,0-.39.19a3.22,3.22,0,0,1-.48.68,12,12,0,0,1-1.24,1,.38.38,0,0,0-.1.2s.1.09.19.14.15.05.19.05-.09.14-.19.14c-.81.24-1.63.39-2.35.67-1,.39-2.06.15-3,.44a3.07,3.07,0,0,0-.68.24h-.19c-.05-.1-.14-.15-.19-.24-.29-.39-.48-.39-.91-.29a1.6,1.6,0,0,1-.48,0,5.18,5.18,0,0,0-1.2.09,1.48,1.48,0,0,1-1-.19,2.51,2.51,0,0,0-1.54-.48,1,1,0,0,1-1-.43c-.29-.39-.58-.72-.82-1.11a14.15,14.15,0,0,1-3-5.37,12.11,12.11,0,0,1-.57-2.59c-.05-.58-.15-1.11-.24-1.68V40.56C414.7,39.94,414.85,39.32,414.9,38.69Zm8.69-8.16a.46.46,0,0,0,.19-.09,1.32,1.32,0,0,1,.09.48.5.5,0,0,1-.14.33c-.05.05-.14.19-.19.19s-.24-.14-.24-.24a2.18,2.18,0,0,1,0-.57c0-.05.09-.1.09-.1S423.54,30.58,423.59,30.53Zm.86,18.87c.05,0-.05.09-.1.14a2.35,2.35,0,0,0,0-.24.4.4,0,0,1,0-.19C424.4,49.25,424.45,49.3,424.45,49.4Zm.86-21.27V27.7a.18.18,0,0,1,.15.05l.24.24a1.08,1.08,0,0,1,.14.19c-.09.09-.24.19-.33.29s-.1,0-.15,0A.59.59,0,0,0,425.31,28.13Zm1.2-1.06c-.09-.14-.33-.28-.33-.43a1.59,1.59,0,0,1,.24-.62c.05,0,.14,0,.14.05a4.75,4.75,0,0,1,.19.57C426.66,26.79,426.61,26.93,426.51,27.07Zm8.16,23.86c.24.15.1.24,0,.34s0,.19,0,.29l.15-.15.33-.19c.05.1.05.19.1.29v.09a.18.18,0,0,1,.1,0c0-.15.19-.39.14-.48a2.08,2.08,0,0,0-.58-.44A1,1,0,0,1,434.67,50.93Zm1.73-2.16s-.09.15-.09.19a.58.58,0,0,0,.19.2.17.17,0,0,0,.05-.1Zm3-1.53a.92.92,0,0,0,.29.33,2.94,2.94,0,0,0,.19-.33c0-.05-.1-.15-.19-.24C439.52,47.09,439.38,47.19,439.38,47.24Zm1-1.88c-.1-.09-.15-.19-.24-.24a1.18,1.18,0,0,1-.29.24c.09,0,.14.1.24.15Zm1.05.53c.05,0,.1,0,.1-.09a.07.07,0,0,0,0-.1c-.39-.1-.43-.38-.48-.72a.16.16,0,0,0-.05-.14s-.05.09-.09.14-.1.1-.1.14A1.59,1.59,0,0,1,440,46l-.05.09a4.9,4.9,0,0,0,.92.53c.05,0,.24-.09.33-.19s0-.14,0-.24-.09-.19-.05-.19.15-.1.25-.15Zm-.33-2.83c-.1-.24-.29-.19-.44-.14s-.09.14-.14.28l.14.1c.15-.19.15,0,.2.1s.09.19.19.19.19,0,.09.19v.14c.05,0,.1,0,.15-.09s0-.1.05-.24A1.66,1.66,0,0,1,441.11,43.06Zm0,1.34c-.05,0-.1.05-.15.05s.05.1.15.15.19,0,.29,0,.09,0,.09,0,.19.24.29.34.05.14.1.24,0,.09.09.14.1,0,.14-.09a.34.34,0,0,0-.09-.53c-.24-.15-.58-.29-.87-.48C441.15,44.36,441.15,44.36,441.11,44.4Zm.62-2.78c-.1-.1-.19-.14-.29-.24v-.1a.81.81,0,0,0,.24-.19c.05,0,.1-.05.1,0l.14.15A1.13,1.13,0,0,1,441.73,41.62Zm.38,2.35-.43.29a1.77,1.77,0,0,0,.43.19s.1-.09.15-.19A.84.84,0,0,0,442.11,44Zm1.2-2.78-.09-.1-.14-.14c-.05.09-.1.14-.05.24s.05.24.05.33a1.34,1.34,0,0,1-.39-.09l-.43-.15c-.05,0-.15-.14-.15-.19s.1-.14.15-.24c.05.1.14.15.14.19.1.2.2.2.29,0a.16.16,0,0,0,.05-.14c.14-.1.29-.29.34-.24s.23.24.33.38C443.36,41.09,443.36,41.14,443.31,41.19Zm-.62-.82h-.05c0-.14-.43-.09-.14-.38.05-.05,0-.19,0-.29a.51.51,0,0,0,.19.24A.8.8,0,0,0,443,40,2.91,2.91,0,0,1,442.69,40.37ZM442.64,39c0-.05.05-.1.1-.15a.69.69,0,0,1,.14.2l-.14.09C442.69,39.12,442.64,39.08,442.64,39Zm.34,3.79c-.1-.1-.19-.14-.24-.19s.09-.1.09-.1a1,1,0,0,1,.25.19Zm1.3-1.3a2.09,2.09,0,0,0-.34-.33L443.7,41c.09,0,.14-.05.24-.1l.29-.14a.58.58,0,0,0-.05.29s.1.09.1.14.14.24.19.38a.62.62,0,0,0-.1.15C444.32,41.57,444.32,41.52,444.28,41.52Zm.24-4.41s0,0,0,0a.43.43,0,0,1-.24.09s-.1,0-.1-.09c0-.2-.05-.29-.29-.2-.05,0-.1-.09-.14-.09s.14-.1.24-.19A4.71,4.71,0,0,1,444.52,37.11ZM444,41.62v-.14s.09.09.09.14.05.24.1.38h-.1A.85.85,0,0,1,444,41.62Zm.43-.72c0-.24,0-.43-.29-.48v-.1c.14-.19.34-.38.48-.57s.1,0,.14-.1a2.25,2.25,0,0,0,.15-.19,1.24,1.24,0,0,1,.43.38c.05,0-.05.15-.1.24s-.24.39-.33.58-.24.34-.39.53C444.52,41,444.47,41,444.47,40.9Zm.24-.48a1.92,1.92,0,0,0,.05-.24c-.05-.1-.15-.14-.2-.24a.8.8,0,0,1-.19.29c.05.05.15.05.19.09S444.66,40.42,444.71,40.42Zm.09-2.83a.39.39,0,0,1-.19-.1c.1-.05.19-.14.29-.19s.05,0,.14.05Zm.24-8.16s.15,0,.2,0a3.54,3.54,0,0,0,.48-.24s0,0,.09-.09-.09-.1-.14-.1l-.48.15c-.1,0-.15.09-.19.14A.19.19,0,0,1,445,29.43Zm0,7.1a.14.14,0,0,1-.09-.05c.09,0,.19-.14.28-.19s.1.05.2.1A1.65,1.65,0,0,0,445.09,36.53Zm.67-.19c.05-.1.15-.14.24-.24a.17.17,0,0,0,.05.1c-.09.09-.14.19-.24.28C445.76,36.39,445.72,36.34,445.76,36.34Zm.77-2.5c-.09,0-.19.1-.19.15s.05.09.1.19c.09-.1.19-.14.28-.24C446.63,33.89,446.58,33.84,446.53,33.84Zm0-1.1a.12.12,0,0,0,0,.09c.15.25.39.25.53,0,.05,0,0-.14-.05-.23s-.09,0-.09.09-.1.19-.2,0c0,0,0,0-.09,0S446.53,32.69,446.48,32.74Zm.48-2.69h-.09a.18.18,0,0,0-.15-.05.32.32,0,0,0,.1.19,3.29,3.29,0,0,0,.38.2c.15,0,.29.05.34,0s.24-.24,0-.44c0,0,0-.14.05-.24s0-.14,0-.24-.24-.09-.28,0c-.2.09-.29.09-.39-.1s-.14-.1-.14,0a.4.4,0,0,0,0,.34c.05.09.09.19.14.28S447,30.05,447,30.05Zm-.24,1.25s.1.05.15.05a1.27,1.27,0,0,0,.24-.2s-.05,0-.1-.09S446.82,31.2,446.72,31.3Zm1.59-10.37c-.05-.05-.1-.14-.15-.19s0,0,.1,0a.93.93,0,0,0,.34.14A2,2,0,0,1,448.31,20.93Zm.24,1.34a.51.51,0,0,1,.09.24s0,.1-.09.1-.05-.1-.1-.1S448.5,22.32,448.55,22.27Zm.33-4.46c0,.29-.09.58-.14.91,0,0,.1.1.14.05s.34-.19.48-.29a.16.16,0,0,1,.05-.14.16.16,0,0,0-.14-.05c-.19,0-.34-.05-.19-.29,0-.05-.05-.19-.05-.33C448.93,17.76,448.88,17.76,448.88,17.81Zm.77,2.06a.47.47,0,0,1-.09-.28c-.05,0,.09-.1.14-.1s.1.1.14.1.1.14.1.19S449.75,19.87,449.65,19.87Zm1.44-1.77c-.09-.15-.24-.34-.33-.48l.14-.15.14.15a2.05,2.05,0,0,1,.15.43A.17.17,0,0,1,451.09,18.1Zm.72-4.37a1.88,1.88,0,0,1-.24.14,1,1,0,0,1,.19.24c.05,0,.1-.14.15-.19Zm1.3-4.8c.05.05.09.09.09.14a1.63,1.63,0,0,1-.09.53,1.49,1.49,0,0,1-.34-.29C452.92,9.17,453,9,453.11,8.93ZM460.55,8c-.05,0-.15-.1-.19-.15a3.67,3.67,0,0,1,.38-.24.33.33,0,0,1,.14,0A2.73,2.73,0,0,1,460.55,8Zm.43-.53a.35.35,0,0,1,.1.19.35.35,0,0,1-.1.19s-.05-.14-.05-.19S461,7.54,461,7.49Z" />
	<path d="M467.41,31.83a.66.66,0,0,0-.1.57.45.45,0,0,1,0,.34,7.21,7.21,0,0,1-.2,1c0,.24,0,.48.15.57-.05.53-.67,1.2-1.54,3.41a1.9,1.9,0,0,1-.57.91,1.11,1.11,0,0,0-.24.44,3.85,3.85,0,0,1-.34.52c-.1.1,0,.15.1.2-.2.14-.48,0-.68.24,0,0-.09,0-.09,0s-.05-.15-.1-.24c-.05.14-.05.28-.09.43a.37.37,0,0,1-.29.38.88.88,0,0,0-.58.29c-.05.05-.09.05-.14.1a1.87,1.87,0,0,0-1,1.15.35.35,0,0,1-.24.05c-.19,0-.19.24-.34.28s-.09.05-.14,0-.05-.09,0-.14a4.6,4.6,0,0,0,.53-.48v0c.05,0,.09,0,.14-.1v-.14s-.05,0-.05,0a.11.11,0,0,0-.09.1v.14c-.34-.14-.58.1-.87.19a.46.46,0,0,0-.09.19,1,1,0,0,0-.05.39,3.2,3.2,0,0,0-1.1.53s0,.14,0,.19a.24.24,0,0,1-.24.19.84.84,0,0,0-.33-.1,2.67,2.67,0,0,0-.34.29,3,3,0,0,1-.38.15l-.48-.15a1.44,1.44,0,0,1-1,.43.25.25,0,0,1-.15.05,2.34,2.34,0,0,1-1.49.15,3.15,3.15,0,0,1-1.1-.39c-.29-.19-.58-.29-.86-.48s-.39-.33-.63-.48a5.91,5.91,0,0,1-1.34-1.53,2.73,2.73,0,0,1-.39-.72,6.53,6.53,0,0,0-.33-.63,4.91,4.91,0,0,1-.53-.81c-.1-.1-.19-.24-.29-.34a1.21,1.21,0,0,1-.29-.43,8.21,8.21,0,0,1-.33-3.41,10.42,10.42,0,0,1,1.1-3.79c.24-.53.53-1,.77-1.54a5.64,5.64,0,0,1,.72-1.3,18.85,18.85,0,0,1,1.39-1.87l.29-.29a19.09,19.09,0,0,1,2.07-2.44,12.4,12.4,0,0,1,1.44-1.35,3.94,3.94,0,0,1,.86-.53c.29-.14.62-.38.91-.52l1.11-.68s.14,0,.19,0a1,1,0,0,0,.72.19,1,1,0,0,1,.67.29c.14.19.29.33.43.52v.1c-.24.38-.24.38.1.67a.67.67,0,0,0,.33.15,5.7,5.7,0,0,1,1.16.48,1,1,0,0,0,.38.09,1.24,1.24,0,0,1,.91.39,3.62,3.62,0,0,1,.87,1,1.18,1.18,0,0,0,.24.34,12.72,12.72,0,0,1,.91,1.44,2.53,2.53,0,0,1,.29.81c0,.05,0,.15.09.2a.59.59,0,0,1,.15.57.73.73,0,0,0,.09.43.18.18,0,0,1,.05.15,6.78,6.78,0,0,0,.14,1.34v.87a1.3,1.3,0,0,0,.1.72S467.41,31.78,467.41,31.83ZM463.19,31c0-.81,0-1.68,0-2.49,0-.58,0-.58-.34-1a2.64,2.64,0,0,0-.62-.63c-.29-.14-.63-.24-.92-.38a.56.56,0,0,0-.48-.05.58.58,0,0,1-.48-.09.53.53,0,0,0-.76.14c-.24.29-.48.58-.72.82a2.38,2.38,0,0,0-.48.76,1,1,0,0,0-.63.44.32.32,0,0,1-.19.24,1.41,1.41,0,0,0-.48.57.3.3,0,0,1-.29.24.53.53,0,0,0-.34.19c-.23.34-.48.73-.71,1.11a.9.9,0,0,0-.05.38c0,.05,0,.05-.05.1a4.58,4.58,0,0,1-.63.82,1.87,1.87,0,0,0-.43.62c-.14.53-.48,1-.62,1.54a5.36,5.36,0,0,1-.24.48c0,.19-.15.28-.24.43a1,1,0,0,1-.1.81.87.87,0,0,0-.14.48,2.43,2.43,0,0,0-.1.58,3.28,3.28,0,0,0,1.11,3,1,1,0,0,0,1,.28,7.49,7.49,0,0,0,1.1-.38,14.13,14.13,0,0,0,2.16-1,10.66,10.66,0,0,0,1.25-.67.69.69,0,0,0,.24-.24,10,10,0,0,0,1.05-1.49,2.71,2.71,0,0,1,.29-.43,3.1,3.1,0,0,0,.58-1.11,2.09,2.09,0,0,1,.24-.43c.09-.24.24-.48.33-.77A7.93,7.93,0,0,0,463,32a2.84,2.84,0,0,1,.09-.39C463.23,31.44,463.19,31.2,463.19,31Zm-4.56-15.55a2,2,0,0,1,.52.62,1.54,1.54,0,0,1,.34,1.68c-.05.05-.1.24-.19.39a.57.57,0,0,1-.39.48,1.21,1.21,0,0,0-.48.38.74.74,0,0,1-.81.58.9.9,0,0,0-.24.05h-.29a2.09,2.09,0,0,1-1.25-.53,4,4,0,0,0-.57-.63,9.56,9.56,0,0,1-1.06-1.05v-.67c0-.2.05-.39.05-.63a1.62,1.62,0,0,1,.57-.91,1.8,1.8,0,0,1,.92-.77h.33Zm-2.4,27.94a.69.69,0,0,0-.25-.19,2.21,2.21,0,0,0-1.58,0,.2.2,0,0,0-.14.14c-.05.15,0,.19.14.24a2,2,0,0,0,1.39.1c.1-.05.19-.05.29-.1Zm4.22-17.67a.67.67,0,0,0,.24.19,6.6,6.6,0,0,1,1.49.72,1,1,0,0,0,.57.29,3.22,3.22,0,0,0-.72-1.29.6.6,0,0,0-.62-.15.64.64,0,0,1-.43,0A.57.57,0,0,0,460.45,25.68ZM466,19.63c0,.05-.15.05-.29.05s-.53-.05-.77-.05-.43.05-.62.05a2.31,2.31,0,0,1-.67-.33c-.39-.34-.82-.58-1.2-.92s-.77-.76-.82-1.29c0-.24.05-.53.05-.72V16a.21.21,0,0,1,0-.24c.24-.2.29-.44.48-.53a.83.83,0,0,1,.43-.29h.77s0,.05.09.05a1,1,0,0,0,0,.24c.1,0,.1,0,.15,0v0l0-.1a6.12,6.12,0,0,1,2,1.2l.14.15a3.22,3.22,0,0,1,.68,1.34v1C466.4,19,466.21,19.3,466,19.63Zm-1.78,19.49c-.24,0-.24.15-.29.29s0,.15.05.19.15,0,.24.1Z" />
	<path d="M486.23,50.45a.72.72,0,0,1-.48.34.45.45,0,0,0-.48.33.88.88,0,0,1-.63.44c-.05,0-.09,0-.19,0s-.1.2-.1.34,0,.05-.09.05a1.48,1.48,0,0,0-.63.38,1.33,1.33,0,0,1-.67.19c-.14,0-.33,0-.48,0s0,.19,0,.24a.92.92,0,0,1-.53.1,1,1,0,0,0-.86.33,3.24,3.24,0,0,0-1.11,0h-.09a6.65,6.65,0,0,1-2.84-.86,5.2,5.2,0,0,1-.91-.87,3.78,3.78,0,0,1-.53-.81c-.09-.15-.28-.39-.19-.58s0-.14-.05-.19c-.72-.77.58-7.1.34-7.78a12.28,12.28,0,0,1,.72-3,12.76,12.76,0,0,1,.48-1.54,17.46,17.46,0,0,0,.58-2.21c.14-.67,0-.67-.53-.86a3,3,0,0,0-1.44-.24,3.2,3.2,0,0,1-.67.14,1.61,1.61,0,0,1-.72.1c-.1,0-.15.05-.15.14s0,.34.1.44c.19-.05.05-.34.33-.39a2.56,2.56,0,0,1-.33,1s-.19.14-.24.19-.05-.09-.15-.09-.09-.05-.14.09.14.05.29,0a.74.74,0,0,0-.29.39.26.26,0,0,0-.1.24c0,.33-.57.62-.24,1,.2.09.2.19.1.33a4,4,0,0,0-.14.48.22.22,0,0,1-.29.15.24.24,0,0,0-.15.09c-.09.15-.52,1.87-.62,2a.31.31,0,0,0-.1.34.56.56,0,0,1-.09.14c-.05.14-.15.24-.15.38s-.09.29.1.34,0,.14.05.29a.26.26,0,0,0,.19-.15c0,.1.1.15,0,.2s-.1.19-.1.38a1.6,1.6,0,0,1-.24.53c-.14.09-.19.29-.24.38a.85.85,0,0,0-.67.43c-.29,0-.29,0-.53-.28-.09,0-.24,0-.33.28s-.19.2-.34.29c0,.1.05.19.05.34-.24.33-.24.33-.48.38a.4.4,0,0,1-.1.29c0,.19-.14.38-.33.38a.27.27,0,0,0-.24.1,2.85,2.85,0,0,0-.39-.19c-.14.24-.48.29-.57.62l-.15,0c-.19,0-.67,1.15-.86,1.1s-.14.2-.24.29-.1.19-.24.19c0-.19.19-.28.24-.52.05,0,.1-.1.05-.2a.64.64,0,0,0-.15.34.43.43,0,0,1-.24-.05c.34-.77,1.11-2.49,1.4-3.31a1.92,1.92,0,0,0-.44-.48,1.1,1.1,0,0,1-.09-.77,2,2,0,0,0,.14-.53c-.05-.33.19-.57.29-.86a.18.18,0,0,1,.29,0c.09.14.24.14.38.19a5.87,5.87,0,0,0,.48-1.1c.05-.15.43-1.92.48-2.07s.19-.57.29-.81a7.2,7.2,0,0,1,.34-1.11c.09-.24.14-.48.24-.76-.1,0-.15,0-.24,0v-.19h-.24s-.05,0,0-.15a8.18,8.18,0,0,1,.67-.62,1.49,1.49,0,0,0,.24-.43c.24-.72.43-1.49.67-2.16a15.13,15.13,0,0,1,1-2.41c.05,0,.05-.14.05-.19a1.71,1.71,0,0,1,.19-.72c0-.09.1-.29.14-.38s.05-.1.1-.19.24-.34.19-.58a.16.16,0,0,1,.05-.14,1.92,1.92,0,0,0,.38-.77,1,1,0,0,1,.2-.48.46.46,0,0,0,.09-.48c.15,0,.24,0,.29-.05.29-.43.82-.62.14-.48l0,.05a.51.51,0,0,0-.53.29h-.24c-.05-.44.33-.44.53-.63,0-.14-.1-.14-.2-.09a2,2,0,0,0-.52.24c-.1,0-.1.14-.15.19s-.14.19-.19.24a2.45,2.45,0,0,0-.48.72c-.05.09-.14.14-.19.24a3.36,3.36,0,0,0-.24.29c-.24.14-.43,0-.67-.15a1.82,1.82,0,0,1-.68-.67s-.19-.1-.28-.19v-.19a1.12,1.12,0,0,0-.2-.53,2.2,2.2,0,0,1-.57-1,5.42,5.42,0,0,0-.29-.72.33.33,0,0,1,.1-.53c.43-.38.86-.77,1.24-1.15.1-.05.15-.1.24-.15a3.53,3.53,0,0,0,.82-.62,4.23,4.23,0,0,0,.67-.34c.05,0,.1-.09.15-.14a12.05,12.05,0,0,1,2.25-1c.29-.09.63-.29.91-.38a13.94,13.94,0,0,1,2.6-.87c.43-.09.91-.28,1.34-.38.1,0,.29,0,.43,0a16,16,0,0,1,3.32-.05,10,10,0,0,1,2.92.68,3.18,3.18,0,0,1,1.68,1.44c.24.48.58,1,.82,1.44a4.13,4.13,0,0,1,.29.91,7.81,7.81,0,0,0,.33,1,2.52,2.52,0,0,1,.29,1.58,4.41,4.41,0,0,1-.33,1c-.15.19-.2.48-.34.67a1.56,1.56,0,0,1-.29.72,3.74,3.74,0,0,0-.57.87c-.05.09-.15.14-.2.24a2.72,2.72,0,0,1-.76.67c-.1.05-.15.19-.24.29a1,1,0,0,1-.24.38c-.1.05-.2.14-.2.19.1.24-.09.34-.19.48a1.79,1.79,0,0,0-.09-.19.47.47,0,0,0-.39.43c-.33.05-.62.1-.77.44a.37.37,0,0,1-.14-.29c-.43.19-.86.43-1.3.62-.09-.19.05-.19.1-.24a.25.25,0,0,0,.14-.24.2.2,0,0,0,0-.14c0-.05-.05-.05-.1-.05a1,1,0,0,0-.29.19c-.09.05-.14.15-.24.1s-.33.14-.48.19a.83.83,0,0,0-.33.38h-.29s-.05.15,0,.19a2,2,0,0,0,.29.72,5.32,5.32,0,0,1,.24,1.16,12.3,12.3,0,0,1,0,1.82,16.78,16.78,0,0,0-.34,2.11c-.09.53-.14,1-.19,1.54,0,.05-.05.05-.1.1s-.19.14-.19.24.05.24.05.43-.14.09-.24.09v.1a.59.59,0,0,1,.05.72.5.5,0,0,0-.1.29c0,.09-.1.19-.14.29a1.26,1.26,0,0,1-.53.76.32.32,0,0,0-.14.24c-.1.24-.2.48-.29.77a4.2,4.2,0,0,1-.39,1A6.15,6.15,0,0,0,479,45.8V46c.14.33.14.81.28,1.15,0,.1.1.14.1.24s.1.38.19.48a7.42,7.42,0,0,0,1,1.1.44.44,0,0,1,.29.2,1.77,1.77,0,0,0,.34.24c.14,0,.24.09.38.14a2.65,2.65,0,0,0,1,.53.17.17,0,0,1,.1,0v.14l-.05.05h-.15a12.8,12.8,0,0,1-2.4-1.39,12.07,12.07,0,0,1-1-1.16.52.52,0,0,1-.14-.19c-.1.1-.1.15-.1.15s.1.19.15.28a1.65,1.65,0,0,0,.62,1.25,3.34,3.34,0,0,0,1.2.82c.39.14.77.33,1.11.43a4,4,0,0,0,1.48.19,8.14,8.14,0,0,0,2.16-.24A3.08,3.08,0,0,1,486.23,50.45Zm-14-22.32h0s0-.05-.1-.05h.1A0,0,0,0,0,472.21,28.13Zm.62,9.41c-.33.05-.43.29-.53.53,0,.09,0,.14.05.29a.69.69,0,0,1,.43-.39C472.93,37.92,472.93,37.78,472.83,37.54Zm.63-2.06c-.15.09-.2.14-.15.24S473.5,35.57,473.46,35.48Zm7.77-9.08a19.7,19.7,0,0,0,1.54-1.34A11.74,11.74,0,0,1,484,24c.05-.09.09-.14.19-.09a6.89,6.89,0,0,1-1.15,1.24c-.05.1-.05.1-.05.15v.19a3.43,3.43,0,0,1,.43-.43,2.87,2.87,0,0,0,.39-.39,1.73,1.73,0,0,0,.43-.38,3.2,3.2,0,0,1,.43-.29c0,.15.05.39-.05.53s-.29,0-.19.1.05-.2.05-.24h.19c.14-.15.24-.2.29-.34A7.89,7.89,0,0,0,485.7,23a3.61,3.61,0,0,0,.29-.72c-.29-.33-.72-.19-1.06-.38.38-.1.62.19,1,.14a.39.39,0,0,0-.24-.33,2.36,2.36,0,0,1-.39-.1c-.19-.05-.28-.14-.43-.14a5,5,0,0,0-1.44-.19h-.24a1.35,1.35,0,0,0-.77,0s-.19,0-.28,0-.24,0-.39,0-.24.19-.38.19a2.23,2.23,0,0,1-.77.05,1.05,1.05,0,0,0-.91.24c-.05,0-.15.14-.2.14-.28,0-.38.19-.57.24v.19s.05.05.09.05a1.72,1.72,0,0,1,.48-.1c.1-.09.15-.09.29.05-.09.05-.14.1-.19.1a2.19,2.19,0,0,1-.58.19c-.19.14-.28.24-.24.38a2.12,2.12,0,0,1,0,.58v.1a.84.84,0,0,1,.33-.1c.15.1.1.19.15.34a.29.29,0,0,1-.1.33c-.1.15-.19.05-.34,0s-.24,0-.38.15a.63.63,0,0,1-.1.28,1.11,1.11,0,0,1-.48.68.41.41,0,0,0-.09.33,1,1,0,0,1-.19.72.22.22,0,0,1-.05.15,2.38,2.38,0,0,1-.19,1c-.24.44-.39.87-.58,1.3V29a.72.72,0,0,1,.34.1c-.05.09-.1.14-.15.24a2.72,2.72,0,0,1-.38.38s-.1.15,0,.19a8,8,0,0,0,1.25-.67c.19-.14.48-.24.72-.43a3.42,3.42,0,0,0,1.15-.77,3.55,3.55,0,0,0,.77-.72c.24-.29.52-.53.72-.81C481.14,26.5,481.19,26.4,481.23,26.4ZM478,51.51c-.24-.39-.48-.72-.72-1.06-.1-.09-.15-.19-.24-.24a.37.37,0,0,0-.39-.24h0c-.05.29.28.39.28.67,0,0-.24,0-.19.2a1.11,1.11,0,0,0,.34-.15,1.69,1.69,0,0,1,.48.48,4.52,4.52,0,0,1,.43.48C478,51.6,478,51.56,478,51.51Zm-.72-22.85h.09c0,.05,0,.05,0,.09s-.05,0-.15,0Zm.29-3.65a.18.18,0,0,0,0,.14s.15,0,.15,0a1.53,1.53,0,0,0,.43-1.3H478a1.07,1.07,0,0,0-.24.38C477.68,24.48,477.58,24.72,477.54,25Zm0,3.26v0Zm3.07,4.33a2.26,2.26,0,0,1,.77,1.29,2.1,2.1,0,0,0,.19.53.5.5,0,0,0,.1.24s.09,0,0-.1a2.47,2.47,0,0,0-.09-.67,1.17,1.17,0,0,1-.1-.58,4.61,4.61,0,0,0-.33-1.43c-.05-.05-.1-.05-.15-.1-.24,0-.43.1-.67.14a.24.24,0,0,0-.05.34C480.42,32.35,480.46,32.5,480.61,32.6Zm2.69-10.85c-.1,0-.1.14-.15.14a6.63,6.63,0,0,0-2.35.24.54.54,0,0,1-.48.05.53.53,0,0,1,.39-.24,6.07,6.07,0,0,1,1.87-.19h.72Zm-2.69,19.77a.55.55,0,0,0,.1-.38A.55.55,0,0,0,480.61,41.52Zm.24-1.29c0,.05,0,.09,0,.14s.14,0,.14-.09-.1-.05-.1-.1S480.9,40.23,480.85,40.23Zm.38-13.16v0a0,0,0,0,1,0,0v.05S481.23,27.07,481.23,27.07Zm2.64-5.18s-.14-.1-.24-.1a1.18,1.18,0,0,1,.87.1h-.63Z" />
	<path d="M509.6,32.93c-.05,0-.09.1-.14.1a11.42,11.42,0,0,0-1.54.81c-.19.39-.67.48-1,.77s-.62.58-1,.82c-.57.53-1.2,1-1.77,1.49-.58.33-1.15.86-1.68,1.2s-.67.57-1.11.57a.47.47,0,0,0-.28.1.49.49,0,0,0-.39.62,2.6,2.6,0,0,0,.15.82l-.58.57v.29a.53.53,0,0,1-.24.58,2.64,2.64,0,0,0-.63.62,1.48,1.48,0,0,1-.52.58l-.87.86a.85.85,0,0,0-.09.48c-.2.34-.58.43-.92.58-.09.05-.28.19-.38.09-.34-.09-.48.1-.67.2a1,1,0,0,1,0,.38c-.05.1-.24.14-.34.19s-.29-.14-.38-.24c-.1.15-.15.29-.29.48a.94.94,0,0,0-.72.29,2.39,2.39,0,0,0-.19-.48c-.1,0-.24,0-.29.19a1.26,1.26,0,0,0-.43.43.55.55,0,0,1-.63.2.61.61,0,0,0-.48.09c-.28.29-.33.29-.72,0a1.26,1.26,0,0,1-.86.58,4.3,4.3,0,0,1-1.15.29c-.15,0-.24,0-.43,0s-.15.09-.2,0c-.28-.19-.48,0-.76.15s-.53-.1-.72.14c-.1,0-.1.19-.1.34a4.26,4.26,0,0,1-.62.14c0-.14,0-.19,0-.29s0-.14-.09-.19a.29.29,0,0,0-.29,0c-.1.1-.1.29-.24.19a.45.45,0,0,1-.38-.14,4.32,4.32,0,0,1-1.3-1.3,2,2,0,0,1-.48-1.44.38.38,0,0,0-.1-.33,4.58,4.58,0,0,1-.38-.63,1.34,1.34,0,0,0-.34-.52c-.09-.2-.14-.34-.19-.44a6.54,6.54,0,0,1-.29-1.82.67.67,0,0,1,.15-.38c.14-.2.19-.34.14-.48a.21.21,0,0,1,0-.29c-.19-.53,1.39-4.66,1.82-5.28a1.19,1.19,0,0,0,.24-.63.48.48,0,0,1,.15-.24,1.73,1.73,0,0,0,.57-.77c.15-.28.34-.57.48-.81a2.65,2.65,0,0,0,.58-.91,3.69,3.69,0,0,1,.72-.82s.1-.05.1-.1c.14-.72,4.94-5,5.18-5.32.67-.53,1.44-1.06,2.11-1.64a28.6,28.6,0,0,1,5.81-3.16c.39-.15.82-.44,1.25-.29a.72.72,0,0,0,.38-.19.77.77,0,0,1,.58-.05.88.88,0,0,1,.48.24,6.15,6.15,0,0,1,1.39.86,2.27,2.27,0,0,1,.34.15,3.51,3.51,0,0,1,1.73,1.87.78.78,0,0,1,.19.14c.09,0,.09.15.09.15s-.14.09-.19.09a6.71,6.71,0,0,1-1-.05,1.2,1.2,0,0,0-.92.1,10,10,0,0,1-1.15.43,1.6,1.6,0,0,1,.05.48,1.11,1.11,0,0,0-.86.15c-.48.24-1,.48-1.45.76a.39.39,0,0,0-.23.24,1.7,1.7,0,0,1-.77.53,22.48,22.48,0,0,0-2.5,1.83c-.43.33-.91.52-1.15,1-.05.05-.19.1-.24.15a5.92,5.92,0,0,1-1.06.81,4.87,4.87,0,0,0-1.34,1.3c-.39.48-.82,1-1.25,1.44-.05.05-.19.14-.19.24,0,.38-.34.58-.43.91a2.67,2.67,0,0,1-.29.48c-.15.15-.34.34-.05.53a3.29,3.29,0,0,1-.48.39.64.64,0,0,0-.34.43.91.91,0,0,1-.24.48,3,3,0,0,0-.57.81c-.1.2-.24.44-.34.63s-.33.33-.19.62a.32.32,0,0,1-.1.19c-.14.39-.19.82-.57,1.06-.05.1-.15.19-.15.29a2.84,2.84,0,0,1-.52,1.63.15.15,0,0,0-.05.1c0,.14.24.33,0,.48a.8.8,0,0,0-.14.52c0,.1.09.24.14.34s-.34.38,0,.62a2.53,2.53,0,0,0,1.68-.19,24.92,24.92,0,0,0,3.22-1.63c.33-.19.57-.43.91-.62.09-.1.19-.24.29-.34.33-.29.52-.77,1-1a5.46,5.46,0,0,0,1-1,9.81,9.81,0,0,0,.86-1,.18.18,0,0,0,.05-.15c-.29-.14-.58-.33-.91-.48a1.12,1.12,0,0,1-.39.1.81.81,0,0,0-.62.14,1.15,1.15,0,0,1-.67.19c-.48-.09-.48,0-.82.24-.19-.24-.58-.33-.67-.67a2.62,2.62,0,0,1,1.77-.48,1,1,0,0,0,.63-.09c-.1-.24-.15-.29-.34-.29a4.68,4.68,0,0,0-.67.19,1.72,1.72,0,0,0-.67-.24,1.25,1.25,0,0,1-.48-.38,3.22,3.22,0,0,1-.72-1.25.75.75,0,0,1,.67-.58c1.39-.29,2.74-.81,4.08-1.2a1.9,1.9,0,0,1,.38-.09,16.46,16.46,0,0,0,2.55-.58c.14-.05.38-.05.58-.1a5.67,5.67,0,0,0,1.63-.57,2.44,2.44,0,0,1,.81-.24,5.38,5.38,0,0,0,.63-.19.64.64,0,0,0,.33-.1c.34-.34.87-.24,1.3-.48.29.38.82.38,1.25.67a4.76,4.76,0,0,1,.86.48,1,1,0,0,0,.48.14c.24,0,.29.1.19.34Zm-22.46,14.4a1.25,1.25,0,0,0,1,.05c-.05-.1-.05-.24-.1-.29s-.29-.14-.34-.29a.75.75,0,0,0-.81-.28c-.1,0-.15,0-.19,0a4.94,4.94,0,0,1-1.35-.48l-1.05-.63c0,.1-.1.19,0,.24a3.22,3.22,0,0,0,.52,1,.82.82,0,0,0,.87.48h.72ZM501.68,38c-.19-.14-.33,0-.48.1s-.05,0-.05.14a.44.44,0,0,0,.53-.14Z" />
	<path d="M526.74,20.16c.19-.05.28.05.43.19-.1.2-.24.34-.34.53a10.52,10.52,0,0,0-1.77.91c0,.15.09.15.14.15h.38l0,0v.09a.24.24,0,0,1-.19.1,4.79,4.79,0,0,1-.81.24,2.45,2.45,0,0,0-.92.53l.15.28a4.9,4.9,0,0,0-.82.2c-.19.09-.43.24-.67.38a.67.67,0,0,1-.1.29.5.5,0,0,1-.19.24,1.47,1.47,0,0,0-.67.57.36.36,0,0,1-.34.2.76.76,0,0,0-.62.48.73.73,0,0,1-.34.33,1.25,1.25,0,0,0-.62.29h-.1c-.33-.05-.53.14-.77.29a1.33,1.33,0,0,1-.86.29.83.83,0,0,0-.82.62,2.58,2.58,0,0,1-.67.86h.43c0,.05,0,.1,0,.15-.14.24-.33.43-.24.77a.68.68,0,0,0-.29-.05c-.14.09,0,.14,0,.24v.09a1,1,0,0,0-.43.68.67.67,0,0,1,.24.19v.1a1.73,1.73,0,0,1-.48.28.47.47,0,0,0-.38.43c0,.15-.15.29-.2.44.1.09.15,0,.24,0s.15-.24.24-.34a1,1,0,0,0,.2-.29c.14.15,0,.29.09.39l.05,0c.43-.2.86-.34,1.34-.53l1.92-.72.92-.29a1.36,1.36,0,0,1,.62-.05c.14,0,.29,0,.38,0a.84.84,0,0,1,.24.19,4.29,4.29,0,0,0-.76.49.32.32,0,0,0-.1.19c0,.09.14.14.24.14s.29-.05.48-.1a3.25,3.25,0,0,0,.19.34s0,.1-.14.19a2,2,0,0,0-.63.72s-.19.15-.24.2l-.38.23a.68.68,0,0,0,.05.34l-.1.1a3.68,3.68,0,0,1-.77.38,1.1,1.1,0,0,0-.62.53,1.83,1.83,0,0,1-.77.58,10.92,10.92,0,0,1-1.1.52c-.1.05-.19.15-.29.2a1.06,1.06,0,0,1-.72.24,1.15,1.15,0,0,0-.58.28,1.86,1.86,0,0,1-.86.44c-.29.09-.58.24-.86.33a.72.72,0,0,1-.29.1c-.29,0-.39.24-.53.53.1,0,.19,0,.29.09a2.24,2.24,0,0,0-.48,1c.09.1.19,0,.29,0,.33-.14.62-.29,1-.43a.83.83,0,0,1,.24-.15A4.79,4.79,0,0,0,515,37c.58-.24,1.06-.57,1.59-.77.33-.09.62-.24,1-.33a6.08,6.08,0,0,0,1.44-.67,11.69,11.69,0,0,1,1.29-.53.72.72,0,0,1,.29-.1,5.84,5.84,0,0,1,1.2-.53,7.43,7.43,0,0,0,1-.43c.48-.19,1-.34,1.44-.53.19,0,.39-.14.58-.19s.24,0,.29.19a1.79,1.79,0,0,1-.68.53,6.36,6.36,0,0,0-1.29.91,1.25,1.25,0,0,1-.24.15c-.1,0-.15.09-.15.19s.15.24.29.19a3,3,0,0,0,.43-.09c-.14.14-.19.24-.24.28a7.16,7.16,0,0,0-1,.48c-.14.05-.24.2-.38.29,0,.15.24.19.1.39a1.22,1.22,0,0,1-.58.48,2.45,2.45,0,0,0-.62.43c0,.14.09.19.19.14a1.31,1.31,0,0,1,.29-.14c-.1.33-.1.33-.29.43a.5.5,0,0,0-.29.1c-.14.24-.43.28-.62.43a1.94,1.94,0,0,1-.77.24,3.71,3.71,0,0,0-.53.29,4.41,4.41,0,0,0-.58.38h-.09c-.19.19-.53,0-.67.29a4.24,4.24,0,0,1-.68.33,1.12,1.12,0,0,1-.52.2c-.1,0-.15,0-.2,0-.38.29-.86.44-1.2.72,0,.1-.19.1-.28.1s0,.24-.2.34a20,20,0,0,1-2.68,1.29,2.61,2.61,0,0,1-.58.15l-1.1.28a.11.11,0,0,0-.1.1,1.24,1.24,0,0,1-.38.62c-.1,0-.15.2-.24.29a5.57,5.57,0,0,1-.39.77c-.05.1-.14.14-.19.19-.19-.14,0-.33-.1-.43s-.19.14-.19.24a3,3,0,0,0-.19.58A1.88,1.88,0,0,1,508,46c-.15-.1-.15-.19-.1-.29a6.07,6.07,0,0,1,.19-.82,1,1,0,0,1,0-.24c-.29.44-.24,1-.58,1.35l-.29-.15-.09.1-.15.72c-.14,0-.24.05-.38.05a1.91,1.91,0,0,1-.2.33.63.63,0,0,1-.47.39h-.58a.46.46,0,0,1-.38-.39,5.8,5.8,0,0,1,0-1,7.64,7.64,0,0,0,.09-1.53s0,0,0,0c.2-.34,0-.77.2-1.15,0-.53.33-1,.28-1.49a1.48,1.48,0,0,0-.14-1.2.17.17,0,0,1,0-.14.82.82,0,0,1,.48-.34.42.42,0,0,0,.29-.29c.14-.57.29-1.15.48-1.73a6.86,6.86,0,0,0,.34-1,3.46,3.46,0,0,1,.24-.81l-.63-.77a1.53,1.53,0,0,0,.24-.14c.29-.15.53-.24.82-.39a.83.83,0,0,0,.33-.38c.15-.48.39-.92.58-1.4a2.44,2.44,0,0,0,.34-.81.35.35,0,0,1,.09-.24c.1-.1.15-.14.15-.29a1.08,1.08,0,0,1,.33-.62c.15-.15.29-.29.24-.53s.05-.15.1-.24.24-.39.33-.58a.27.27,0,0,0,0-.19c.05-.14.05-.29.1-.34.33-.28.29-.76.48-1.1s.38-.72.53-1.06c0-.09,0-.14.09-.19a8.38,8.38,0,0,0,.67-1.34c.05-.05.05-.15.1-.19a1.28,1.28,0,0,0,.24-.82v-.24c.19-.14.34-.38.58-.58a1.17,1.17,0,0,0,.14-.24,6.2,6.2,0,0,1,.38-.91,1.67,1.67,0,0,0,.15-.48.64.64,0,0,1,.53-.57h.09a.93.93,0,0,1,.87,0c.33.2.67.29,1,.48s.58.1.87.24a.43.43,0,0,0,.33,0c.63-.24,1.25-.53,1.88-.77s1.34-.58,2-.82a7.09,7.09,0,0,0,1-.38,8.68,8.68,0,0,1,1.06-.34l.72-.29a5.7,5.7,0,0,1,1.58-.48,4.12,4.12,0,0,1,1.3-.14.74.74,0,0,1,.33.05.63.63,0,0,1,.15.19c-.15.05-.29.14-.43.19s-.29.05-.39.15-.09.09-.09.14a.2.2,0,0,0,.09.14ZM512.29,36.82c.05,0,.05-.1.05-.24-.29.05-.48.14-.53.38s0,.44-.15.63,0,.48-.19.67c-.05,0,0,.14,0,.14s.14,0,.14,0Zm2.16-5.19a3,3,0,0,0-.34.53c.19.1.29.05.29,0A1.48,1.48,0,0,0,514.45,31.63Z" />
	<path d="M522.17,44.55V44.4a17.92,17.92,0,0,1,.34-3.21c.24-1.25,1.06-4.71,1.35-6,.47-1.92,1-3.84,1.43-5.76.34-1.25.58-2.64.82-3.89,0-.1,0-.1.1-.19s.29-.48.38-.72c.14-.72.34-1.44.48-2.21a1,1,0,0,1,1-.67,9.2,9.2,0,0,1,1.35.33c.33.15.57.34.57.72,0,.15.1.24.1.34s.14.24.24.24a2.65,2.65,0,0,0,.53.53.62.62,0,0,1,.19.43v.53a1.54,1.54,0,0,0,.24.48c0,.19.14.24.29.43a12.89,12.89,0,0,0,.72,1.44c.24.29.33.62.57.86s.24.48.39.72a1.51,1.51,0,0,1,.33.82,4.7,4.7,0,0,0,.48,1.44c0,.05.1.14.1.24a.64.64,0,0,1,.24-.34h.24v.24c-.19.1-.19.15-.1.24a3.43,3.43,0,0,1,.15,1.06,1.88,1.88,0,0,0,0,.53l.09-.05a.8.8,0,0,0,.34.05c.14.09.14.09.24-.05v-.24l0-.1c.09.1.19.15.19.34a2.78,2.78,0,0,0,.14.53h.1c.05,0,.05-.15.14-.24.24-.72.58-1.44.82-2.21.53-1.3,1-2.59,1.58-3.84a1.39,1.39,0,0,0,.15-.58.35.35,0,0,1,.09-.38c.24-.67.48-1.3.72-1.92s.39-1.2.63-1.87c.57-1.11,1-2.31,1.63-3.41a1.42,1.42,0,0,1,.24-.34,1.22,1.22,0,0,1,.86-.48.7.7,0,0,0,.39-.09h.09c.34.19.58.43.87.57a.89.89,0,0,1,.48,1c.72-.57.72,5.86,0,5.67v.24a1.27,1.27,0,0,0,0,.43.31.31,0,0,1-.1.24.7.7,0,0,0-.24.53c0,.19-.09.24-.24.43s-.33.29-.33.53a1.1,1.1,0,0,1-.39.81,2.72,2.72,0,0,1-.24.24.93.93,0,0,0,.48.15c-.09.24-.24.19-.38.09s-.24,0-.43.15-.15.24-.24.43c.09.05.09.05.09.14a3.56,3.56,0,0,0-.14.63c0,.09-.1.19-.19.24s-.05.24-.15.33-.09.15-.09.24c-.24.1-.24.24-.29.39a.54.54,0,0,1-.43.57c0,.1-.24.15-.24.34.09,0,.09,0,.19,0s.24,0,.29.09a1.06,1.06,0,0,0,.57.1c.34-.1.39-.24.48-.72,0-.19-.09-.34-.38-.43a.64.64,0,0,1-.34-.15.7.7,0,0,1,.34-.14.84.84,0,0,1,.53-.1v.34a1.25,1.25,0,0,0,.33,1,.13.13,0,0,1,0,.19s-.09.14-.24.24a.91.91,0,0,0-.24.62,4.14,4.14,0,0,0,.1,1.06c0,.14,0,.24-.1.29a.35.35,0,0,1-.38-.05.1.1,0,0,0-.1-.1c-.14,0-.14-.14-.14-.24a2.19,2.19,0,0,0-.1-.38c-.09-.1-.14-.19-.24-.1-.14.24-.48.39-.33.82,0,.05,0,.24,0,.38s-.24,0-.34,0-.38-.33-.33-.57c.09-.05.19-.15.09-.24a.62.62,0,0,1,.24-.63c.15-.09.24-.14.34,0s.14.15.29,0a.5.5,0,0,1,.43-.24c.24,0,.29-.09.29-.33s0-.24,0-.39a.91.91,0,0,0-.39.15,1.29,1.29,0,0,1-1,.33.35.35,0,0,0-.38.39,2.32,2.32,0,0,1-.43.81c-.05.1-.15.15-.15.34a1.48,1.48,0,0,1-.33.86c-.05.1-.05.24-.15.34a.77.77,0,0,1-.14.29,3.59,3.59,0,0,0-.24.67v.24c-.19.29-.24.62-.43,1a1,1,0,0,1-.15.48c-.33-.19-.38,0-.57.24s0,.48,0,.72a2.39,2.39,0,0,1,.09.38.62.62,0,0,0,.34.72s.14.1.14.15a2.23,2.23,0,0,0-.09.81c0,.15-.15.39-.24.63a.47.47,0,0,1,0,.19.1.1,0,0,0-.1-.1,2.49,2.49,0,0,0-.09-.81c0-.05,0-.24,0-.24a.77.77,0,0,1-.1-.48v-.24h-.09c0,.09-.15.19-.15.33a5.46,5.46,0,0,0-.14.87s0,.09,0,.09a1.32,1.32,0,0,1,.09,1.2c-.09.24-.24.39-.24.58s0,.38,0,.62a.27.27,0,0,1-.09.24c0,.24-.24.39-.29.63-.34-.05-.24-.39-.48-.48a1.19,1.19,0,0,1-.48.67c-.1,0-.19,0-.19.14a7.92,7.92,0,0,1-.24,1h0c-.1-.14-.19-.33-.1-.48s-.09-.14-.09-.24c0-.38-.29-.57-.63-.33a.48.48,0,0,1-.72,0,3.55,3.55,0,0,1-.48-.82c-.57-1.77-1.1-3.6-1.68-5.37-.33-1-.81-1.83-1-2.79a14.34,14.34,0,0,0-.87-2,3.68,3.68,0,0,0-.38-.77h-.1a14.1,14.1,0,0,0-.72,1.73c-.33.91-1.15,3.93-1.39,4.8-.14.33-.24.67-.39,1s-.14.48-.23.72l-.48,1.2c0-.29.57-1.83.62-2.21.09-.1.09-.24.19-.34s0-.33-.1-.38a.84.84,0,0,1-.09-.67v-.24h0c-.09.09-.19.09-.19.19a2.21,2.21,0,0,0-.38,1.2,2.64,2.64,0,0,0-.25.62,1.21,1.21,0,0,1-.38.63c-.1.19-.24.24-.34.43s-.24.29-.24.48-.14.72-.24,1c0,.09,0,.19-.09.24s-.15,0-.15-.15-.14-.33-.38-.33a5.34,5.34,0,0,0-.24.48,4.69,4.69,0,0,0-.19,1,2.88,2.88,0,0,1-.15.63,12.43,12.43,0,0,0-.14,1.29c-.1.24-.19.48-.48.48s-.24,0-.34-.09a.44.44,0,0,1-.14-.29c0-.34-.1-.58-.1-.91Zm2.07,2.73-.15.15c-.14,0-.14-.15-.14-.29A.18.18,0,0,1,524.24,47.28Zm.19-2.4c-.1,0-.1-.09-.1-.14s.1-.19.15-.24a.28.28,0,0,1,.24.14C524.57,44.74,524.57,45,524.43,44.88Zm9.22-16.41a1.65,1.65,0,0,1-.24-.39C533.65,28.08,533.65,28.18,533.65,28.47Zm2.69,16a.36.36,0,0,0,.09-.19h-.33C536.19,44.5,536.29,44.55,536.34,44.5Zm2.88-8.74c0-.09-.05-.14-.05-.24-.1.1-.19.1-.19.15a1.8,1.8,0,0,1-.24.48C539.07,36.1,539.22,35.91,539.22,35.76Zm1,.24a.18.18,0,0,1-.15.1s-.14-.1-.14-.19a.56.56,0,0,1,.38-.48C540.27,35.62,540.18,35.76,540.18,36Zm.81.63a.18.18,0,0,0-.14.09.7.7,0,0,0-.19-.14c0-.19,0-.34.19-.43L541,36A.7.7,0,0,1,541,36.63Zm.34.57c0,.34,0,.34-.1.39C541.09,37.44,541.14,37.3,541.33,37.2Zm1.44-7a.36.36,0,0,0-.19-.09c.09,0,.09,0,.09-.15s.24-.09.34-.09l0,.09C542.91,30.1,542.82,30.15,542.77,30.24Zm-.1.63v-.29C542.82,30.72,542.82,30.82,542.67,30.87Zm.58,0V31a.3.3,0,0,1-.19.1s0-.1,0-.19Zm.53-2.45c.09-.34.19-.43.43-.34C544,28.18,544,28.32,543.78,28.42Z" />
	<path d="M318.65,39V21.57h2.11v7.78h9.31V21.57h2.11V39h-2.11V31.22h-9.31V39Z" />
	<path d="M341.62,39.3a6.13,6.13,0,0,1-3.26-.84,5.51,5.51,0,0,1-2.1-2.35,8,8,0,0,1-.74-3.53,8.08,8.08,0,0,1,.74-3.54,5.8,5.8,0,0,1,2.06-2.41,5.54,5.54,0,0,1,3.1-.86,6.16,6.16,0,0,1,2,.34,4.88,4.88,0,0,1,1.81,1.1,5.36,5.36,0,0,1,1.31,2,8.62,8.62,0,0,1,.48,3.08v.85H337V31.43H345a4.37,4.37,0,0,0-.44-2,3.36,3.36,0,0,0-1.24-1.37,3.48,3.48,0,0,0-1.9-.51,3.61,3.61,0,0,0-2.08.6A3.88,3.88,0,0,0,338,29.7a4.55,4.55,0,0,0-.47,2v1.16a5.58,5.58,0,0,0,.52,2.51A3.56,3.56,0,0,0,339.48,37a4.17,4.17,0,0,0,2.14.53,4.35,4.35,0,0,0,1.44-.22,3,3,0,0,0,1.11-.68,3.19,3.19,0,0,0,.73-1.14l1.94.54a4.29,4.29,0,0,1-1,1.74A5,5,0,0,1,344,38.89,6.71,6.71,0,0,1,341.62,39.3Z" />
	<path d="M351,43.9a4.16,4.16,0,0,1-.91-.08,2.48,2.48,0,0,1-.56-.16l.51-1.77a3,3,0,0,0,1.84,0,2.8,2.8,0,0,0,1.27-1.76l.37-1-4.84-13.16h2.18l3.62,10.43h.13l3.62-10.43,2.19,0-5.57,15a5.65,5.65,0,0,1-.93,1.65,3.66,3.66,0,0,1-1.28,1A4.1,4.1,0,0,1,351,43.9Z" />
	<path d="M365.27,36.64l-.14.92a19,19,0,0,1-.44,2.08c-.2.74-.4,1.44-.61,2.09s-.38,1.17-.52,1.56H362c.07-.37.17-.84.29-1.44s.24-1.26.36-2,.22-1.49.3-2.25l.1-1Z" />
	<path d="M378.12,21.57V39H376V21.57Z" />
	<path d="M383.85,21.57v1.54a4.81,4.81,0,0,1-.26,1.48,6,6,0,0,1-.73,1.53,5.45,5.45,0,0,1-1.16,1.28l-1.09-.88a12.31,12.31,0,0,0,.93-1.6,4.17,4.17,0,0,0,.4-1.78V21.57Z" />
	<path d="M386,39V25.94h1.95v2h.17a3.28,3.28,0,0,1,1.32-1.63,4,4,0,0,1,2.19-.58,3.78,3.78,0,0,1,2.16.58A4,4,0,0,1,395.13,28h.14a3.81,3.81,0,0,1,1.5-1.61,4.65,4.65,0,0,1,2.42-.6,3.93,3.93,0,0,1,2.87,1.09,4.62,4.62,0,0,1,1.11,3.41V39h-2V30.27a2.46,2.46,0,0,0-.79-2.07,2.91,2.91,0,0,0-1.87-.63,2.77,2.77,0,0,0-2.14.83,3,3,0,0,0-.75,2.1V39h-2.05v-9a2.38,2.38,0,0,0-.72-1.8,2.62,2.62,0,0,0-1.87-.69,2.72,2.72,0,0,0-1.46.42,3,3,0,0,0-1.09,1.16,3.35,3.35,0,0,0-.42,1.7V39Z" />
</svg>